<?xml version="1.0" encoding="utf-8"?>
<!-- Generator: Adobe Illustrator 16.0.0, SVG Export Plug-In . SVG Version: 6.00 Build 0)  -->
<!DOCTYPE svg PUBLIC "-//W3C//DTD SVG 1.1//EN" "http://www.w3.org/Graphics/SVG/1.1/DTD/svg11.dtd">
<svg version="1.1" id="Layer_1" xmlns="http://www.w3.org/2000/svg" xmlns:xlink="http://www.w3.org/1999/xlink" x="0px" y="0px"
	 width="160px" height="160px" viewBox="-25 -5 160 160" enable-background="new -25 -5 160 160" xml:space="preserve">
<title>Page 1</title>
<desc>Created with Sketch.</desc>
<g id="Page-1_1_">
	<g id="desktop" transform="translate(-477.000000, -4556.000000)">
		<g id="Sindrome-impostor" transform="translate(-4.000000, 4159.000000)">
			<g id="impostor5" transform="translate(382.000000, 397.000000)">
				<g id="Page-1" transform="translate(99.000000, 0.000000)">
					<path id="Fill-1" fill="#6867A6" d="M59.83,16.194c0.178,0.175-2.285,9.565-7.21,27.772
						c-4.096,15.134-7.437,27.539-7.404,27.588c0.051,0.033,6.419-11.18,14.191-24.895c7.741-13.708,14.205-25.106,14.349-25.299
						c0.245-0.288,0.637-0.126,2.466,1.132c7.596,5.085,13.862,12.42,18.205,21.317c1.536,3.126,2.944,6.694,2.801,7.047
						c-0.077,0.145-10.69,5.562-23.629,12.019c-12.911,6.474-23.474,11.802-23.423,11.847c0.083,0.082,49.322,3.812,50.732,3.862
						c0.189,0,0.29,0.43,0.29,1.367c-0.036,1.53-0.372,4.612-0.569,4.801c-0.083,0.047-9.669,1.228-21.348,2.566
						c-11.682,1.339-21.267,2.486-21.316,2.568c-0.047,0.05,5.555,7.172,12.424,15.801c6.898,8.638,12.521,15.785,12.521,15.88
						c0,0.285-3.369,3.141-5.521,4.671c-7.548,5.295-16.036,7.861-24.687,7.412c-1.65-0.094-3.125-0.234-3.224-0.336
						c-0.095-0.095-1.492-11.828-3.125-26.064c-1.637-14.26-3.046-26.068-3.129-26.311c-0.129-0.282-3.384,3.047-13.33,13.748
						c-7.238,7.766-13.23,14.125-13.331,14.125c-0.241,0-2.706-5.086-3.855-7.94C7.591,88.02,6.49,72.542,9.682,58.463
						c0.729-3.19,2.139-7.89,2.477-8.228c0.146-0.143,3.711,2.724,9.673,7.842c5.18,4.466,9.364,7.942,9.228,7.767
						c-0.094-0.175-3.851-5.181-8.307-11.109l-8.114-10.768l1.15-2.055c3.174-5.741,5.93-9.403,10.283-13.697
						c3.436-3.361,6.191-5.436,10.061-7.617c4.064-2.25,9.46-4.036,14.107-4.611C52.505,15.719,59.488,15.862,59.83,16.194
						 M51.769,1.231c-2.289,0.582-3.862,1.426-5.218,2.794c-1.163,1.188-1.902,2.685-1.902,3.848v0.531l-0.725-0.531
						c-2.387-1.74-5.752-1.204-7.35,1.188c-0.437,0.623-0.633,1.292-0.725,2.434l-0.167,1.561l-2.26,1.146
						c-4.543,2.3-8.498,5.135-12.572,9.042C9.927,33.656,2.925,48.286,0.69,65.249c-0.574,4.4-0.574,14.589,0,19.001
						c2.248,17.021,9.267,31.64,20.266,42.124c4.153,3.953,8.635,7.103,13.054,9.21l1.992,0.967l-0.136,1.159
						c-0.39,3.328,2.114,5.925,5.405,5.616c0.569-0.076,1.356-0.268,1.793-0.477c0.409-0.223,0.77-0.356,0.8-0.344
						c0.028,0.046,0.228,0.611,0.454,1.251c0.485,1.467,2.219,3.312,3.952,4.157c3.834,1.914,9.148,1.914,12.979,0
						c2.308-1.143,4.287-3.727,4.287-5.613c0-0.523,0-0.493,0.979,0.164c1.945,1.363,4.725,1.113,6.445-0.582
						c1.342-1.335,1.627-2.689,1.159-5.257c-0.042-0.269,0.531-0.67,1.98-1.427c4.493-2.318,8.374-5.139,12.344-8.94
						c10.922-10.445,17.926-25.044,20.159-42.009c0.574-4.395,0.574-14.586,0-19.001c-2.248-17.021-9.268-31.622-20.266-42.124
						c-3.97-3.773-8.422-6.951-12.48-8.942l-1.613-0.785l0.119-1.055c0.359-3.312-2.295-5.855-5.66-5.483
						c-0.662,0.088-1.433,0.314-1.721,0.489c-0.314,0.21-0.588,0.344-0.633,0.297c-0.031-0.042-0.227-0.607-0.45-1.246
						c-0.485-1.472-2.218-3.312-3.954-4.161C59.043,0.801,54.985,0.398,51.769,1.231"/>
				</g>
			</g>
		</g>
	</g>
</g>
</svg>
