<?xml version="1.0" encoding="utf-8"?>
<!-- Generator: Adobe Illustrator 16.0.0, SVG Export Plug-In . SVG Version: 6.00 Build 0)  -->
<!DOCTYPE svg PUBLIC "-//W3C//DTD SVG 1.1//EN" "http://www.w3.org/Graphics/SVG/1.1/DTD/svg11.dtd">
<svg version="1.1" id="Layer_1" xmlns="http://www.w3.org/2000/svg" xmlns:xlink="http://www.w3.org/1999/xlink" x="0px" y="0px"
	 width="160px" height="80px" viewBox="1 -25 160 80" enable-background="new 1 -25 160 80" xml:space="preserve">
<title>Page 1</title>
<desc>Created with Sketch.</desc>
<g id="Page-1_1_">
	<g id="desktop" transform="translate(-947.000000, -4543.000000)">
		<g id="Sindrome-impostor" transform="translate(-4.000000, 4159.000000)">
			<g id="impostor-2" transform="translate(664.000000, 337.000000)">
				<g id="Page-1" transform="translate(287.000000, 46.000000)">
					<g id="Group-3" transform="translate(0.000000, 0.889729)">
						<g id="Clip-2">
						</g>
						<defs>
							<filter id="Adobe_OpacityMaskFilter" filterUnits="userSpaceOnUse" x="1.5" y="0.611" width="30.446" height="29.291">
								<feColorMatrix  type="matrix" values="1 0 0 0 0  0 1 0 0 0  0 0 1 0 0  0 0 0 1 0"/>
							</filter>
						</defs>
						<mask maskUnits="userSpaceOnUse" x="1.5" y="0.611" width="30.446" height="29.291" id="mask-2">
							<g filter="url(#Adobe_OpacityMaskFilter)">
								<polygon id="path-1" fill="#FFFFFF" points="31.946,0.611 1.5,0.611 1.5,29.901 31.946,29.901 								"/>
							</g>
						</mask>
						<path id="Fill-1" mask="url(#mask-2)" fill="#6867A6" d="M31.789,11.769c0-0.16-0.161-0.32-0.479-0.479l-7.812-1.116
							c-1.273-0.159-2.229-0.956-2.867-2.072l-3.507-7.174c-0.16-0.318-0.318-0.318-0.48-0.318c-0.158,0-0.316,0-0.478,0.318
							l-3.507,7.174c-0.476,1.116-1.594,1.913-2.868,2.072L1.979,11.29C1.66,11.29,1.5,11.61,1.5,11.769c0,0.159,0,0.318,0.16,0.637
							l5.737,5.58c0.957,0.796,1.276,2.072,1.118,3.347L7.24,29.144c0,0.32,0.158,0.479,0.158,0.639c0,0.158,0.319,0.158,0.638,0
							l7.016-3.667c0.477-0.319,1.114-0.479,1.753-0.479c0.637,0,1.275,0.159,1.752,0.479l7.016,3.667c0.318,0.158,0.476,0,0.637,0
							c0.157,0,0.32-0.318,0.157-0.639l-1.275-7.812c-0.158-1.274,0.162-2.551,1.118-3.347l5.738-5.58
							C31.789,12.248,31.789,11.929,31.789,11.769"/>
					</g>
					<g id="Group-6" transform="translate(31.831149, 0.889729)">
						<g id="Clip-5">
						</g>
						<defs>
							<filter id="Adobe_OpacityMaskFilter_1_" filterUnits="userSpaceOnUse" x="1.806" y="0.611" width="30.447" height="29.291">
								<feColorMatrix  type="matrix" values="1 0 0 0 0  0 1 0 0 0  0 0 1 0 0  0 0 0 1 0"/>
							</filter>
						</defs>
						<mask maskUnits="userSpaceOnUse" x="1.806" y="0.611" width="30.447" height="29.291" id="mask-4">
							<g filter="url(#Adobe_OpacityMaskFilter_1_)">
								<polygon id="path-3" fill="#FFFFFF" points="1.806,0.611 32.253,0.611 32.253,29.901 1.806,29.901 								"/>
							</g>
						</mask>
						<path id="Fill-4" mask="url(#mask-4)" fill="#5AE091" d="M32.095,11.769c0-0.16-0.16-0.32-0.479-0.479l-7.812-1.116
							c-1.273-0.159-2.229-0.956-2.867-2.072l-3.507-7.174c-0.161-0.318-0.318-0.318-0.48-0.318c-0.157,0-0.316,0-0.477,0.318
							l-3.507,7.174c-0.478,1.116-1.594,1.913-2.867,2.072L2.287,11.29c-0.319,0-0.481,0.319-0.481,0.479
							c0,0.159,0,0.318,0.162,0.637l5.736,5.58c0.957,0.796,1.276,2.072,1.118,3.347l-1.276,7.812c0,0.32,0.158,0.479,0.158,0.639
							c0,0.158,0.319,0.158,0.638,0l7.015-3.667c0.477-0.319,1.115-0.479,1.754-0.479c0.637,0,1.274,0.159,1.751,0.479l7.016,3.667
							c0.318,0.158,0.477,0,0.637,0c0.158,0,0.319-0.318,0.158-0.639l-1.275-7.812c-0.158-1.274,0.161-2.551,1.117-3.347l5.738-5.58
							C32.095,12.248,32.095,11.929,32.095,11.769"/>
					</g>
					<g id="Group-9" transform="translate(64.626878, 0.889729)">
						<g id="Clip-8">
						</g>
						<defs>
							<filter id="Adobe_OpacityMaskFilter_2_" filterUnits="userSpaceOnUse" x="1.148" y="0.611" width="30.448" height="29.291">
								<feColorMatrix  type="matrix" values="1 0 0 0 0  0 1 0 0 0  0 0 1 0 0  0 0 0 1 0"/>
							</filter>
						</defs>
						<mask maskUnits="userSpaceOnUse" x="1.148" y="0.611" width="30.448" height="29.291" id="mask-6">
							<g filter="url(#Adobe_OpacityMaskFilter_2_)">
								<polygon id="path-5" fill="#FFFFFF" points="1.148,0.611 31.597,0.611 31.597,29.901 1.148,29.901 								"/>
							</g>
						</mask>
						<path id="Fill-7" mask="url(#mask-6)" fill="#5AE091" d="M31.438,11.769c0-0.16-0.161-0.32-0.479-0.479l-7.813-1.116
							c-1.271-0.159-2.229-0.956-2.867-2.072l-3.507-7.174c-0.161-0.318-0.319-0.318-0.48-0.318c-0.157,0-0.315,0-0.477,0.318
							l-3.507,7.174c-0.478,1.116-1.595,1.913-2.868,2.072L1.629,11.29c-0.319,0-0.48,0.319-0.48,0.479c0,0.159,0,0.318,0.162,0.637
							l5.736,5.58c0.958,0.796,1.276,2.072,1.119,3.347l-1.276,7.812c0,0.32,0.157,0.479,0.157,0.639c0,0.158,0.32,0.158,0.639,0
							l7.015-3.667c0.476-0.319,1.115-0.479,1.752-0.479c0.639,0,1.274,0.159,1.753,0.479l7.015,3.667c0.318,0.158,0.477,0,0.638,0
							c0.158,0,0.319-0.318,0.158-0.639l-1.274-7.812c-0.159-1.274,0.16-2.551,1.116-3.347l5.739-5.58
							C31.438,12.248,31.438,11.929,31.438,11.769"/>
					</g>
					<g id="Group-12" transform="translate(97.422607, 0.889729)">
						<g id="Clip-11">
						</g>
						<defs>
							<filter id="Adobe_OpacityMaskFilter_3_" filterUnits="userSpaceOnUse" x="0.492" y="0.611" width="30.445" height="29.291">
								<feColorMatrix  type="matrix" values="1 0 0 0 0  0 1 0 0 0  0 0 1 0 0  0 0 0 1 0"/>
							</filter>
						</defs>
						<mask maskUnits="userSpaceOnUse" x="0.492" y="0.611" width="30.445" height="29.291" id="mask-8">
							<g filter="url(#Adobe_OpacityMaskFilter_3_)">
								<polygon id="path-7" fill="#FFFFFF" points="0.492,0.611 30.938,0.611 30.938,29.901 0.492,29.901 								"/>
							</g>
						</mask>
						<path id="Fill-10" mask="url(#mask-8)" fill="#5AE091" d="M30.781,11.769c0-0.16-0.161-0.32-0.479-0.479l-7.813-1.116
							c-1.273-0.159-2.229-0.956-2.867-2.072l-3.507-7.174c-0.161-0.318-0.319-0.318-0.479-0.318c-0.159,0-0.316,0-0.478,0.318
							l-3.509,7.174c-0.476,1.116-1.593,1.913-2.868,2.072l-7.81,1.116c-0.319,0-0.479,0.319-0.479,0.479
							c0,0.159,0,0.318,0.159,0.637l5.737,5.58c0.957,0.796,1.277,2.072,1.118,3.347l-1.275,7.812c0,0.32,0.157,0.479,0.157,0.639
							c0,0.158,0.319,0.158,0.64,0l7.014-3.667c0.477-0.319,1.115-0.479,1.753-0.479s1.275,0.159,1.752,0.479l7.017,3.667
							c0.318,0.158,0.476,0,0.637,0c0.157,0,0.318-0.318,0.157-0.639l-1.274-7.812c-0.159-1.274,0.161-2.551,1.117-3.347l5.737-5.58
							C30.781,12.248,30.781,11.929,30.781,11.769"/>
					</g>
					<g id="Group-15" transform="translate(130.218336, 0.889729)">
						<g id="Clip-14">
						</g>
						<defs>
							<filter id="Adobe_OpacityMaskFilter_4_" filterUnits="userSpaceOnUse" x="-0.168" y="0.611" width="30.449" height="29.291">
								<feColorMatrix  type="matrix" values="1 0 0 0 0  0 1 0 0 0  0 0 1 0 0  0 0 0 1 0"/>
							</filter>
						</defs>
						<mask maskUnits="userSpaceOnUse" x="-0.168" y="0.611" width="30.449" height="29.291" id="mask-10">
							<g filter="url(#Adobe_OpacityMaskFilter_4_)">
								<polygon id="path-9" fill="#FFFFFF" points="-0.168,0.611 30.282,0.611 30.282,29.901 -0.168,29.901 								"/>
							</g>
						</mask>
						<path id="Fill-13" mask="url(#mask-10)" fill="#5AE091" d="M30.122,11.769c0-0.16-0.161-0.32-0.479-0.479l-7.812-1.116
							c-1.274-0.159-2.229-0.956-2.867-2.072l-3.509-7.174c-0.159-0.318-0.318-0.318-0.479-0.318c-0.157,0-0.315,0-0.476,0.318
							l-3.509,7.174c-0.477,1.116-1.594,1.913-2.867,2.072L0.313,11.29c-0.317,0-0.48,0.319-0.48,0.479c0,0.159,0,0.318,0.163,0.637
							l5.737,5.58c0.955,0.796,1.274,2.072,1.117,3.347l-1.276,7.812c0,0.32,0.159,0.479,0.159,0.639c0,0.158,0.318,0.158,0.637,0
							l7.017-3.667c0.476-0.319,1.114-0.479,1.751-0.479c0.639,0,1.275,0.159,1.752,0.479l7.017,3.667c0.318,0.158,0.477,0,0.637,0
							c0.158,0,0.319-0.318,0.158-0.639l-1.275-7.812c-0.158-1.274,0.161-2.551,1.117-3.347l5.739-5.58
							C30.122,12.248,30.122,11.929,30.122,11.769"/>
					</g>
				</g>
			</g>
		</g>
	</g>
</g>
</svg>
