<?xml version="1.0" encoding="utf-8"?>
<!-- Generator: Adobe Illustrator 19.2.1, SVG Export Plug-In . SVG Version: 6.00 Build 0)  -->
<svg version="1.1" id="Layer_1" xmlns="http://www.w3.org/2000/svg" xmlns:xlink="http://www.w3.org/1999/xlink" x="0px" y="0px"
	 viewBox="0 0 1074 256" enable-background="new 0 0 1074 256" xml:space="preserve">
<path fill="#FFFFFF" d="M542.09766,68.34766h13.3125L589.97168,160h-13.05615l-8.83252-24.83301h-38.52979L520.59277,160h-13.05664
	L542.09766,68.34766z M563.98682,124.1582l-14.97705-41.3457h-0.51172l-14.97656,41.3457H563.98682z"/>
<path fill="#FFFFFF" d="M591.24805,128.63867c0-19.20117,13.95264-33.40967,29.82568-33.40967
	c9.98438,0,17.79248,4.99219,21.37695,10.75244h0.51221l-0.51221-8.70435V68.34766h11.77637V160h-11.26416v-8.70435h-0.51221
	c-3.58447,5.76025-11.39258,10.75244-21.37695,10.75244C605.20068,162.0481,591.24805,147.83936,591.24805,128.63867z
	 M642.96289,128.63867c0-14.33691-9.47266-22.65723-19.96924-22.65723s-19.96875,8.57642-19.96875,22.65723
	c0,14.08057,9.47217,22.65698,19.96875,22.65698S642.96289,142.9751,642.96289,128.63867z"/>
<path fill="#FFFFFF" d="M750.99512,160H738.9624l-19.71289-60.41895h-0.51221L699.02441,160h-12.03223l-25.47363-91.65234h12.28906
	l19.32861,72.06738h0.51221l19.84082-59.77881h11.0083l19.84131,59.77881h0.51172l18.30518-72.06738h12.28857L750.99512,160z"/>
<path fill="#FFFFFF" d="M837.26514,128.63867c0,19.07275-13.44043,33.40942-32.25732,33.40942S772.75,147.71143,772.75,128.63867
	c0-19.073,13.44092-33.40967,32.25781-33.40967S837.26514,109.56567,837.26514,128.63867z M825.48877,128.63867
	c0-14.33691-9.98438-22.65723-20.48096-22.65723s-20.48096,8.32031-20.48096,22.65723
	c0,14.33643,9.98438,22.65698,20.48096,22.65698S825.48877,142.9751,825.48877,128.63867z"/>
<path fill="#FFFFFF" d="M846.73438,160V97.2771h11.26465v10.24048h0.51172c2.56006-7.16846,11.64844-11.77661,18.17676-11.77661
	c3.84033,0,6.40039,0.51196,8.83252,1.53613l-4.47998,11.00854c-1.66406-0.64014-3.7124-0.896-6.27246-0.896
	c-8.06445,0-16.25684,6.78418-16.25684,18.30469V160H846.73438z"/>
<path fill="#FFFFFF" d="M887.05273,128.63867c0-19.20117,13.95264-33.40967,29.82568-33.40967
	c9.98438,0,17.79248,4.99219,21.37744,10.75244h0.51172l-0.51172-8.70435V68.34766h11.77539V160h-11.26367v-8.70435h-0.51172
	c-3.58496,5.76025-11.39307,10.75244-21.37744,10.75244C901.00537,162.0481,887.05273,147.83936,887.05273,128.63867z
	 M938.76758,128.63867c0-14.33691-9.47266-22.65723-19.96924-22.65723s-19.96875,8.57642-19.96875,22.65723
	c0,14.08057,9.47217,22.65698,19.96875,22.65698S938.76758,142.9751,938.76758,128.63867z"/>
<path fill="#FFFFFF" d="M957.70703,144.1272l10.49707-4.35229c3.32812,7.93652,9.47168,11.77686,17.02441,11.77686
	c7.29688,0,12.54492-3.58447,12.54492-8.83252c0-3.2002-1.91992-6.65625-8.57617-8.32031l-12.67285-3.07227
	c-5.76074-1.4082-16.76855-6.40039-16.76855-17.40869c0-11.39258,11.77637-18.68896,24.83301-18.68896
	c10.87988,0,20.35254,4.99219,24.19238,14.59277l-10.24023,4.22412c-2.43164-5.88818-8.19141-8.32031-14.33594-8.32031
	c-6.65625,0-12.41699,2.94385-12.41699,8.06421c0,3.96826,3.32812,6.14429,8.32031,7.29639l12.41699,2.94409
	c12.41602,2.94434,17.28027,10.62451,17.28027,18.30493c0,11.13647-9.98438,19.71289-24.70508,19.71289
	C969.99609,162.0481,961.41992,153.08765,957.70703,144.1272z"/>
<g id="logo_x5F_color">
	<path fill="#FFFFFF" d="M64.72334,109.56544c0-28.9292,24.32129-52.48243,53.25098-52.48243
		c16.00097,0,27.39355,6.27246,35.96972,14.46484l-10.1123,10.11231c-6.14453-5.76025-14.46483-10.24024-25.85742-10.24024
		c-21.12109,0-37.63379,17.0249-37.63379,38.14552c0,21.12108,16.5127,38.146,37.63379,38.146
		c13.69629,0,21.50488-5.50438,26.49707-10.49658c4.09668-4.09619,6.78418-9.98438,7.80859-18.04883h-34.30567v-14.33643h48.25782
		c0.5127,2.56006,0.76854,5.63232,0.76854,8.96045c0,10.75243-2.94434,24.06493-12.41699,33.5376
		c-9.21582,9.6001-20.99315,14.7202-36.60937,14.7202C89.04462,162.04785,64.72334,138.49512,64.72334,109.56544z"/>
	<path fill="#FFFFFF" d="M206.00117,94.46095c-18.68945,0-33.92188,14.2085-33.92188,33.79346
		c0,19.45703,15.23242,33.79346,33.92188,33.79346c18.68848,0,33.9209-14.33643,33.9209-33.79346
		C239.92207,108.66944,224.68965,94.46095,206.00117,94.46095z M206.00117,148.73535
		c-10.24121,0-19.07324-8.44824-19.07324-20.48096c0-12.16064,8.83203-20.48096,19.07324-20.48096
		c10.24023,0,19.07227,8.3203,19.07227,20.48096C225.07344,140.28711,216.24141,148.73535,206.00117,148.73535z"/>
	<path fill="#FFFFFF" d="M280.00067,94.46095c-18.68945,0-33.92186,14.2085-33.92186,33.79346
		c0,19.45703,15.23241,33.79346,33.92186,33.79346c18.68848,0,33.92188-14.33643,33.92188-33.79346
		C313.92255,108.66944,298.68915,94.46095,280.00067,94.46095z M280.00067,148.73535
		c-10.24023,0-19.07324-8.44824-19.07324-20.48096c0-12.16064,8.83301-20.48096,19.07324-20.48096
		s19.07227,8.3203,19.07227,20.48096C299.07294,140.28711,290.24091,148.73535,280.00067,148.73535z"/>
	<path fill="#FFFFFF" d="M370.83078,96.5088v5.50439h-0.51172c-3.32812-3.96826-9.72852-7.55225-17.79297-7.55225
		c-16.89648,0-32.38574,14.84863-32.38574,33.92139c0,18.94531,15.48926,33.66554,32.38574,33.66554
		c8.06445,0,14.46484-3.58397,17.79297-7.68019h0.51172v4.86426c0,12.92871-6.91211,19.84082-18.04883,19.84082
		c-9.08789,0-14.7207-6.52832-17.02441-12.03223l-12.92871,5.37598c3.71191,8.96045,13.56836,19.96925,29.95312,19.96925
		c17.40918,0,32.12988-10.24074,32.12988-35.20168V96.50879C384.91183,96.50879,370.83078,96.50879,370.83078,96.5088z
		 M353.80637,148.73535c-10.24023,0-18.81738-8.57617-18.81738-20.35303c0-11.9043,8.57715-20.60889,18.81738-20.60889
		c10.1123,0,18.04883,8.70459,18.04883,20.60889C371.85519,140.15918,363.91867,148.73535,353.80637,148.73535z"/>
	<rect x="395.15207" y="60.66749" fill="#FFFFFF" width="14.84863" height="99.33252"/>
	<path fill="#FFFFFF" d="M450.70676,148.73535c-7.55273,0-12.92871-3.45604-16.38477-10.24022l45.18652-18.68896l-1.53613-3.84032
		c-2.81641-7.55225-11.39258-21.50488-28.92969-21.50488c-17.40918,0-31.87305,13.69678-31.87305,33.79346
		c0,18.94482,14.33594,33.79346,33.53711,33.79346c15.48828,0,24.44922-9.47217,28.16113-14.97656l-11.52051-7.68018
		C463.50754,145.02345,458.25949,148.73535,450.70676,148.73535z M449.55441,107.51759c5.88867,0,10.88086,2.94434,12.54492,7.16846
		l-30.20898,12.54443C431.50558,114.17384,442.00266,107.51759,449.55441,107.51759z"/>
</g>
</svg>
