<?xml version="1.0" encoding="utf-8"?>
<!-- Generator: Adobe Illustrator 16.0.0, SVG Export Plug-In . SVG Version: 6.00 Build 0)  -->
<!DOCTYPE svg PUBLIC "-//W3C//DTD SVG 1.1//EN" "http://www.w3.org/Graphics/SVG/1.1/DTD/svg11.dtd">
<svg version="1.1" id="Layer_1" xmlns="http://www.w3.org/2000/svg" xmlns:xlink="http://www.w3.org/1999/xlink" x="0px" y="0px"
	 width="100px" height="85px" viewBox="0 0 100 85" enable-background="new 0 0 100 85" xml:space="preserve">
<g>
	<path fill="#828282" d="M91.132,55.408l-0.838-1.191c0.369-0.116,0.604-0.385,0.604-0.802c0-0.553-0.421-0.856-1.04-0.856H88.97
		v2.916h0.501v-1.206h0.286l0.888,1.256L91.132,55.408z M89.843,53.883h-0.372v-0.871h0.386c0.335,0,0.52,0.152,0.52,0.436
		C90.377,53.733,90.177,53.883,89.843,53.883z"/>
	<path fill="#828282" d="M92.454,54.118c0-1.593-1.055-2.663-2.579-2.663c-1.507,0-2.579,1.088-2.579,2.663
		c0,1.572,1.054,2.645,2.579,2.645C91.381,56.763,92.454,55.69,92.454,54.118z M87.664,54.118c0-1.51,0.99-2.346,2.211-2.346
		c1.222,0,2.228,0.836,2.228,2.346c0,1.492-0.991,2.327-2.228,2.327C88.653,56.445,87.664,55.61,87.664,54.118z"/>
	<path fill="#828282" d="M8.261,66.018H6.2v2.888H5v1.673h1.2v5.196c0,1.241,0.598,2.012,2.124,2.012
		c0.566,0,1.066-0.067,1.633-0.133v-1.709c-0.296,0.064-0.637,0.164-0.949,0.164c-0.514,0-0.746-0.137-0.746-0.604v-4.927h1.695
		v-1.673H8.261V66.018z"/>
	<path fill="#828282" d="M14.715,68.734c-2.339,0-3.749,1.758-3.749,4.525c0,2.765,1.409,4.526,3.657,4.526
		c1.666,0,2.825-0.536,3.626-1.777l-1.502-0.943c-0.511,0.604-0.958,1.043-1.92,1.043c-0.964,0-1.766-0.703-1.802-2.509h5.224V72.74
		C18.249,70.648,16.982,68.719,14.715,68.734z M13.025,72.185c0.036-1.206,0.664-1.909,1.665-1.909c0.998,0,1.632,0.703,1.664,1.909
		H13.025z"/>
	<path fill="#828282" d="M23.328,76.108c-1.221,0-1.769-0.909-1.769-2.849c0-1.943,0.548-2.854,1.696-2.854
		c1.007,0,1.369,0.585,1.705,1.327l1.713-0.666c-0.487-1.463-1.779-2.332-3.417-2.332c-2.339,0-3.747,1.758-3.747,4.525
		c0,2.765,1.408,4.526,3.747,4.526c1.585,0.014,2.634-0.623,3.468-2.177l-1.567-0.885C24.741,75.481,24.227,76.108,23.328,76.108z"
		/>
	<path fill="#828282" d="M32.8,68.734c-1.011,0-1.856,0.57-2.49,1.102v-4.32H28.25v12.105h2.061v-6.294
		c0.353-0.399,1.038-0.922,1.932-0.922c0.695,0,1.063,0.375,1.063,1.552v5.664h2.062v-5.973
		C35.368,69.873,34.533,68.734,32.8,68.734z"/>
	<path fill="#828282" d="M42.054,68.734c-1.018,0-1.896,0.57-2.663,1.102v-0.931h-1.898v8.716h2.068v-6.294
		c0.343-0.399,1.028-0.922,1.923-0.922c0.702,0,1.071,0.375,1.071,1.552v5.664h2.058v-5.973
		C44.612,69.873,43.783,68.734,42.054,68.734z"/>
	<path fill="#828282" d="M49.832,68.734c-2.347,0-3.754,1.758-3.754,4.525c0,2.765,1.408,4.526,3.754,4.526
		c2.351,0,3.763-1.762,3.763-4.526C53.594,70.492,52.183,68.734,49.832,68.734z M49.832,76.108c-1.147,0-1.694-0.909-1.694-2.849
		c0-1.943,0.546-2.854,1.694-2.854c1.154,0,1.697,0.911,1.697,2.854C51.529,75.199,50.985,76.108,49.832,76.108z"/>
	<polygon fill="#828282" points="55.277,77.621 57.334,77.621 57.334,74.579 57.334,65.516 55.277,65.516 	"/>
	<path fill="#828282" d="M62.772,68.734c-2.347,0-3.756,1.758-3.756,4.525c0,2.765,1.409,4.526,3.756,4.526
		c2.347,0,3.76-1.762,3.76-4.526C66.533,70.492,65.119,68.734,62.772,68.734z M62.772,76.108c-1.146,0-1.696-0.909-1.696-2.849
		c0-1.943,0.549-2.854,1.696-2.854c1.151,0,1.701,0.911,1.701,2.854C64.473,75.199,63.923,76.108,62.772,76.108z"/>
	<path fill="#828282" d="M73.013,69.504c-0.527-0.464-1.395-0.77-2.123-0.77c-2.253,0-3.41,1.506-3.41,3.035
		c0,1.06,0.564,1.725,1.276,2.31c-0.382,0.115-1.344,0.754-1.344,1.591c0,0.942,0.881,1.157,1.275,1.407v0.039
		c-0.742,0-1.556,0.518-1.556,1.604c0,1.38,1.528,2.083,3.856,2.083c2.759,0,4.01-1.346,4.01-2.582c0-3.487-5.688-1.578-5.688-2.986
		c0-0.501,0.716-0.532,1.61-0.532c2.159,0,3.263-1.178,3.263-2.812c0-0.677-0.199-1.181-0.47-1.548
		c0.323-0.201,0.853-0.201,1.331-0.201v-1.406C74.061,68.697,73.418,68.969,73.013,69.504z M70.486,77.448
		c1.999,0,2.619,0.603,2.619,1.009c0,0.3-0.456,0.968-1.784,0.968c-1.729,0-2.3-0.306-2.3-0.968
		C69.021,78.084,69.361,77.448,70.486,77.448z M70.87,73.163c-0.879,0-1.499-0.642-1.499-1.445c0-0.803,0.62-1.442,1.499-1.442
		c0.782,0,1.409,0.64,1.409,1.442C72.279,72.521,71.652,73.163,70.87,73.163z"/>
	<polygon fill="#828282" points="76.527,77.621 78.583,77.621 78.583,75.057 78.583,68.905 76.527,68.905 	"/>
	<polygon fill="#828282" points="76.527,67.295 78.583,67.295 78.583,66.221 78.583,65.346 76.527,65.346 	"/>
	<path fill="#828282" d="M84.022,68.734c-2.345,0-3.757,1.758-3.757,4.525c0,2.765,1.412,4.526,3.657,4.526
		c1.667,0,2.828-0.536,3.63-1.777l-1.493-0.943c-0.524,0.604-0.969,1.043-1.935,1.043c-0.965,0-1.766-0.703-1.796-2.509h5.223V72.74
		C87.552,70.648,86.289,68.719,84.022,68.734z M82.329,72.185c0.03-1.206,0.666-1.909,1.661-1.909c0.997,0,1.625,0.703,1.666,1.909
		H82.329z"/>
	<path fill="#828282" d="M90.679,71.132c0-0.519,0.357-0.856,1.158-0.856c0.647,0,1.203,0.471,1.615,0.92l1.3-1.137
		c-0.754-0.893-1.897-1.324-3.048-1.324c-1.493,0-2.857,0.904-2.857,2.529c0,3.039,4.324,2.501,4.324,3.985
		c0,0.589-0.496,0.99-1.229,0.99c-0.886,0-1.532-0.584-2.013-1.255l-1.382,1.04c0.766,1.139,1.896,1.762,3.273,1.762
		c1.812,0,3.181-0.808,3.181-2.612C95,71.98,90.679,72.625,90.679,71.132z"/>
	<path fill="#828282" d="M70.128,50.886c0.06,2.074,0.323,4.269,0.682,5.86h13.931c-0.778-2.444-0.974-4.889-0.974-7.426v-25.83
		c0-6.279-1.185-9.765-4.545-12.833c-3.191-2.915-8.399-4.527-15.446-4.527c-6.467,0-11.994,1.46-16.084,4.265l-0.004-0.001
		c3.37,2.66,5.583,6.354,6.485,10.796h0.002c1.065-2.904,3.979-4.141,7.928-4.141c5.62,0,7.251,3.923,7.299,7.215l0.04,1.568
		C53.901,26.598,39.263,29.488,39.545,43.7c0.197,9.963,9.213,14.03,15.403,14.023C62.147,57.713,66.174,55.796,70.128,50.886z
		 M60.256,48.333c-4.004,0-7.346-1.824-7.346-6.181c0-6.404,9.367-8.68,16.531-9.091v1.895c0,4.16-0.071,6.402-1.953,9.272
		C65.825,46.767,63.19,48.333,60.256,48.333z"/>
	<polygon fill="#828282" points="38.745,43.156 38.745,43.156 38.746,43.154 	"/>
	<path fill="#828282" d="M31.181,57.723c4.097,0,8.708-0.928,12.56-3.151c-2.304-1.877-4.75-5.043-4.98-10.124
		c-0.005-0.137-0.011-0.271-0.013-0.405c-0.01-0.314-0.01-0.584-0.002-0.888c-1.275,1.904-3.518,2.854-6.16,2.854
		c-7.238,0-9.263-5.443-9.263-14.768c0-9.189,2.18-14.167,9.227-14.167c4.377,0,7.543,2.368,7.543,6.862h13.639
		C52.744,12.158,43.412,6.131,32.062,6.131C16.424,6.131,7.24,17.17,7.24,32.417C7.24,47.07,16.131,57.723,31.181,57.723z"/>
</g>
</svg>
