<?xml version="1.0" encoding="UTF-8" standalone="no"?>
<svg width="29px" height="76px" viewBox="0 0 29 76" version="1.1" xmlns="http://www.w3.org/2000/svg" xmlns:xlink="http://www.w3.org/1999/xlink">
    <!-- Generator: Sketch 45.2 (43514) - http://www.bohemiancoding.com/sketch -->
    <title>mão resposta copy</title>
    <desc>Created with Sketch.</desc>
    <defs>
        <path d="M14.3712448,75.8276534 C21.4419679,79.8799386 26.2323562,79.8799386 28.7424098,75.8276534 C31.2524633,71.7753683 31.2524633,64.041661 28.7424098,52.6265316 L28.7424098,33.6721191 L14.3712448,33.6721191 L7.98400271e-05,33.6721191 L7.98400271e-05,75.8276534 L14.3712448,75.8276534 Z" id="path-1"></path>
    </defs>
    <g id="Page-1" stroke="none" stroke-width="1" fill="none" fill-rule="evenodd">
        <g id="desktop-v2" transform="translate(-361.000000, -1546.000000)">
            <g id="quiz-" transform="translate(160.000000, 1355.000000)">
                <g id="pergunta1" transform="translate(0.000000, 88.000000)">
                    <g id="mão-resposta-copy" transform="translate(201.000000, 103.000000)">
                        <mask id="mask-2" fill="white">
                            <use xlink:href="#path-1"></use>
                        </mask>
                        <g id="Clip-2"></g>
                        <path d="M26.8263289,61.4564486 C26.8263289,64.38538 25.6610637,67.0079253 23.7574779,68.9117107 C23.5760414,69.0909516 23.4708522,69.3450424 23.4728482,69.6003309 L23.4728482,73.9114928 L9.10164333,73.9114928 L9.10164333,71.9955317 C9.10363933,71.7402433 8.99884929,71.4861524 8.81721323,71.3069115 C7.63358483,70.1228839 5.87510823,68.2907549 4.43120134,66.2919598 C2.98689525,64.2929651 1.91604089,62.1289012 1.91604089,60.4983682 L1.91604089,56.6660469 C1.91604089,55.3941953 2.70605796,54.3435006 3.83240114,53.956476 L3.83240114,59.5402879 C3.82521554,60.0466733 4.28409609,60.5133383 4.79048147,60.5133383 C5.29666724,60.5133383 5.75574739,60.0466733 5.74836219,59.5402879 L5.74836219,37.5044404 C5.74836219,36.4264005 6.58648288,35.5882798 7.66472244,35.5882798 C8.74256281,35.5882798 9.58088309,36.4264005 9.58088309,37.5044404 L9.58088309,49.4804445 C9.58088309,50.0095843 10.009624,50.4385248 10.5387638,50.4385248 C11.0681032,50.4385248 11.4968441,50.0095843 11.4968441,49.4804445 C11.4968441,48.4024045 12.3349648,47.5642839 13.4132044,47.5642839 C14.4912444,47.5642839 15.3291654,48.4024045 15.3291654,49.4804445 L15.3291654,52.3546855 C15.3291654,52.8838253 15.7583056,53.3127658 16.2872458,53.3127658 C16.8165851,53.3127658 17.2455257,52.8838253 17.2455257,52.3546855 C17.2455257,51.2766455 18.0834468,50.4385248 19.1616863,50.4385248 C20.2397263,50.4385248 21.0776474,51.2766455 21.0776474,52.3546855 L21.0776474,55.2291261 C21.0776474,55.7580662 21.5067875,56.1872064 22.0359273,56.1872064 C22.5648675,56.1872064 22.9940076,55.7580662 22.9940076,55.2291261 C22.9940076,54.1508865 23.8319287,53.3127658 24.9099687,53.3127658 C25.9882083,53.3127658 26.8263289,54.1508865 26.8263289,55.2291261 L26.8263289,61.4564486 Z M24.9099687,51.3968048 C24.1718476,51.3968048 23.5207522,51.6594784 22.9341276,52.0253454 C22.7590784,50.0776479 21.152697,48.5223642 19.1616863,48.5223642 C18.4233657,48.5223642 17.7724699,48.7852375 17.1854461,49.151304 C17.0103968,47.2034069 15.4042151,45.6481232 13.4132044,45.6481232 C12.7014306,45.6481232 12.0696963,45.8900385 11.4968441,46.232153 L11.4968441,37.5044404 C11.4968441,35.3980609 9.77110196,33.6721191 7.66472244,33.6721191 C5.55794373,33.6721191 3.83240114,35.3980609 3.83240114,37.5044404 L3.83240114,52.070455 C1.66853681,52.5301339 7.98400271e-05,54.369249 7.98400271e-05,56.6660469 L7.98400271e-05,60.4983682 C7.98400271e-05,62.8897767 1.32422669,65.2692091 2.87432082,67.4147102 C4.32241931,69.4190941 5.98169467,71.1554151 7.18568228,72.3697819 L7.18568228,74.8695731 C7.18568228,75.3713677 7.64216763,75.8276534 8.143563,75.8276534 L24.4311281,75.8276534 C24.9327231,75.8276534 25.3890089,75.3713677 25.3892085,74.8695731 L25.3892085,69.9294714 C27.4578636,67.7053279 28.7424896,64.7364765 28.7424896,61.4564486 L28.7424896,55.2291261 C28.7424896,53.1225469 27.0165478,51.3968048 24.9099687,51.3968048 L24.9099687,51.3968048 Z" id="Fill-1" fill="#5AE091" mask="url(#mask-2)"></path>
                        <path d="M7.97497559,0.454332533 L7.97497559,32.1359829" id="Path-2" stroke="#5AE091"></path>
                    </g>
                </g>
            </g>
        </g>
    </g>
</svg>