<?xml version="1.0" encoding="UTF-8" standalone="no"?>
<svg width="54px" height="890px" viewBox="0 0 54 890" version="1.1" xmlns="http://www.w3.org/2000/svg" xmlns:xlink="http://www.w3.org/1999/xlink">
    <!-- Generator: Sketch 45.2 (43514) - http://www.bohemiancoding.com/sketch -->
    <title>DETALHE1</title>
    <desc>Created with Sketch.</desc>
    <defs></defs>
    <g id="Page-1" stroke="none" stroke-width="1" fill="none" fill-rule="evenodd" stroke-linecap="round" stroke-linejoin="round">
        <g id="desktop" transform="translate(-34.000000, -4171.000000)" stroke="#5AE091" stroke-width="1.965">
            <g id="Sindrome-impostor" transform="translate(-4.000000, 4159.000000)">
                <g id="DETALHE1" transform="translate(38.000000, 12.000000)">
                    <path d="M5.3096,0.9824 C7.7006,0.9824 9.6376,2.9194 9.6376,5.3104 C9.6376,7.7004 7.7006,9.6374 5.3096,9.6374 C2.9196,9.6374 0.9826,7.7004 0.9826,5.3104 C0.9826,2.9194 2.9196,0.9824 5.3096,0.9824 Z" id="Stroke-1"></path>
                    <path d="M32.9629,57.2177 C35.3539,57.2177 37.2909,59.1547 37.2909,61.5457 C37.2909,63.9367 35.3539,65.8737 32.9629,65.8737 C30.5719,65.8737 28.6349,63.9367 28.6349,61.5457 C28.6349,59.1547 30.5719,57.2177 32.9629,57.2177 Z" id="Stroke-3"></path>
                    <path d="M32.1582,79.8593 C34.5482,79.8593 36.4852,81.7973 36.4852,84.1873 C36.4852,86.5783 34.5482,88.5153 32.1582,88.5153 C29.7672,88.5153 27.8302,86.5783 27.8302,84.1873 C27.8302,81.7973 29.7672,79.8593 32.1582,79.8593 Z" id="Stroke-5"></path>
                    <path d="M29.6533,129.2333 C32.0443,129.2333 33.9813,131.1703 33.9813,133.5613 C33.9813,135.9523 32.0443,137.8893 29.6533,137.8893 C27.2623,137.8893 25.3253,135.9523 25.3253,133.5613 C25.3253,131.1703 27.2623,129.2333 29.6533,129.2333 Z" id="Stroke-7"></path>
                    <path d="M29.6543,112.79 C32.0443,112.79 33.9823,114.727 33.9823,117.118 C33.9823,119.509 32.0443,121.446 29.6543,121.446 C27.2633,121.446 25.3263,119.509 25.3263,117.118 C25.3263,114.727 27.2633,112.79 29.6543,112.79 Z" id="Stroke-9"></path>
                    <polyline id="Stroke-11" points="52.9951 889.0566 52.9951 204.6996 37.7671 189.4716 37.7671 141.8196 41.7691 137.8176 41.7691 129.2336 32.7141 120.1786"></polyline>
                    <polyline id="Stroke-13" points="44.8799 889.0566 44.8799 207.9806 29.6529 192.7526 29.6529 137.8896"></polyline>
                    <polyline id="Stroke-15" points="36.7656 889.0566 36.7656 211.2616 21.5386 196.0346 21.5386 84.1876 27.5926 84.1876"></polyline>
                    <path d="M28.6514,889.0566 L28.6514,214.5426 L13.4244,199.3156 L13.4244,80.9106 C14.1694,79.2726 29.4794,64.8546 29.4794,64.8546" id="Stroke-17"></path>
                    <polyline id="Stroke-19" points="20.5371 889.0566 20.5371 253.3216 5.3091 238.0936 5.3091 9.6376"></polyline>
                </g>
            </g>
        </g>
    </g>
</svg>