<?xml version="1.0" encoding="utf-8"?>
<!-- Generator: Adobe Illustrator 16.0.0, SVG Export Plug-In . SVG Version: 6.00 Build 0)  -->
<!DOCTYPE svg PUBLIC "-//W3C//DTD SVG 1.1//EN" "http://www.w3.org/Graphics/SVG/1.1/DTD/svg11.dtd">
<svg version="1.1" id="Layer_1" xmlns="http://www.w3.org/2000/svg" xmlns:xlink="http://www.w3.org/1999/xlink" x="0px" y="0px"
	 width="355px" height="255px" viewBox="0 0 355 255" enable-background="new 0 0 355 255" xml:space="preserve">
<g id="XMLID_1_">
	
		<circle id="XMLID_717_" fill="none" stroke="#E4EFE9" stroke-width="1.2519" stroke-linecap="round" stroke-linejoin="round" stroke-miterlimit="10" cx="349.212" cy="30.806" r="3.554"/>
	
		<circle id="XMLID_716_" fill="none" stroke="#E4EFE9" stroke-width="1.2519" stroke-linecap="round" stroke-linejoin="round" stroke-miterlimit="10" cx="294.603" cy="87.099" r="3.554"/>
	
		<polyline id="XMLID_713_" fill="none" stroke="#E4EFE9" stroke-width="1.2519" stroke-linecap="round" stroke-linejoin="round" stroke-miterlimit="10" points="
		349.211,34.358 349.211,50.021 355.002,55.812 	"/>
	
		<polyline id="XMLID_712_" fill="none" stroke="#E4EFE9" stroke-width="1.2519" stroke-linecap="round" stroke-linejoin="round" stroke-miterlimit="10" points="
		257.049,109.152 257.049,95.695 270.508,95.695 	"/>
	
		<polyline id="XMLID_711_" fill="none" stroke="#E4EFE9" stroke-width="1.2519" stroke-linecap="round" stroke-linejoin="round" stroke-miterlimit="10" points="
		270.508,95.695 270.508,82.237 283.965,82.237 	"/>
	
		<polyline id="XMLID_710_" fill="none" stroke="#E4EFE9" stroke-width="1.2519" stroke-linecap="round" stroke-linejoin="round" stroke-miterlimit="10" points="
		283.965,82.237 283.965,68.779 297.424,68.779 	"/>
	
		<polyline id="XMLID_709_" fill="none" stroke="#E4EFE9" stroke-width="1.2519" stroke-linecap="round" stroke-linejoin="round" stroke-miterlimit="10" points="
		297.424,68.779 297.424,55.321 310.881,55.321 	"/>
	
		<polyline id="XMLID_708_" fill="none" stroke="#E4EFE9" stroke-width="1.2519" stroke-linecap="round" stroke-linejoin="round" stroke-miterlimit="10" points="
		310.881,55.321 310.881,41.864 324.34,41.864 	"/>
	
		<polyline id="XMLID_707_" fill="none" stroke="#E4EFE9" stroke-width="1.2519" stroke-linecap="round" stroke-linejoin="round" stroke-miterlimit="10" points="
		324.34,41.864 324.34,28.406 337.797,28.406 	"/>
	
		<polyline id="XMLID_706_" fill="none" stroke="#E4EFE9" stroke-width="1.2519" stroke-linecap="round" stroke-linejoin="round" stroke-miterlimit="10" points="
		337.797,28.406 337.797,14.948 351.254,14.948 	"/>
	
		<polyline id="XMLID_705_" fill="none" stroke="#E4EFE9" stroke-width="1.2519" stroke-linecap="round" stroke-linejoin="round" stroke-miterlimit="10" points="
		351.254,14.948 351.254,1.491 354.998,1.491 	"/>
	
		<polyline id="XMLID_671_" fill="none" stroke="#E4EFE9" stroke-width="1.2519" stroke-linecap="round" stroke-linejoin="round" stroke-miterlimit="10" points="
		349.211,125.675 349.211,72.936 335.68,59.404 319.783,59.404 319.783,78.257 332.168,90.641 332.168,127.846 	"/>
	
		<polyline id="XMLID_670_" fill="none" stroke="#E4EFE9" stroke-width="1.2519" stroke-linecap="round" stroke-linejoin="round" stroke-miterlimit="10" points="
		314.572,124.047 314.572,103.751 294.602,103.751 294.602,90.652 	"/>
	
		<circle id="XMLID_668_" fill="none" stroke="#DAEDE4" stroke-width="2.5038" stroke-linecap="round" stroke-linejoin="round" stroke-miterlimit="10" cx="139.36" cy="17.154" r="4.905"/>
	
		<circle id="XMLID_667_" fill="none" stroke="#DAEDE4" stroke-width="2.5038" stroke-linecap="round" stroke-linejoin="round" stroke-miterlimit="10" cx="211.01" cy="119.14" r="4.906"/>
	
		<polyline id="XMLID_666_" fill="none" stroke="#DAEDE4" stroke-width="2.5038" stroke-linecap="round" stroke-linejoin="round" stroke-miterlimit="10" points="
		291.291,152.445 313.408,152.445 313.408,174.562 	"/>
	
		<polyline id="XMLID_652_" fill="none" stroke="#DAEDE4" stroke-width="2.5038" stroke-linecap="round" stroke-linejoin="round" stroke-miterlimit="10" points="
		269.176,130.33 291.291,130.33 291.291,152.445 	"/>
	
		<polyline id="XMLID_651_" fill="none" stroke="#DAEDE4" stroke-width="2.5038" stroke-linecap="round" stroke-linejoin="round" stroke-miterlimit="10" points="
		247.059,108.213 269.176,108.213 269.176,130.33 	"/>
	
		<polyline id="XMLID_650_" fill="none" stroke="#DAEDE4" stroke-width="2.5038" stroke-linecap="round" stroke-linejoin="round" stroke-miterlimit="10" points="
		224.941,86.097 247.059,86.097 247.059,108.213 	"/>
	
		<polyline id="XMLID_649_" fill="none" stroke="#DAEDE4" stroke-width="2.5038" stroke-linecap="round" stroke-linejoin="round" stroke-miterlimit="10" points="
		202.824,63.98 224.941,63.98 224.941,86.097 	"/>
	
		<polyline id="XMLID_648_" fill="none" stroke="#DAEDE4" stroke-width="2.5038" stroke-linecap="round" stroke-linejoin="round" stroke-miterlimit="10" points="
		180.709,41.864 202.824,41.864 202.824,63.98 	"/>
	
		<polyline id="XMLID_647_" fill="none" stroke="#DAEDE4" stroke-width="2.5038" stroke-linecap="round" stroke-linejoin="round" stroke-miterlimit="10" points="
		158.592,19.747 180.709,19.747 180.709,41.864 	"/>
	
		<line id="XMLID_646_" fill="none" stroke="#DAEDE4" stroke-width="2.5038" stroke-linecap="round" stroke-linejoin="round" stroke-miterlimit="10" x1="158.592" y1="-2.369" x2="158.592" y2="19.747"/>
	
		<polyline id="XMLID_641_" fill="none" stroke="#DAEDE4" stroke-width="2.5038" stroke-linecap="round" stroke-linejoin="round" stroke-miterlimit="10" points="
		143.205,20.999 173.996,51.789 173.996,154.231 270.994,154.231 253.547,136.785 191.461,136.785 191.461,73.523 237.078,119.14 	
		"/>
	
		<line id="XMLID_640_" fill="none" stroke="#DAEDE4" stroke-width="2.5038" stroke-linecap="round" stroke-linejoin="round" stroke-miterlimit="10" x1="237.078" y1="119.14" x2="215.916" y2="119.14"/>
	
		<polyline id="XMLID_2_" fill="none" stroke="#DAEDE4" stroke-width="2.5038" stroke-linecap="round" stroke-linejoin="round" stroke-miterlimit="10" points="
		56.418,-0.701 121.15,64.031 121.15,143.846 75.361,189.635 0,189.635 	"/>
	<path id="XMLID_637_" fill="#F6F6F4" d="M355,232.849H230c-4.59,0-8.311-3.722-8.311-8.312v-24.113
		c0-4.591,3.721-8.311,8.311-8.311h125"/>
	<path id="XMLID_635_" fill="#F0F0F0" d="M316.027,246.87H41.593c-4.59,0-8.312-3.721-8.312-8.312v-5.002
		c0-4.589,3.722-8.311,8.312-8.311h274.435c4.59,0,8.312,3.722,8.312,8.311v5.002C324.34,243.149,320.617,246.87,316.027,246.87z"/>
	<path id="XMLID_633_" fill="#F0F0F0" d="M355,202.925h-48.213c-4.59,0-8.311-3.721-8.311-8.311v-66.349
		c0-4.59,3.721-8.311,8.311-8.311H355"/>
	
		<circle id="XMLID_632_" fill="none" stroke="#94EAC4" stroke-width="4.0212" stroke-linecap="round" stroke-linejoin="round" stroke-miterlimit="10" cx="17.561" cy="236.058" r="8.857"/>
	
		<circle id="XMLID_631_" fill="none" stroke="#94EAC4" stroke-width="4.0212" stroke-linecap="round" stroke-linejoin="round" stroke-miterlimit="10" cx="332.008" cy="151.622" r="8.857"/>
	
		<line id="XMLID_626_" fill="none" stroke="#94EAC4" stroke-width="4.0212" stroke-linecap="round" stroke-linejoin="round" stroke-miterlimit="10" x1="235.277" y1="236.058" x2="26.418" y2="236.058"/>
	
		<polyline id="XMLID_625_" fill="none" stroke="#94EAC4" stroke-width="4.021" stroke-linecap="round" stroke-linejoin="round" stroke-miterlimit="10" points="
		235.277,236.058 235.277,200.802 270.535,200.802 	"/>
	
		<polyline id="XMLID_624_" fill="none" stroke="#94EAC4" stroke-width="4.0212" stroke-linecap="round" stroke-linejoin="round" stroke-miterlimit="10" points="
		270.994,200.342 270.994,165.086 306.25,165.086 	"/>
	
		<polyline id="XMLID_623_" fill="none" stroke="#94EAC4" stroke-width="4.0212" stroke-linecap="round" stroke-linejoin="round" stroke-miterlimit="10" points="
		306.709,164.627 306.709,129.369 341.967,129.369 	"/>
	
		<polyline id="XMLID_622_" fill="none" stroke="#94EAC4" stroke-width="4.0212" stroke-linecap="round" stroke-linejoin="round" stroke-miterlimit="10" points="
		342.426,128.91 342.426,93.653 355,93.653 	"/>
	
		<polyline id="XMLID_619_" fill="none" stroke="#94EAC4" stroke-width="4.0212" stroke-linecap="round" stroke-linejoin="round" stroke-miterlimit="10" points="
		332.008,160.479 332.008,218.43 355,218.43 	"/>
</g>
<g id="XMLID_900_">
	
		<polyline id="XMLID_615_" fill="none" stroke="#2727CC" stroke-width="4.7511" stroke-linecap="round" stroke-linejoin="round" stroke-miterlimit="10" points="
		145.984,184.735 133.443,188.615 128.046,171.169 140.41,167.343 	"/>
	<path id="XMLID_612_" fill="#2727CC" d="M138.039,163.532l7.963,25.742l82.193-25.433l-7.965-25.741L138.039,163.532z
		 M222.645,160.914l-73.713,22.809l-5.342-17.263l73.713-22.807L222.645,160.914z"/>
	
		<rect id="XMLID_611_" x="174.082" y="125.108" transform="matrix(0.2956 0.9553 -0.9553 0.2956 285.358 -59.6335)" fill="#DC4B4B" width="18.07" height="77.16"/>
</g>
<g id="XMLID_604_">
	<path id="XMLID_608_" fill="#E3DAFC" d="M215.898,155.975l8.268-0.838c0.355-5.723-1.576-11.57-5.871-16.024
		c-8.123-8.424-21.537-8.667-29.961-0.544c-7.361,7.098-8.475,18.237-3.217,26.555l-0.061-0.947l9.914-3.933l6.803,8.215
		l-3.758,5.928c6.818,1.658,14.309-0.082,19.734-5.313c0.061-0.057,0.111-0.124,0.17-0.183l-4.277-2.491L215.898,155.975z
		 M191.586,143.158l5.811-8.941l10.301,2.762l0.557,10.649l-9.957,3.821L191.586,143.158z"/>
	<polygon id="XMLID_607_" fill="#333333" points="207.697,136.979 197.396,134.217 191.586,143.158 198.297,151.449 
		208.254,147.628 	"/>
	<path id="XMLID_606_" fill="#333333" d="M194.971,160.243l-9.914,3.933l0.061,0.947c0.758,1.201,1.648,2.343,2.672,3.406
		c2.893,2.996,6.459,4.939,10.227,5.856l3.758-5.928L194.971,160.243z"/>
	<path id="XMLID_605_" fill="#333333" d="M215.898,155.975l-2.256,10.424l4.277,2.491c3.855-3.805,5.934-8.729,6.246-13.753
		L215.898,155.975z"/>
</g>
<g id="XMLID_584_">
	<path id="XMLID_597_" fill="#45C1C1" d="M177.045,152.625l-33.996,23.879c-1.811,1.272-2.246,3.772-0.975,5.584l0,0
		c1.271,1.812,3.771,2.248,5.584,0.976l33.994-23.88c1.812-1.272,2.25-3.771,0.977-5.583l0,0
		C181.355,151.789,178.857,151.352,177.045,152.625z"/>
	<path id="XMLID_596_" fill="#45C1C1" d="M162.66,183.294l-2.016,11.527c-0.381,2.18,1.078,4.257,3.26,4.639l0,0
		c2.18,0.38,4.256-1.078,4.637-3.258l2.016-11.526c0.381-2.182-1.078-4.258-3.258-4.639l0,0
		C165.117,179.655,163.041,181.114,162.66,183.294z"/>
	<path id="XMLID_595_" fill="#45C1C1" d="M176.781,173.375l11.525,2.016c2.182,0.38,3.641,2.457,3.26,4.638l0,0
		c-0.383,2.182-2.459,3.639-4.639,3.259l-11.527-2.016c-2.18-0.381-3.639-2.457-3.258-4.639l0,0
		C172.525,174.453,174.602,172.995,176.781,173.375z"/>
	<path id="XMLID_594_" fill="#45C1C1" d="M145.422,166.772l-4.842-0.846c-3.014-0.527-5.029-3.397-4.502-6.411l0.129-0.741
		c0.527-3.012,3.398-5.028,6.412-4.502l4.84,0.847c3.014,0.526,5.029,3.396,4.502,6.41l-0.129,0.74
		C151.305,165.282,148.436,167.299,145.422,166.772z"/>
	<path id="XMLID_593_" fill="#94EAC4" d="M144.764,163.84l-2.57-0.449c-1.598-0.28-2.67-1.803-2.389-3.403l0.068-0.393
		c0.279-1.6,1.803-2.67,3.402-2.389l2.57,0.448c1.6,0.279,2.67,1.803,2.391,3.402l-0.068,0.394
		C147.887,163.05,146.363,164.12,144.764,163.84z"/>
	<path id="XMLID_592_" fill="#45C1C1" d="M166.873,151.704l0.846-4.841c0.527-3.014-1.488-5.884-4.502-6.411l-0.74-0.129
		c-3.014-0.527-5.883,1.489-6.41,4.503l-0.846,4.841c-0.527,3.014,1.488,5.884,4.502,6.411l0.74,0.129
		C163.477,156.735,166.346,154.718,166.873,151.704z"/>
	<path id="XMLID_591_" fill="#94EAC4" d="M164.338,150.091l0.449-2.57c0.279-1.599-0.791-3.123-2.391-3.402l-0.393-0.068
		c-1.6-0.281-3.123,0.79-3.402,2.391l-0.449,2.569c-0.279,1.599,0.791,3.122,2.391,3.402l0.393,0.068
		C162.535,152.76,164.059,151.69,164.338,150.091z"/>
	<path id="XMLID_590_" fill="#45C1C1" d="M166.266,166.244l-6.748,4.739c-4.201,2.952-10,1.938-12.951-2.263l-0.725-1.031
		c-2.949-4.201-1.938-10,2.266-12.951l6.748-4.741c4.201-2.95,10-1.937,12.951,2.265l0.725,1.03
		C171.482,157.494,170.469,163.293,166.266,166.244z"/>
	<circle id="XMLID_589_" fill="#333333" cx="155.152" cy="157.596" r="2.838"/>
	<circle id="XMLID_588_" fill="#333333" cx="150.131" cy="160.367" r="1.42"/>
	<circle id="XMLID_587_" fill="#333333" cx="159.462" cy="153.812" r="1.419"/>
	<circle id="XMLID_586_" fill="#45C1C1" cx="166.722" cy="174.066" r="15.609"/>
	<circle id="XMLID_585_" fill="#94EAC4" cx="166.723" cy="174.066" r="9.931"/>
</g>
<g id="XMLID_898_">
	<g id="XMLID_601_">
		<circle id="XMLID_603_" fill="#333333" cx="185.659" cy="221.924" r="8.197"/>
		<path id="XMLID_602_" fill="#F6F6F4" d="M190.076,220.559c-0.754-2.44-3.344-3.807-5.785-3.052
			c-2.439,0.756-3.805,3.345-3.051,5.784c0.756,2.44,3.346,3.807,5.785,3.053C189.465,225.586,190.832,222.998,190.076,220.559z"/>
	</g>
	<g id="XMLID_598_">
		<circle id="XMLID_600_" fill="#333333" cx="214.397" cy="213.033" r="8.197"/>
		<circle id="XMLID_599_" fill="#F6F6F4" cx="214.397" cy="213.033" r="4.624"/>
	</g>
	
		<rect id="XMLID_583_" x="184.225" y="131.419" transform="matrix(-0.2954 -0.9554 0.9554 -0.2954 74.8541 404.0847)" fill="#2727CC" width="4.437" height="86.038"/>
	<polygon id="XMLID_582_" fill="#294CCC" points="226.158,203.646 170.164,220.972 146.002,189.273 228.195,163.842 	"/>
</g>
<g id="XMLID_561_">
	<circle id="XMLID_239_" fill="#DC4B4B" cx="102.993" cy="95.316" r="16.901"/>
	<circle id="XMLID_654_" fill="#DC4B4B" cx="65.048" cy="63.98" r="16.901"/>
	<circle id="XMLID_672_" fill="#DC4B4B" cx="38.069" cy="75.943" r="16.901"/>
	<circle id="XMLID_673_" fill="#DC4B4B" cx="27.814" cy="100.897" r="16.902"/>
	<circle id="XMLID_300_" fill="#DC4B4B" cx="90.157" cy="70.714" r="16.901"/>
	
		<polyline id="XMLID_580_" fill="none" stroke="#E3DAFC" stroke-width="8.181" stroke-linecap="round" stroke-linejoin="round" stroke-miterlimit="10" points="
		87.836,183.653 76.008,226.449 87.891,226.449 	"/>
	
		<polyline id="XMLID_579_" fill="none" stroke="#E3DAFC" stroke-width="8.181" stroke-linecap="round" stroke-linejoin="round" stroke-miterlimit="10" points="
		66.799,183.653 54.971,226.449 66.854,226.449 	"/>
	
		<path id="XMLID_578_" fill="none" stroke="#5AE091" stroke-width="8.181" stroke-linecap="round" stroke-linejoin="round" stroke-miterlimit="10" d="
		M93.086,152.042c16.24,15.896,36.471,20.799,36.471,20.799"/>
	<circle id="XMLID_575_" fill="#E3DAFC" cx="129.557" cy="172.841" r="4.09"/>
	
		<path id="XMLID_570_" fill="none" stroke="#5AE091" stroke-width="8.181" stroke-linecap="round" stroke-linejoin="round" stroke-miterlimit="10" d="
		M84.545,169.513c16.239,15.898,47.592,17.501,47.592,17.501"/>
	<circle id="XMLID_569_" fill="#E3DAFC" cx="132.136" cy="187.014" r="4.09"/>
	<path id="XMLID_568_" fill="#5AE091" d="M72.314,138.688h1.047c-16.943,0-30.678,13.735-30.678,30.678v22.207
		c0,4.841,3.924,8.766,8.765,8.766h42.779c4.842,0,8.766-3.925,8.766-8.766v-22.207C102.993,152.423,89.258,138.688,72.314,138.688z
		"/>
	<path id="XMLID_567_" fill="#E3DAFC" d="M75.468,139.436h-5.259c-16.943,0-30.68-13.735-30.68-30.679v-4.383
		c0-16.943,13.736-30.679,30.68-30.679h5.259c16.943,0,30.679,13.736,30.679,30.679v4.383
		C106.146,125.701,92.411,139.436,75.468,139.436z"/>
	<circle id="XMLID_566_" fill="#2727CC" cx="99.463" cy="100.428" r="2.93"/>
	<circle id="XMLID_565_" fill="#2727CC" cx="88.678" cy="100.428" r="2.929"/>
	
		<path id="XMLID_564_" fill="none" stroke="#DC4B4B" stroke-width="3.5062" stroke-linecap="round" stroke-linejoin="round" stroke-miterlimit="10" d="
		M95.65,113.044c0,0-3.674-1.552-6.884,0"/>
	<path id="XMLID_563_" fill="#DC4B4B" d="M109.287,101.6c-0.834-11.758-6.917-22.084-15.92-28.644
		c-0.56-0.03-1.111-0.085-1.678-0.085h-5.373c-17.312,0-31.346,14.034-31.346,31.345v5.896
		c14.619-6.955,26.602-18.557,34.031-32.902C93.938,86.741,100.894,95.05,109.287,101.6z"/>
	<path id="XMLID_562_" fill="#DC4B4B" d="M90.157,72.871c0,0-5.423,29.036-52.511,48.019l-3.451-33.528
		C34.195,87.361,49.48,60.846,90.157,72.871z"/>
	<circle id="XMLID_674_" fill="#DC4B4B" cx="39.53" cy="121.884" r="16.901"/>
</g>
</svg>
