<?xml version="1.0" encoding="utf-8"?>
<!-- Generator: Adobe Illustrator 16.0.0, SVG Export Plug-In . SVG Version: 6.00 Build 0)  -->
<!DOCTYPE svg PUBLIC "-//W3C//DTD SVG 1.1//EN" "http://www.w3.org/Graphics/SVG/1.1/DTD/svg11.dtd">
<svg version="1.1" id="Layer_1" xmlns="http://www.w3.org/2000/svg" xmlns:xlink="http://www.w3.org/1999/xlink" x="0px" y="0px"
	 width="160px" height="160px" viewBox="-17 -0.5 160 160" enable-background="new -17 -0.5 160 160" xml:space="preserve">
<title>Page 1</title>
<desc>Created with Sketch.</desc>
<g id="Page-1_1_">
	<g id="desktop" transform="translate(-177.000000, -4322.000000)">
		<g id="Sindrome-impostor" transform="translate(-4.000000, 4159.000000)">
			<g id="impostor1" transform="translate(164.000000, 161.000000)">
				<g id="Page-1" transform="translate(17.000000, 1.000000)">
					<polygon id="Fill-1" fill="#8D8CBF" points="43.895,108.103 85.481,108.103 85.481,103.154 43.895,103.154 					"/>
					<g id="Group-9" transform="translate(0.000000, 0.693055)">
						<path id="Fill-2" fill="#8D8CBF" d="M94.738,46.67c0,4.15-4.003,7.588-9.161,8.106V54.32c1.61-3.194,2.522-6.807,2.522-10.635
							v-8.644h6.639V46.67z M43.798,54.777c-5.16-0.52-9.159-3.957-9.159-8.106V35.041h6.637v8.644
							c0,3.828,0.914,7.439,2.522,10.635V54.777z M97.396,33.545l-0.117-1.234h-9.182v-1.415c0-0.181-0.021-0.355-0.027-0.534
							H41.305c-0.003,0.179-0.028,0.354-0.028,0.534v1.415h-9.179l-0.119,1.234c-0.029,0.292-0.053,0.583-0.053,0.881v12.245
							c0,6.012,5.936,10.905,13.231,10.905h0.624c3.611,4.967,9.103,8.458,15.422,9.408v11.841H49.589l-1.991,20.862h34.177
							l-1.99-20.862H68.172V66.984c6.32-0.949,11.812-4.442,15.422-9.408h0.625c7.297,0,13.232-4.893,13.232-10.905V34.427
							C97.451,34.128,97.428,33.837,97.396,33.545L97.396,33.545z"/>
						<g id="Group-8">
							<polyline id="Fill-4" fill="#6867A6" points="68.512,158.473 68.512,128.486 68.512,121.485 64.371,121.44 60.877,121.4 
								56.688,121.356 56.688,128.446 56.688,158.473 							"/>
							<g id="Clip-7">
							</g>
							<defs>
								<filter id="Adobe_OpacityMaskFilter" filterUnits="userSpaceOnUse" x="0" y="0.364" width="125.199" height="128.734">
									<feColorMatrix  type="matrix" values="1 0 0 0 0  0 1 0 0 0  0 0 1 0 0  0 0 0 1 0"/>
								</filter>
							</defs>
							<mask maskUnits="userSpaceOnUse" x="0" y="0.364" width="125.199" height="128.734" id="mask-2">
								<g filter="url(#Adobe_OpacityMaskFilter)">
									<polygon id="path-1" fill="#FFFFFF" points="125.199,0.364 125.199,129.098 0,129.098 0,0.364 									"/>
								</g>
							</mask>
							<path id="Fill-6" mask="url(#mask-2)" fill="#6867A6" d="M94.354,20.528l1.681,1.511L21.499,99.535l-1.888-2.152
								C13.02,88.297,9.125,77.052,9.125,64.731C9.125,34.39,33.09,9.747,62.6,9.747C74.433,9.747,85.366,13.751,94.354,20.528
								 M116.073,64.731c0,30.341-23.967,54.984-53.474,54.984c-10.904-0.002-21.042-3.398-29.6-9.234
								c-0.73-0.5-2.422-1.669-4.918-4.017l74.915-77.24c2.127,1.963,3.43,4.055,3.832,4.667
								C112.664,42.774,116.073,53.347,116.073,64.731 M0,64.731c0,35.474,28.1,64.367,62.6,64.367
								c34.499,0,62.6-28.893,62.6-64.367c0-35.475-28.101-64.368-62.6-64.368C28.1,0.364,0,29.256,0,64.731"/>
						</g>
					</g>
				</g>
			</g>
		</g>
	</g>
</g>
</svg>
