<?xml version="1.0" encoding="utf-8"?>
<!-- Generator: Adobe Illustrator 16.0.0, SVG Export Plug-In . SVG Version: 6.00 Build 0)  -->
<!DOCTYPE svg PUBLIC "-//W3C//DTD SVG 1.1//EN" "http://www.w3.org/Graphics/SVG/1.1/DTD/svg11.dtd">
<svg version="1.1" id="Layer_1" xmlns="http://www.w3.org/2000/svg" xmlns:xlink="http://www.w3.org/1999/xlink" x="0px" y="0px"
	 width="355px" height="255px" viewBox="0 0 355 255" enable-background="new 0 0 355 255" xml:space="preserve">
<g id="XMLID_168_">
	<path id="XMLID_800_" fill="#F6F6F4" d="M163.87,239.068H11.504c-4.14,0-7.495-3.355-7.495-7.495V205.09
		c0-4.14,3.355-7.496,7.495-7.496H163.87c4.14,0,7.496,3.356,7.496,7.496v26.483C171.366,235.713,168.01,239.068,163.87,239.068z"/>
	<path id="XMLID_175_" fill="#F0F0F0" d="M342.833,252.349H147.994c-4.14,0-7.495-3.354-7.495-7.494v-33.807
		c0-4.14,3.355-7.495,7.495-7.495h194.839c4.139,0,7.494,3.355,7.494,7.495v33.807C350.327,248.994,346.972,252.349,342.833,252.349
		z"/>
	
		<circle id="XMLID_793_" fill="none" stroke="#94EAC4" stroke-width="3.2467" stroke-linecap="round" stroke-linejoin="round" stroke-miterlimit="10" cx="333.656" cy="239.068" r="7.152"/>
	
		<circle id="XMLID_790_" fill="none" stroke="#94EAC4" stroke-width="3.2467" stroke-linecap="round" stroke-linejoin="round" stroke-miterlimit="10" cx="156.2" cy="212.251" r="7.152"/>
	
		<circle id="XMLID_777_" fill="none" stroke="#94EAC4" stroke-width="3.2467" stroke-linecap="round" stroke-linejoin="round" stroke-miterlimit="10" cx="122.45" cy="224.461" r="7.152"/>
	
		<polyline id="XMLID_14_" fill="none" stroke="#94EAC4" stroke-width="3.2467" stroke-linecap="round" stroke-linejoin="round" stroke-miterlimit="10" points="
		177.296,255 193.228,239.068 326.504,239.068 	"/>
	
		<polyline id="XMLID_13_" fill="none" stroke="#94EAC4" stroke-width="3.2467" stroke-linecap="round" stroke-linejoin="round" stroke-miterlimit="10" points="
		29.135,255 33.313,250.821 162.643,250.821 187.805,225.659 355,225.659 	"/>
	
		<polyline id="XMLID_12_" fill="none" stroke="#94EAC4" stroke-width="3.2467" stroke-linecap="round" stroke-linejoin="round" stroke-miterlimit="10" points="
		10.305,254.999 27.892,237.414 157.221,237.414 182.383,212.251 355,212.251 	"/>
	
		<line id="XMLID_770_" fill="none" stroke="#94EAC4" stroke-width="3.2467" stroke-linecap="round" stroke-linejoin="round" stroke-miterlimit="10" x1="149.047" y1="212.251" x2="0" y2="212.251"/>
	
		<line id="XMLID_769_" fill="none" stroke="#94EAC4" stroke-width="3.2467" stroke-linecap="round" stroke-linejoin="round" stroke-miterlimit="10" x1="115.298" y1="224.461" x2="0" y2="224.461"/>
</g>
<path id="XMLID_994_" fill="#58D68B" d="M49.849,26.956v23.34c-0.891,0.178-1.781,0.267-2.671,0.267c-0.4,0-0.818-0.021-1.252-0.065
	c-0.434-0.046-0.773-0.089-1.018-0.135l-0.367-0.066V30.93c-0.757,0-1.486-0.023-2.188-0.067c-0.701-0.044-1.218-0.089-1.553-0.133
	l-0.467-0.102c-0.156-0.466-0.234-1.033-0.234-1.702c0-0.312,0.017-0.605,0.05-0.884c0.034-0.279,0.072-0.485,0.117-0.619l0.066-0.2
	C42.759,27.046,45.931,26.956,49.849,26.956z"/>
<path id="XMLID_988_" fill="#58D68B" d="M54.496,91.128l-2.964,13.639c-0.597-0.021-1.184-0.093-1.758-0.218
	c-0.259-0.057-0.525-0.128-0.8-0.215c-0.274-0.088-0.488-0.16-0.64-0.221l-0.229-0.091l2.46-11.317
	c-0.489-0.106-0.957-0.222-1.404-0.347c-0.447-0.123-0.775-0.223-0.986-0.295l-0.289-0.125c-0.042-0.294-0.02-0.637,0.065-1.028
	c0.04-0.182,0.088-0.352,0.145-0.51c0.057-0.157,0.108-0.272,0.154-0.344l0.068-0.108C49.907,90.185,51.966,90.578,54.496,91.128z"
	/>
<path id="XMLID_982_" fill="#58D68B" d="M107.497,156.979l-5.318,24.47c-1.072-0.038-2.124-0.169-3.155-0.393
	c-0.463-0.102-0.942-0.229-1.435-0.385c-0.493-0.157-0.876-0.288-1.149-0.397l-0.411-0.162l4.413-20.303
	c-0.876-0.191-1.716-0.398-2.518-0.621c-0.803-0.223-1.392-0.4-1.769-0.531l-0.518-0.224c-0.075-0.528-0.036-1.142,0.117-1.844
	c0.071-0.326,0.158-0.631,0.26-0.914s0.194-0.49,0.276-0.619l0.123-0.193C99.264,155.287,102.958,155.991,107.497,156.979z"/>
<path id="XMLID_976_" fill="#58D68B" d="M18.628,132.019l24,16.407c-0.509,1.136-1.109,2.21-1.801,3.222
	c-0.311,0.455-0.658,0.914-1.041,1.376c-0.383,0.461-0.692,0.816-0.929,1.063l-0.353,0.37l-19.914-13.614
	c-0.588,0.861-1.178,1.673-1.768,2.438s-1.038,1.321-1.343,1.67l-0.467,0.461c-0.601-0.152-1.245-0.462-1.932-0.932
	c-0.321-0.22-0.61-0.446-0.871-0.679c-0.26-0.233-0.442-0.423-0.544-0.567l-0.154-0.217
	C13.214,140.137,15.584,136.469,18.628,132.019z"/>
<path id="XMLID_970_" fill="#58D68B" d="M86.743,47.078L75.384,98.262c-2.04-0.043-4.036-0.282-5.989-0.715
	c-0.877-0.194-1.783-0.445-2.713-0.754c-0.93-0.311-1.653-0.571-2.168-0.79l-0.773-0.324l9.425-42.47
	c-1.661-0.368-3.248-0.773-4.765-1.211c-1.516-0.44-2.629-0.788-3.34-1.048l-0.976-0.448c-0.115-1.1-0.009-2.383,0.316-3.848
	c0.152-0.685,0.332-1.322,0.541-1.916c0.209-0.594,0.394-1.027,0.557-1.298l0.244-0.407C71.15,43.824,78.15,45.172,86.743,47.078z"
	/>
<path id="XMLID_964_" fill="#58D68B" d="M140.499,70.678L127.94,94.822c-1.018-0.295-1.986-0.683-2.907-1.163
	c-0.414-0.214-0.834-0.462-1.259-0.74c-0.424-0.28-0.752-0.508-0.981-0.688l-0.344-0.267l10.42-20.033
	c-0.783-0.407-1.525-0.824-2.227-1.247s-1.212-0.746-1.534-0.972l-0.429-0.357c0.089-0.566,0.314-1.195,0.673-1.886
	c0.168-0.324,0.344-0.618,0.528-0.889c0.185-0.27,0.335-0.462,0.454-0.575l0.176-0.172
	C133.116,66.955,136.445,68.568,140.499,70.678z"/>
<path id="XMLID_958_" fill="#58D68B" d="M163.565,136.862l-12.56,24.145c-1.017-0.295-1.985-0.683-2.906-1.161
	c-0.415-0.216-0.835-0.462-1.26-0.742c-0.425-0.281-0.752-0.508-0.981-0.687l-0.344-0.266l10.42-20.035
	c-0.783-0.406-1.524-0.822-2.227-1.246c-0.702-0.423-1.212-0.747-1.534-0.973l-0.43-0.356c0.09-0.566,0.314-1.196,0.674-1.887
	c0.168-0.323,0.343-0.617,0.527-0.888c0.185-0.27,0.336-0.462,0.454-0.576l0.177-0.172
	C156.182,133.141,159.512,134.754,163.565,136.862z"/>
<path id="XMLID_952_" fill="#58D68B" d="M129.032,22.043l-5.087,47.831c-1.865,0.17-3.708,0.158-5.533-0.036
	c-0.821-0.087-1.671-0.223-2.552-0.408c-0.879-0.188-1.565-0.351-2.057-0.497l-0.738-0.215l4.221-39.688
	c-1.552-0.165-3.041-0.37-4.468-0.615c-1.427-0.243-2.478-0.447-3.152-0.611l-0.936-0.308c-0.218-0.991-0.254-2.172-0.108-3.54
	c0.068-0.64,0.167-1.239,0.296-1.802c0.129-0.563,0.253-0.978,0.375-1.241l0.18-0.396C114.483,20.682,121.002,21.189,129.032,22.043
	z"/>
<path id="XMLID_946_" fill="#58D68B" d="M131.562,162.286l-38.034-29.445c0.834-1.677,1.813-3.239,2.936-4.69
	c0.505-0.652,1.067-1.306,1.687-1.957c0.622-0.65,1.121-1.147,1.503-1.489l0.571-0.516l31.558,24.434
	c0.956-1.234,1.912-2.394,2.869-3.48c0.957-1.087,1.682-1.873,2.176-2.361l0.754-0.635c0.958,0.335,1.981,0.924,3.07,1.768
	c0.508,0.394,0.966,0.791,1.378,1.196c0.411,0.406,0.699,0.73,0.859,0.971l0.243,0.361
	C140.361,150.619,136.506,155.901,131.562,162.286z"/>
<path id="XMLID_940_" fill="#58D68B" d="M22.447,40.656l21.419,30.456c-1,1.05-2.08,1.982-3.242,2.8
	c-0.522,0.367-1.087,0.723-1.695,1.063c-0.607,0.339-1.09,0.594-1.452,0.759l-0.539,0.25L19.166,50.714
	c-0.988,0.695-1.959,1.334-2.916,1.921c-0.956,0.585-1.671,1.002-2.148,1.25l-0.703,0.298c-0.631-0.467-1.254-1.135-1.868-2.007
	c-0.286-0.407-0.534-0.807-0.746-1.201c-0.211-0.394-0.351-0.698-0.415-0.914l-0.097-0.321
	C13.277,47.28,17.333,44.252,22.447,40.656z"/>
<path id="XMLID_929_" fill="#58D68B" d="M58.89,26.873V14.852c0-1.98,0.629-3.461,1.886-4.44c1.258-0.979,3.311-1.469,6.16-1.469
	c2.85,0,4.897,0.489,6.145,1.469c1.246,0.979,1.87,2.46,1.87,4.44v12.021c0,1.981-0.624,3.462-1.87,4.44
	c-1.248,0.979-3.295,1.47-6.145,1.47c-2.849,0-4.902-0.49-6.16-1.47C59.519,30.335,58.89,28.854,58.89,26.873z M64.232,14.852
	v12.021c0,0.979,0.189,1.664,0.567,2.054c0.379,0.39,1.091,0.585,2.137,0.585c1.047,0,1.759-0.195,2.137-0.585
	s0.567-1.074,0.567-2.054V14.852c0-0.979-0.189-1.663-0.567-2.053s-1.09-0.584-2.137-0.584c-1.046,0-1.758,0.194-2.137,0.584
	C64.421,13.188,64.232,13.873,64.232,14.852z"/>
<path id="XMLID_921_" fill="#58D68B" d="M11.451,18.76L21.52,8.811c1.659-1.64,3.419-2.338,5.28-2.096
	c1.861,0.243,3.971,1.558,6.329,3.943c2.359,2.388,3.644,4.508,3.856,6.363c0.21,1.854-0.513,3.602-2.172,5.241l-10.068,9.95
	c-1.66,1.64-3.416,2.343-5.267,2.109c-1.854-0.233-3.958-1.543-6.317-3.929c-2.358-2.388-3.648-4.513-3.868-6.377
	C9.072,22.152,9.791,20.401,11.451,18.76z M25.941,13.285l-10.068,9.95c-0.821,0.812-1.237,1.536-1.251,2.175
	c-0.013,0.641,0.414,1.398,1.28,2.274c0.866,0.876,1.619,1.312,2.258,1.306c0.64-0.006,1.37-0.413,2.191-1.225l10.068-9.95
	c0.82-0.811,1.236-1.534,1.25-2.175c0.013-0.638-0.414-1.396-1.28-2.273c-0.866-0.876-1.619-1.31-2.258-1.306
	C27.491,12.067,26.761,12.475,25.941,13.285z"/>
<path id="XMLID_913_" fill="#58D68B" d="M50.503,75.604l-2.56-9.931c-0.422-1.636-0.218-2.992,0.612-4.069
	c0.83-1.076,2.422-1.919,4.776-2.525c2.354-0.607,4.149-0.639,5.389-0.096c1.238,0.544,2.068,1.634,2.49,3.271l2.561,9.931
	c0.422,1.638,0.222,2.992-0.599,4.066c-0.821,1.075-2.409,1.915-4.763,2.522c-2.354,0.606-4.155,0.64-5.402,0.098
	C51.76,78.33,50.925,77.241,50.503,75.604z M52.356,64.535l2.56,9.931c0.209,0.81,0.511,1.335,0.906,1.576
	c0.397,0.241,1.026,0.25,1.89,0.026c0.865-0.222,1.412-0.534,1.641-0.938c0.229-0.401,0.24-1.008,0.031-1.817l-2.56-9.93
	c-0.209-0.809-0.511-1.334-0.906-1.575c-0.395-0.241-1.025-0.25-1.89-0.027c-0.864,0.223-1.41,0.535-1.641,0.938
	C52.158,63.121,52.148,63.727,52.356,64.535z"/>
<path id="XMLID_904_" fill="#58D68B" d="M45.826,176.206l-2.56-9.931c-0.422-1.637-0.218-2.993,0.612-4.07s2.422-1.919,4.776-2.525
	s4.15-0.639,5.389-0.095c1.238,0.543,2.068,1.634,2.49,3.27l2.561,9.931c0.422,1.637,0.222,2.992-0.599,4.066
	c-0.822,1.076-2.409,1.916-4.763,2.523c-2.354,0.607-4.155,0.64-5.402,0.099C47.082,178.932,46.248,177.844,45.826,176.206z
	 M47.678,165.138l2.561,9.931c0.209,0.81,0.511,1.334,0.907,1.576c0.396,0.241,1.025,0.25,1.889,0.027
	c0.864-0.224,1.412-0.536,1.641-0.938c0.229-0.403,0.24-1.009,0.031-1.818l-2.56-9.931c-0.208-0.809-0.511-1.334-0.906-1.575
	s-1.026-0.25-1.89-0.027c-0.865,0.223-1.411,0.536-1.641,0.938C47.481,163.724,47.47,164.329,47.678,165.138z"/>
<path id="XMLID_896_" fill="#58D68B" d="M92.693,59.377l5.087-8.903c0.838-1.468,1.93-2.298,3.276-2.491
	c1.346-0.193,3.074,0.312,5.185,1.518c2.11,1.207,3.42,2.436,3.93,3.689c0.508,1.253,0.344,2.613-0.495,4.08l-5.086,8.904
	c-0.839,1.469-1.927,2.3-3.265,2.499c-1.338,0.197-3.062-0.307-5.173-1.511c-2.111-1.208-3.425-2.438-3.942-3.696
	C91.694,62.208,91.854,60.846,92.693,59.377z M101.737,52.733l-5.087,8.905c-0.415,0.726-0.563,1.312-0.449,1.762
	c0.116,0.448,0.561,0.894,1.336,1.336c0.775,0.443,1.385,0.601,1.831,0.473c0.445-0.129,0.875-0.556,1.29-1.282l5.086-8.904
	c0.415-0.725,0.564-1.312,0.449-1.762c-0.116-0.447-0.561-0.894-1.336-1.336c-0.775-0.443-1.385-0.6-1.831-0.472
	C102.581,51.582,102.151,52.009,101.737,52.733z"/>
<path id="XMLID_883_" fill="#58D68B" d="M66.457,180.905L71.543,172c0.839-1.467,1.931-2.297,3.276-2.491
	c1.346-0.192,3.074,0.313,5.185,1.52c2.111,1.206,3.42,2.436,3.93,3.688c0.508,1.253,0.344,2.612-0.494,4.08l-5.087,8.905
	c-0.838,1.468-1.927,2.3-3.264,2.498c-1.338,0.197-3.062-0.306-5.173-1.512c-2.111-1.205-3.425-2.438-3.941-3.695
	C65.458,183.735,65.618,182.373,66.457,180.905z M75.5,174.262l-5.087,8.903c-0.415,0.727-0.564,1.314-0.449,1.763
	c0.116,0.449,0.561,0.896,1.336,1.338s1.385,0.601,1.831,0.47c0.445-0.128,0.875-0.554,1.29-1.28l5.086-8.904
	c0.414-0.727,0.563-1.312,0.448-1.762c-0.116-0.447-0.561-0.894-1.335-1.337c-0.775-0.442-1.385-0.6-1.831-0.471
	C76.345,173.109,75.915,173.535,75.5,174.262z"/>
<path id="XMLID_875_" fill="#58D68B" d="M7.8,111.026l3.179-20.539c0.524-3.385,1.989-5.747,4.397-7.088
	c2.407-1.341,6.044-1.636,10.913-0.881c4.869,0.753,8.237,2.132,10.11,4.134c1.87,2.004,2.544,4.696,2.02,8.082l-3.178,20.537
	c-0.524,3.387-1.981,5.75-4.368,7.094c-2.391,1.345-6.018,1.64-10.887,0.887c-4.869-0.753-8.248-2.134-10.136-4.141
	C7.959,117.106,7.276,114.412,7.8,111.026z M20.106,91.9l-3.179,20.538c-0.259,1.675-0.116,2.894,0.427,3.659
	c0.545,0.766,1.709,1.287,3.497,1.562c1.788,0.277,3.057,0.134,3.806-0.433c0.749-0.565,1.253-1.686,1.513-3.36l3.178-20.537
	c0.259-1.674,0.116-2.892-0.427-3.658c-0.543-0.765-1.709-1.286-3.497-1.564c-1.787-0.275-3.055-0.13-3.806,0.435
	C20.869,89.108,20.365,90.228,20.106,91.9z"/>
<path id="XMLID_867_" fill="#58D68B" d="M57.259,154.807l-11.706-23.239c-1.929-3.829-2.154-7.303-0.678-10.423
	c1.478-3.117,4.97-6.063,10.479-8.838c5.509-2.775,9.944-3.822,13.309-3.145c3.363,0.683,6.01,2.937,7.939,6.766l11.706,23.238
	c1.93,3.832,2.165,7.3,0.71,10.406c-1.458,3.109-4.938,6.05-10.448,8.826c-5.509,2.774-9.956,3.826-13.341,3.156
	C61.846,160.887,59.189,158.638,57.259,154.807z M55.881,126.365l11.706,23.239c0.955,1.895,1.987,3.033,3.097,3.418
	c1.113,0.386,2.678,0.067,4.701-0.951c2.022-1.019,3.21-2.089,3.562-3.211c0.351-1.121,0.051-2.629-0.903-4.523l-11.707-23.239
	c-0.953-1.894-1.986-3.031-3.096-3.416c-1.11-0.384-2.677-0.068-4.7,0.951c-2.023,1.019-3.208,2.089-3.563,3.211
	C54.628,122.966,54.928,124.473,55.881,126.365z"/>
<path id="XMLID_859_" fill="#58D68B" d="M91.487,105.952l-2.87-18.726c-0.473-3.087,0.153-5.542,1.878-7.369
	c1.726-1.826,4.807-3.079,9.246-3.76c4.44-0.681,7.746-0.405,9.923,0.821c2.174,1.229,3.5,3.386,3.973,6.472l2.871,18.727
	c0.473,3.088-0.145,5.542-1.852,7.364c-1.709,1.826-4.782,3.076-9.222,3.757c-4.439,0.681-7.754,0.408-9.947-0.818
	C93.293,111.195,91.96,109.04,91.487,105.952z M96.939,85.95l2.87,18.727c0.235,1.527,0.693,2.547,1.375,3.063
	c0.684,0.518,1.839,0.651,3.469,0.4c1.63-0.249,2.693-0.723,3.189-1.42c0.496-0.698,0.627-1.809,0.394-3.336l-2.871-18.726
	c-0.233-1.525-0.692-2.547-1.375-3.063c-0.682-0.516-1.838-0.65-3.468-0.4c-1.63,0.251-2.692,0.725-3.19,1.421
	C96.837,83.314,96.705,84.425,96.939,85.95z"/>
<path id="XMLID_851_" fill="#58D68B" d="M125.569,120.016l0.348-13.292c0.057-2.189,0.795-3.808,2.214-4.855
	c1.419-1.047,3.704-1.527,6.854-1.446c3.151,0.083,5.401,0.684,6.752,1.803c1.348,1.119,1.996,2.773,1.938,4.964l-0.348,13.292
	c-0.058,2.191-0.79,3.81-2.196,4.855c-1.408,1.048-3.685,1.53-6.836,1.447c-3.151-0.082-5.407-0.683-6.769-1.803
	C126.165,123.861,125.512,122.208,125.569,120.016z M131.824,106.879l-0.347,13.292c-0.028,1.083,0.162,1.846,0.568,2.286
	c0.408,0.442,1.189,0.679,2.346,0.709c1.157,0.029,1.951-0.164,2.379-0.584c0.43-0.421,0.659-1.171,0.688-2.255l0.348-13.293
	c0.028-1.082-0.161-1.845-0.568-2.286c-0.407-0.44-1.189-0.677-2.346-0.707c-1.157-0.031-1.95,0.164-2.38,0.583
	C132.082,105.046,131.852,105.796,131.824,106.879z"/>
<path id="XMLID_843_" fill="#58D68B" d="M149.345,96.541l-7.154-4.211c-1.179-0.693-1.839-1.586-1.982-2.678
	c-0.143-1.092,0.285-2.484,1.283-4.181c0.999-1.696,2.007-2.742,3.026-3.143c1.02-0.398,2.119-0.251,3.298,0.443l7.154,4.21
	c1.18,0.695,1.842,1.583,1.988,2.669c0.146,1.085-0.279,2.476-1.277,4.171c-0.999,1.696-2.009,2.746-3.033,3.152
	C151.625,97.379,150.523,97.235,149.345,96.541z M144.062,89.151l7.154,4.211c0.583,0.344,1.057,0.469,1.421,0.382
	c0.365-0.09,0.73-0.445,1.096-1.067c0.366-0.623,0.5-1.114,0.401-1.477c-0.1-0.362-0.441-0.714-1.024-1.057l-7.154-4.212
	c-0.583-0.343-1.057-0.469-1.421-0.381c-0.364,0.089-0.729,0.444-1.096,1.067c-0.367,0.622-0.5,1.114-0.401,1.477
	C143.138,88.456,143.479,88.809,144.062,89.151z"/>
<path id="XMLID_832_" fill="#58D68B" d="M172.566,169.815l-4.041-7.251c-0.667-1.194-0.785-2.299-0.356-3.313
	c0.429-1.013,1.503-1.998,3.222-2.957c1.719-0.957,3.118-1.352,4.2-1.18c1.081,0.172,1.955,0.854,2.621,2.05l4.043,7.25
	c0.666,1.196,0.786,2.299,0.365,3.308c-0.423,1.011-1.493,1.994-3.212,2.952c-1.719,0.959-3.122,1.354-4.209,1.186
	C174.11,171.691,173.234,171.01,172.566,169.815z M171.747,160.769l4.042,7.25c0.33,0.592,0.674,0.941,1.033,1.048
	c0.36,0.108,0.854-0.015,1.486-0.365c0.63-0.353,0.994-0.709,1.092-1.071c0.097-0.362-0.019-0.839-0.349-1.43l-4.042-7.251
	c-0.329-0.59-0.673-0.939-1.033-1.048c-0.359-0.106-0.854,0.015-1.485,0.366c-0.632,0.353-0.995,0.709-1.093,1.071
	C171.303,159.701,171.418,160.178,171.747,160.769z"/>
<path id="XMLID_824_" fill="#58D68B" d="M126.327,179.823l-7.154-4.209c-1.179-0.694-1.84-1.587-1.983-2.68
	c-0.142-1.09,0.286-2.483,1.284-4.18c0.999-1.696,2.007-2.743,3.026-3.143c1.02-0.397,2.119-0.251,3.298,0.443l7.154,4.21
	c1.18,0.694,1.842,1.584,1.988,2.668c0.146,1.086-0.279,2.476-1.277,4.172c-0.998,1.695-2.009,2.746-3.033,3.151
	C128.607,180.662,127.506,180.519,126.327,179.823z M121.043,172.435l7.154,4.21c0.583,0.344,1.057,0.47,1.421,0.382
	c0.365-0.09,0.73-0.444,1.097-1.066c0.367-0.623,0.5-1.116,0.4-1.477c-0.1-0.362-0.44-0.715-1.023-1.058l-7.154-4.211
	c-0.583-0.343-1.057-0.47-1.421-0.382c-0.363,0.09-0.729,0.444-1.097,1.067c-0.366,0.623-0.499,1.114-0.4,1.477
	C120.12,171.739,120.461,172.091,121.043,172.435z"/>
<g id="XMLID_298_">
	<path id="XMLID_1033_" fill="none" stroke="#E3DAFC" stroke-width="7.881" stroke-miterlimit="10" d="M276.65,174.289
		c0,0,28.235,0.936,28.235,36.898"/>
	<g id="XMLID_1030_">
		
			<line id="XMLID_1032_" fill="none" stroke="#333333" stroke-width="3.3776" stroke-linecap="round" stroke-linejoin="round" stroke-miterlimit="10" x1="311.705" y1="208.451" x2="310.816" y2="203.553"/>
		<path id="XMLID_1031_" fill="#333333" d="M301.668,216.88l15.097-2.737c2.319-0.421,3.857-2.642,3.437-4.96l0,0
			c-0.42-2.319-2.64-3.858-4.96-3.438l-15.097,2.738L301.668,216.88z"/>
	</g>
	<path id="XMLID_1029_" fill="none" stroke="#E3DAFC" stroke-width="7.881" stroke-miterlimit="10" d="M256.336,173.354
		c0,0,18.338,22.437-19.949,33.727"/>
	<path id="XMLID_1026_" fill="none" stroke="#2727CC" stroke-width="7.8811" stroke-miterlimit="10" d="M294.415,113.575
		c17.176,33.02,46.22,10.273,46.22,10.273"/>
	<circle id="XMLID_1025_" fill="#E3DAFC" cx="340.635" cy="123.849" r="3.94"/>
	<path id="XMLID_1022_" fill="none" stroke="#2727CC" stroke-width="7.8811" stroke-miterlimit="10" d="M253.669,105.615
		c-47.763,5.894-46.222,33.683-46.222,33.683"/>
	<circle id="XMLID_1021_" fill="#E3DAFC" cx="207.448" cy="139.298" r="3.94"/>
	<path id="XMLID_1020_" fill="#333333" d="M294.645,175.125l-43.613,8.862c-4.298,0.873-7.969-3.158-6.699-7.355l3.29-10.869
		c0.617-2.039,2.304-3.575,4.391-4l32.968-6.699c2.073-0.421,4.213,0.322,5.579,1.938l7.356,8.706
		C300.757,169.071,298.958,174.248,294.645,175.125z"/>
	<path id="XMLID_1017_" fill="#2727CC" d="M273.165,97.341h-5.066c-16.322,0-29.555,13.232-29.555,29.554v28.147
		c0,4.663,3.781,8.444,8.444,8.444h47.285c4.665,0,8.445-3.781,8.445-8.444v-28.147C302.719,110.573,289.486,97.341,273.165,97.341z
		"/>
	<g id="XMLID_1014_">
		
			<line id="XMLID_1016_" fill="none" stroke="#333333" stroke-width="3.3776" stroke-linecap="round" stroke-linejoin="round" stroke-miterlimit="10" x1="241.416" y1="212.69" x2="246.02" y2="210.795"/>
		<path id="XMLID_1015_" fill="#333333" d="M231.07,204.644l5.842,14.187c0.896,2.18,3.391,3.219,5.569,2.322l0,0
			c2.181-0.897,3.22-3.393,2.322-5.571l-5.841-14.187L231.07,204.644z"/>
	</g>
	<path id="XMLID_1013_" fill="#DC4B4B" d="M226.173,67.44L226.173,67.44c-4.443-20.19,8.322-40.162,28.515-44.606l4.947-1.088
		c20.191-4.444,40.162,8.321,44.606,28.513l0,0c4.443,20.192-8.322,40.164-28.514,44.606l-4.947,1.089
		C250.587,100.399,230.617,87.633,226.173,67.44z"/>
	<path id="XMLID_1012_" fill="#E3DAFC" d="M276.435,98.078l-4.948,1.089c-15.94,3.509-31.707-6.57-35.216-22.51l-2.4-10.91
		c-3.509-15.941,6.57-31.707,22.511-35.215l4.948-1.09c15.94-3.508,31.707,6.57,35.214,22.512l2.402,10.908
		C302.453,78.804,292.375,94.569,276.435,98.078z"/>
	
		<path id="XMLID_1010_" fill="none" stroke="#DC4B4B" stroke-width="8.8718" stroke-linecap="round" stroke-linejoin="round" stroke-miterlimit="10" d="
		M286.074,78.602c0,0-9.925-1.84-17.012,3.743"/>
	<path id="XMLID_1009_" fill="#DC4B4B" d="M277.776,27.045c0,0-2.089,31.376-44.604,43.901l-2.206-19.088l10.938-19.906
		l22.902-8.376L277.776,27.045z"/>
	<path id="XMLID_1008_" fill="#DC4B4B" d="M304.327,50.705c-0.03-0.148-0.054-0.297-0.086-0.446l0,0
		c-2.758-12.528-11.498-22.194-22.555-26.668c-2.38-0.057-4.804,0.163-7.232,0.697l-5.056,1.113
		c-16.287,3.584-26.584,19.693-23,35.98l1.221,5.547c12.314-9.57,21.187-22.967,25.206-38.002
		C281.154,38.926,292.087,46.449,304.327,50.705z"/>
	<g id="XMLID_1000_">
		<g id="XMLID_1003_">
			
				<circle id="XMLID_1007_" fill="#F6F6F4" stroke="#333333" stroke-width="3.3776" stroke-linecap="round" stroke-linejoin="round" stroke-miterlimit="10" cx="264.807" cy="62.387" r="11.822"/>
			
				<circle id="XMLID_1006_" fill="#F6F6F4" stroke="#333333" stroke-width="3.3776" stroke-linecap="round" stroke-linejoin="round" stroke-miterlimit="10" cx="294.374" cy="55.88" r="11.822"/>
			
				<line id="XMLID_1005_" fill="none" stroke="#333333" stroke-width="3.3776" stroke-linecap="round" stroke-linejoin="round" stroke-miterlimit="10" x1="276.353" y1="59.846" x2="282.828" y2="58.421"/>
			
				<line id="XMLID_1004_" fill="none" stroke="#333333" stroke-width="3.3776" stroke-linecap="round" stroke-linejoin="round" stroke-miterlimit="10" x1="253.262" y1="64.929" x2="236.031" y2="68.929"/>
		</g>
		<circle id="XMLID_1002_" fill="#2727CC" cx="288.605" cy="58.321" r="2.821"/>
		<circle id="XMLID_1001_" fill="#2727CC" cx="259.088" cy="64.817" r="2.822"/>
	</g>
	<circle id="XMLID_259_" fill="#DC4B4B" cx="222.688" cy="36.634" r="10.708"/>
	<path id="XMLID_255_" fill="#DC4B4B" d="M182.792,92.658c-6.217-1.731-13.159-0.212-18.104,4.625
		c-4.947,4.836-6.622,11.741-5.031,17.995c6.216,1.731,13.158,0.212,18.104-4.624C182.707,105.817,184.383,98.911,182.792,92.658z"
		/>
	<circle id="XMLID_245_" fill="#DC4B4B" cx="188.656" cy="73.935" r="10.709"/>
	<circle id="XMLID_244_" fill="#DC4B4B" cx="206.224" cy="39.46" r="8.022"/>
	<circle id="XMLID_243_" fill="#DC4B4B" cx="186.778" cy="88.945" r="8.022"/>
	<circle id="XMLID_242_" fill="#DC4B4B" cx="193.089" cy="54.098" r="13.281"/>
</g>
</svg>
