<?xml version="1.0" encoding="utf-8"?>
<!-- Generator: Adobe Illustrator 16.0.0, SVG Export Plug-In . SVG Version: 6.00 Build 0)  -->
<!DOCTYPE svg PUBLIC "-//W3C//DTD SVG 1.1//EN" "http://www.w3.org/Graphics/SVG/1.1/DTD/svg11.dtd">
<svg version="1.1" xmlns="http://www.w3.org/2000/svg" xmlns:xlink="http://www.w3.org/1999/xlink" x="0px" y="0px" width="370px"
	 height="570px" viewBox="0 0 370 570" enable-background="new 0 0 370 570" xml:space="preserve">
<g id="bg">
</g>
<g id="_x33_o_plano_base">
</g>
<g id="_x33_o_plano_linha">
</g>
<g id="_x32_o_plano_base">
</g>
<g id="_x32_o_plano_linha">
</g>
<g id="base">
</g>
<g id="linha_1_">
</g>
<g id="menina">
	<g>
		<defs>
			<rect id="SVGID_3_" x="-1.101" y="-3.277" width="373.292" height="571.998"/>
		</defs>
		<clipPath id="SVGID_2_">
			<use xlink:href="#SVGID_3_"  overflow="visible"/>
		</clipPath>
		<rect id="XMLID_600_" x="-8.646" y="-13.319" clip-path="url(#SVGID_2_)" fill="#2727CC" width="387.292" height="596.638"/>
		<g id="XMLID_1263_" clip-path="url(#SVGID_2_)">
			<path id="XMLID_1273_" fill="#272BCC" d="M15.351,549.571h-96.907c-2.391,0-4.329-1.938-4.329-4.329V428.308
				c0-2.391,1.938-4.328,4.329-4.328h96.907c2.391,0,4.329,1.938,4.329,4.328v116.935C19.68,547.634,17.741,549.571,15.351,549.571z
				"/>
			<path id="XMLID_1270_" fill="#272BCC" d="M102.746,625.928H-91.077c-2.391,0-4.329-1.938-4.329-4.329v-122.4
				c0-2.391,1.938-4.329,4.329-4.329h193.822c2.391,0,4.329,1.938,4.329,4.329v122.4
				C107.074,623.99,105.136,625.928,102.746,625.928z"/>
			<path id="XMLID_1267_" fill="#2527C9" d="M-34.556,475.805h35.68c2.391,0,4.329,1.938,4.329,4.329v111.611
				c0,2.391-1.938,4.329-4.329,4.329h-35.68c-2.391,0-4.329-1.938-4.329-4.329V480.134
				C-38.885,477.743-36.947,475.805-34.556,475.805z"/>
			<path id="XMLID_1264_" fill="#2527C9" d="M82.108,533.217h47.195c2.391,0,4.329,1.938,4.329,4.329v45.931
				c0,2.391-1.938,4.329-4.329,4.329H82.108c-2.391,0-4.329-1.938-4.329-4.329v-45.931
				C77.779,535.155,79.717,533.217,82.108,533.217z"/>
		</g>
		<path id="XMLID_1260_" clip-path="url(#SVGID_2_)" fill="#2527C9" d="M-22.754-21.823h62.521c2.391,0,4.329,1.938,4.329,4.329
			V94.117c0,2.392-1.938,4.329-4.329,4.329h-62.521c-2.391,0-4.329-1.938-4.329-4.329V-17.494
			C-27.083-19.885-25.145-21.823-22.754-21.823z"/>
		<g id="XMLID_1873_" clip-path="url(#SVGID_2_)">
			
				<line id="XMLID_1880_" fill="none" stroke="#2C31CC" stroke-width="1.9648" stroke-linecap="round" stroke-linejoin="round" stroke-miterlimit="10" x1="36.128" y1="-3.277" x2="36.128" y2="68.644"/>
			
				<line id="XMLID_1879_" fill="none" stroke="#2C31CC" stroke-width="1.9648" stroke-linecap="round" stroke-linejoin="round" stroke-miterlimit="10" x1="27.472" y1="-3.277" x2="27.472" y2="68.644"/>
			
				<line id="XMLID_1878_" fill="none" stroke="#2C31CC" stroke-width="1.9648" stroke-linecap="round" stroke-linejoin="round" stroke-miterlimit="10" x1="18.816" y1="-3.277" x2="18.816" y2="68.644"/>
			
				<line id="XMLID_1877_" fill="none" stroke="#2C31CC" stroke-width="1.9648" stroke-linecap="round" stroke-linejoin="round" stroke-miterlimit="10" x1="10.16" y1="-3.277" x2="10.16" y2="68.644"/>
			
				<polyline id="XMLID_1876_" fill="none" stroke="#2C31CC" stroke-width="1.9648" stroke-linecap="round" stroke-linejoin="round" stroke-miterlimit="10" points="
				1.504,68.644 1.504,11.567 -14.841,-4.777 			"/>
		</g>
		<g id="XMLID_1825_" clip-path="url(#SVGID_2_)">
			
				<circle id="XMLID_1872_" fill="none" stroke="#2C31CC" stroke-width="1.9648" stroke-linecap="round" stroke-linejoin="round" stroke-miterlimit="10" cx="11.522" cy="434.729" r="4.328"/>
			
				<circle id="XMLID_1871_" fill="none" stroke="#2C31CC" stroke-width="1.9648" stroke-linecap="round" stroke-linejoin="round" stroke-miterlimit="10" cx="11.286" cy="471.477" r="4.328"/>
			
				<polyline id="XMLID_1869_" fill="none" stroke="#2C31CC" stroke-width="1.9648" stroke-linecap="round" stroke-linejoin="round" stroke-miterlimit="10" points="
				11.522,439.407 11.522,457.847 -2.343,471.712 -52.836,471.712 			"/>
			
				<polyline id="XMLID_1868_" fill="none" stroke="#2C31CC" stroke-width="1.9648" stroke-linecap="round" stroke-linejoin="round" stroke-miterlimit="10" points="
				-10.595,480.368 2.395,480.368 8.226,474.537 			"/>
			
				<circle id="XMLID_1865_" fill="none" stroke="#2C31CC" stroke-width="1.9648" stroke-linecap="round" stroke-linejoin="round" stroke-miterlimit="10" cx="7.472" cy="503.859" r="4.328"/>
			
				<circle id="XMLID_1864_" fill="none" stroke="#2C31CC" stroke-width="1.9648" stroke-linecap="round" stroke-linejoin="round" stroke-miterlimit="10" cx="11.8" cy="486.775" r="4.328"/>
			
				<circle id="XMLID_1863_" fill="none" stroke="#2C31CC" stroke-width="1.9648" stroke-linecap="round" stroke-linejoin="round" stroke-miterlimit="10" cx="124.758" cy="560.512" r="4.328"/>
			
				<circle id="XMLID_1862_" fill="none" stroke="#2C31CC" stroke-width="1.9648" stroke-linecap="round" stroke-linejoin="round" stroke-miterlimit="10" cx="113.018" cy="551.841" r="4.328"/>
			
				<circle id="XMLID_1861_" fill="none" stroke="#2C31CC" stroke-width="1.9648" stroke-linecap="round" stroke-linejoin="round" stroke-miterlimit="10" cx="95.571" cy="501.49" r="4.328"/>
			
				<circle id="XMLID_1860_" fill="none" stroke="#2C31CC" stroke-width="1.9648" stroke-linecap="round" stroke-linejoin="round" stroke-miterlimit="10" cx="24.784" cy="514.074" r="4.328"/>
			
				<circle id="XMLID_1859_" fill="none" stroke="#2C31CC" stroke-width="1.9648" stroke-linecap="round" stroke-linejoin="round" stroke-miterlimit="10" cx="124.758" cy="543.081" r="4.328"/>
			
				<polyline id="XMLID_1858_" fill="none" stroke="#2C31CC" stroke-width="1.9648" stroke-linecap="round" stroke-linejoin="round" stroke-miterlimit="10" points="
				7.472,508.188 7.472,550.335 17.948,560.812 120.43,560.812 			"/>
			
				<circle id="XMLID_1846_" fill="none" stroke="#2C31CC" stroke-width="1.9648" stroke-linecap="round" stroke-linejoin="round" stroke-miterlimit="10" cx="-1.185" cy="490.833" r="4.328"/>
			
				<polyline id="XMLID_1842_" fill="none" stroke="#2C31CC" stroke-width="1.9648" stroke-linecap="round" stroke-linejoin="round" stroke-miterlimit="10" points="
				108.69,551.841 21.243,551.841 16.128,546.726 16.128,506.229 20.866,501.49 91.243,501.49 			"/>
			
				<path id="XMLID_1841_" fill="none" stroke="#2C31CC" stroke-width="1.9648" stroke-linecap="round" stroke-linejoin="round" stroke-miterlimit="10" d="
				M43.708,514.477c0-2.612-2.118-4.73-4.731-4.73s-4.731,2.118-4.731,4.73v23.874c0,2.612-2.118,4.73-4.731,4.73
				s-4.731-2.118-4.731-4.73v-19.948"/>
			
				<path id="XMLID_1829_" fill="none" stroke="#2C31CC" stroke-width="1.9648" stroke-linecap="round" stroke-linejoin="round" stroke-miterlimit="10" d="
				M62.632,514.477c0-2.612-2.118-4.73-4.731-4.73s-4.731,2.118-4.731,4.73v23.874c0,2.612-2.118,4.73-4.731,4.73
				c-2.613,0-4.731-2.118-4.731-4.73v-23.874"/>
			
				<path id="XMLID_1828_" fill="none" stroke="#2C31CC" stroke-width="1.9648" stroke-linecap="round" stroke-linejoin="round" stroke-miterlimit="10" d="
				M81.557,514.477c0-2.612-2.118-4.73-4.731-4.73c-2.613,0-4.731,2.118-4.731,4.73v23.874c0,2.612-2.118,4.73-4.731,4.73
				s-4.731-2.118-4.731-4.73v-23.874"/>
			
				<path id="XMLID_1827_" fill="none" stroke="#2C31CC" stroke-width="1.9648" stroke-linecap="round" stroke-linejoin="round" stroke-miterlimit="10" d="
				M100.48,514.477c0-2.612-2.118-4.73-4.731-4.73s-4.731,2.118-4.731,4.73v23.874c0,2.612-2.118,4.73-4.731,4.73
				s-4.731-2.118-4.731-4.73v-23.874"/>
			
				<path id="XMLID_1826_" fill="none" stroke="#2C31CC" stroke-width="1.9648" stroke-linecap="round" stroke-linejoin="round" stroke-miterlimit="10" d="
				M100.572,514.477v23.874c0,2.612,2.118,4.73,4.731,4.73h15.127"/>
		</g>
		<g id="XMLID_1113_" clip-path="url(#SVGID_2_)">
			<path id="XMLID_1126_" fill="#2833CC" d="M118.848,323.533H-16.704c-2.391,0-4.329-1.938-4.329-4.329v-76.587
				c0-2.391,1.938-4.329,4.329-4.329h135.551c2.391,0,4.329,1.938,4.329,4.329v76.587
				C123.176,321.595,121.238,323.533,118.848,323.533z"/>
			<path id="XMLID_1123_" fill="#2833CC" d="M-3.533,465.189h-94.995c-2.391,0-4.329-1.938-4.329-4.329V343.926
				c0-2.391,1.938-4.329,4.329-4.329h94.995c2.391,0,4.329,1.938,4.329,4.329V460.86C0.796,463.251-1.142,465.189-3.533,465.189z"/>
			<path id="XMLID_1120_" fill="#2127C3" d="M-42.41,287.749h82.619c2.391,0,4.329,1.938,4.329,4.329v111.611
				c0,2.392-1.938,4.329-4.329,4.329H-42.41c-2.391,0-4.329-1.938-4.329-4.329V292.078
				C-46.739,289.688-44.801,287.749-42.41,287.749z"/>
		</g>
		<g id="XMLID_1095_" clip-path="url(#SVGID_2_)">
			<path id="XMLID_1099_" fill="#2833CC" d="M351.23,522.308h-63.048c-2.391,0-4.329-1.938-4.329-4.329v-69.746
				c0-2.392,1.938-4.329,4.329-4.329h63.048c2.391,0,4.329,1.938,4.329,4.329v69.746
				C355.559,520.369,353.621,522.308,351.23,522.308z"/>
			<path id="XMLID_1096_" fill="#2127C3" d="M374.083,383.769h135.086c2.391,0,4.329,1.938,4.329,4.328v111.612
				c0,2.391-1.938,4.329-4.329,4.329H374.083c-2.391,0-4.329-1.938-4.329-4.329V388.097
				C369.754,385.706,371.692,383.769,374.083,383.769z"/>
		</g>
		<g id="XMLID_664_" clip-path="url(#SVGID_2_)">
			<path id="XMLID_1117_" fill="#2833CC" d="M61.107,184.487H-64.599c-2.391,0-4.329-1.938-4.329-4.329V66.876
				c0-2.391,1.938-4.329,4.329-4.329H61.107c2.391,0,4.329,1.938,4.329,4.329v113.282C65.437,182.55,63.498,184.487,61.107,184.487z
				"/>
			<path id="XMLID_1114_" fill="#2127C3" d="M-18.61,141.865h133.694c2.391,0,4.329,1.938,4.329,4.329v51.498
				c0,2.391-1.938,4.329-4.329,4.329H-18.61c-2.391,0-4.329-1.938-4.329-4.329v-51.498
				C-22.939,143.804-21.001,141.865-18.61,141.865z"/>
		</g>
		<g id="XMLID_1612_" clip-path="url(#SVGID_2_)">
			
				<circle id="XMLID_1673_" fill="none" stroke="#4D6BC9" stroke-width="1.9648" stroke-linecap="round" stroke-linejoin="round" stroke-miterlimit="10" cx="114.893" cy="255.78" r="4.328"/>
			
				<line id="XMLID_1672_" fill="none" stroke="#4D6BC9" stroke-width="1.9648" stroke-linecap="round" stroke-linejoin="round" stroke-miterlimit="10" x1="71.276" y1="255.78" x2="110.564" y2="255.78"/>
			
				<circle id="XMLID_1671_" fill="none" stroke="#4D6BC9" stroke-width="1.9648" stroke-linecap="round" stroke-linejoin="round" stroke-miterlimit="10" cx="93.821" cy="304.622" r="4.328"/>
			
				<polyline id="XMLID_1670_" fill="none" stroke="#4D6BC9" stroke-width="1.9648" stroke-linecap="round" stroke-linejoin="round" stroke-miterlimit="10" points="
				89.493,304.622 48.932,304.622 31.488,322.066 -17.835,322.066 			"/>
			
				<circle id="XMLID_1669_" fill="none" stroke="#4D6BC9" stroke-width="1.9648" stroke-linecap="round" stroke-linejoin="round" stroke-miterlimit="10" cx="101.792" cy="264.437" r="4.328"/>
			
				<line id="XMLID_1668_" fill="none" stroke="#4D6BC9" stroke-width="1.9648" stroke-linecap="round" stroke-linejoin="round" stroke-miterlimit="10" x1="58.176" y1="264.437" x2="97.464" y2="264.437"/>
			
				<circle id="XMLID_1667_" fill="none" stroke="#4D6BC9" stroke-width="1.9648" stroke-linecap="round" stroke-linejoin="round" stroke-miterlimit="10" cx="108.405" cy="295.966" r="4.328"/>
			
				<line id="XMLID_1666_" fill="none" stroke="#4D6BC9" stroke-width="1.9648" stroke-linecap="round" stroke-linejoin="round" stroke-miterlimit="10" x1="64.789" y1="295.966" x2="104.077" y2="295.966"/>
			
				<circle id="XMLID_1665_" fill="none" stroke="#4D6BC9" stroke-width="1.9648" stroke-linecap="round" stroke-linejoin="round" stroke-miterlimit="10" cx="114.653" cy="273.275" r="4.328"/>
			
				<circle id="XMLID_1664_" fill="none" stroke="#4D6BC9" stroke-width="1.9648" stroke-linecap="round" stroke-linejoin="round" stroke-miterlimit="10" cx="94.857" cy="278.086" r="4.328"/>
			
				<circle id="XMLID_1663_" fill="none" stroke="#4D6BC9" stroke-width="1.9648" stroke-linecap="round" stroke-linejoin="round" stroke-miterlimit="10" cx="55.769" cy="313.278" r="4.328"/>
			
				<circle id="XMLID_1662_" fill="none" stroke="#4D6BC9" stroke-width="1.9648" stroke-linecap="round" stroke-linejoin="round" stroke-miterlimit="10" cx="108.405" cy="313.278" r="4.328"/>
			
				<circle id="XMLID_1661_" fill="none" stroke="#4D6BC9" stroke-width="1.9648" stroke-linecap="round" stroke-linejoin="round" stroke-miterlimit="10" cx="79.481" cy="273.275" r="4.328"/>
			
				<line id="XMLID_1660_" fill="none" stroke="#4D6BC9" stroke-width="1.9648" stroke-linecap="round" stroke-linejoin="round" stroke-miterlimit="10" x1="60.289" y1="313.344" x2="104.077" y2="313.344"/>
			
				<circle id="XMLID_1659_" fill="none" stroke="#4D6BC9" stroke-width="1.9648" stroke-linecap="round" stroke-linejoin="round" stroke-miterlimit="10" cx="28.999" cy="330.9" r="4.328"/>
			
				<circle id="XMLID_1658_" fill="none" stroke="#4D6BC9" stroke-width="1.9648" stroke-linecap="round" stroke-linejoin="round" stroke-miterlimit="10" cx="16.958" cy="340.866" r="4.328"/>
			
				<circle id="XMLID_1657_" fill="none" stroke="#4D6BC9" stroke-width="1.9648" stroke-linecap="round" stroke-linejoin="round" stroke-miterlimit="10" cx="-0.504" cy="349.436" r="4.328"/>
			
				<circle id="XMLID_1656_" fill="none" stroke="#4D6BC9" stroke-width="1.9648" stroke-linecap="round" stroke-linejoin="round" stroke-miterlimit="10" cx="35.076" cy="372.131" r="4.328"/>
			
				<circle id="XMLID_1653_" fill="none" stroke="#4D6BC9" stroke-width="1.9648" stroke-linecap="round" stroke-linejoin="round" stroke-miterlimit="10" cx="18.259" cy="358.747" r="4.328"/>
			
				<circle id="XMLID_1652_" fill="none" stroke="#4D6BC9" stroke-width="1.9648" stroke-linecap="round" stroke-linejoin="round" stroke-miterlimit="10" cx="35.076" cy="346.251" r="4.328"/>
			
				<line id="XMLID_1651_" fill="none" stroke="#4D6BC9" stroke-width="1.7276" stroke-linecap="round" stroke-linejoin="round" stroke-miterlimit="10" x1="-9.183" y1="331.555" x2="24.67" y2="331.555"/>
			
				<line id="XMLID_1650_" fill="none" stroke="#4D6BC9" stroke-width="1.7276" stroke-linecap="round" stroke-linejoin="round" stroke-miterlimit="10" x1="-21.224" y1="340.866" x2="12.629" y2="340.866"/>
			
				<line id="XMLID_1648_" fill="none" stroke="#4D6BC9" stroke-width="2.2676" stroke-linecap="round" stroke-linejoin="round" stroke-miterlimit="10" x1="-44.161" y1="358.747" x2="13.507" y2="358.747"/>
			
				<circle id="XMLID_1647_" fill="none" stroke="#4D6BC9" stroke-width="1.9648" stroke-linecap="round" stroke-linejoin="round" stroke-miterlimit="10" cx="18.259" cy="385.114" r="4.328"/>
			
				<line id="XMLID_1646_" fill="none" stroke="#4D6BC9" stroke-width="2.2676" stroke-linecap="round" stroke-linejoin="round" stroke-miterlimit="10" x1="-44.271" y1="385.114" x2="13.397" y2="385.114"/>
			
				<circle id="XMLID_1645_" fill="none" stroke="#4D6BC9" stroke-width="1.9648" stroke-linecap="round" stroke-linejoin="round" stroke-miterlimit="10" cx="5.125" cy="393.683" r="4.328"/>
			
				<line id="XMLID_1644_" fill="none" stroke="#4D6BC9" stroke-width="2.2676" stroke-linecap="round" stroke-linejoin="round" stroke-miterlimit="10" x1="-57.406" y1="393.683" x2="0.262" y2="393.683"/>
			
				<polyline id="XMLID_1643_" fill="none" stroke="#4D6BC9" stroke-width="1.9648" stroke-linecap="round" stroke-linejoin="round" stroke-miterlimit="10" points="
				111.845,276.565 100.662,287.749 57.772,287.749 			"/>
			<circle id="XMLID_1642_" fill="#2727CC" cx="112.733" cy="286.26" r="2.051"/>
			
				<polyline id="XMLID_1641_" fill="none" stroke="#4D6BC9" stroke-width="1.9648" stroke-linecap="round" stroke-linejoin="round" stroke-miterlimit="10" points="
				35.076,350.579 35.076,358.951 26.225,367.803 -32.589,367.803 			"/>
			
				<circle id="XMLID_1626_" fill="none" stroke="#4D6BC9" stroke-width="1.9648" stroke-linecap="round" stroke-linejoin="round" stroke-miterlimit="10" cx="35.076" cy="398.011" r="4.328"/>
			
				<polyline id="XMLID_1625_" fill="none" stroke="#4D6BC9" stroke-width="1.9648" stroke-linecap="round" stroke-linejoin="round" stroke-miterlimit="10" points="
				35.076,393.683 35.076,385.31 26.225,376.459 -32.589,376.459 			"/>
			<circle id="XMLID_1624_" fill="#2727CC" cx="24.671" cy="349.436" r="2.051"/>
			<circle id="XMLID_1613_" fill="#2727CC" cx="18.051" cy="398.011" r="2.051"/>
		</g>
		<g id="XMLID_1580_" clip-path="url(#SVGID_2_)">
			
				<circle id="XMLID_1597_" fill="none" stroke="#4D6BC9" stroke-width="1.9648" stroke-linecap="round" stroke-linejoin="round" stroke-miterlimit="10" cx="55.258" cy="73.063" r="4.328"/>
			
				<circle id="XMLID_1595_" fill="none" stroke="#4D6BC9" stroke-width="1.9648" stroke-linecap="round" stroke-linejoin="round" stroke-miterlimit="10" cx="111.3" cy="150.808" r="4.328"/>
			
				<circle id="XMLID_1594_" fill="none" stroke="#4D6BC9" stroke-width="1.9648" stroke-linecap="round" stroke-linejoin="round" stroke-miterlimit="10" cx="99.709" cy="159.464" r="4.328"/>
			
				<circle id="XMLID_1593_" fill="none" stroke="#4D6BC9" stroke-width="1.9648" stroke-linecap="round" stroke-linejoin="round" stroke-miterlimit="10" cx="28.454" cy="109.043" r="4.328"/>
			
				<circle id="XMLID_1592_" fill="none" stroke="#4D6BC9" stroke-width="1.9648" stroke-linecap="round" stroke-linejoin="round" stroke-miterlimit="10" cx="19.797" cy="120.975" r="4.328"/>
			
				<polyline id="XMLID_1591_" fill="none" stroke="#4D6BC9" stroke-width="1.9648" stroke-linecap="round" stroke-linejoin="round" stroke-miterlimit="10" points="
				50.93,73.13 7.141,73.13 -9.078,89.349 -35.816,89.349 			"/>
			
				<polyline id="XMLID_1589_" fill="none" stroke="#4D6BC9" stroke-width="1.9648" stroke-linecap="round" stroke-linejoin="round" stroke-miterlimit="10" points="
				-29.818,98.005 -4.563,98.005 11.795,81.646 55.258,81.646 55.258,150.808 106.33,150.808 			"/>
			
				<polyline id="XMLID_1588_" fill="none" stroke="#4D6BC9" stroke-width="1.9648" stroke-linecap="round" stroke-linejoin="round" stroke-miterlimit="10" points="
				-29.818,107.5 -1.288,107.5 15.07,91.142 46.171,91.142 46.171,159.464 95.381,159.464 			"/>
			
				<polyline id="XMLID_1587_" fill="none" stroke="#4D6BC9" stroke-width="1.9648" stroke-linecap="round" stroke-linejoin="round" stroke-miterlimit="10" points="
				79.986,168.119 37.438,168.119 37.438,99.798 19.517,99.798 2.62,116.694 -26.932,116.694 			"/>
			
				<polyline id="XMLID_1586_" fill="none" stroke="#4D6BC9" stroke-width="1.9648" stroke-linecap="round" stroke-linejoin="round" stroke-miterlimit="10" points="
				28.454,113.371 28.454,177.811 43.817,177.811 			"/>
			
				<line id="XMLID_1585_" fill="none" stroke="#4D6BC9" stroke-width="1.9648" stroke-linecap="round" stroke-linejoin="round" stroke-miterlimit="10" x1="19.797" y1="125.303" x2="19.797" y2="187.144"/>
			
				<polyline id="XMLID_1584_" fill="none" stroke="#4D6BC9" stroke-width="1.9648" stroke-linecap="round" stroke-linejoin="round" stroke-miterlimit="10" points="
				11.141,187.144 11.141,125.303 -25.528,125.303 			"/>
			
				<polyline id="XMLID_1583_" fill="none" stroke="#4D6BC9" stroke-width="1.9648" stroke-linecap="round" stroke-linejoin="round" stroke-miterlimit="10" points="
				2.485,196.377 2.485,134.536 -34.184,134.536 			"/>
		</g>
		<g id="XMLID_758_" clip-path="url(#SVGID_2_)">
			
				<circle id="XMLID_783_" fill="none" stroke="#4D6BC9" stroke-width="1.9648" stroke-linecap="round" stroke-linejoin="round" stroke-miterlimit="10" cx="346.091" cy="453.405" r="4.328"/>
			
				<circle id="XMLID_782_" fill="none" stroke="#4D6BC9" stroke-width="1.9648" stroke-linecap="round" stroke-linejoin="round" stroke-miterlimit="10" cx="294.424" cy="453.405" r="4.328"/>
			
				<circle id="XMLID_781_" fill="none" stroke="#4D6BC9" stroke-width="1.9648" stroke-linecap="round" stroke-linejoin="round" stroke-miterlimit="10" cx="346.091" cy="489.128" r="4.328"/>
			
				<circle id="XMLID_780_" fill="none" stroke="#4D6BC9" stroke-width="1.9648" stroke-linecap="round" stroke-linejoin="round" stroke-miterlimit="10" cx="326.505" cy="465.641" r="4.328"/>
			
				<polyline id="XMLID_762_" fill="none" stroke="#4D6BC9" stroke-width="1.9648" stroke-linecap="round" stroke-linejoin="round" stroke-miterlimit="10" points="
				346.091,457.733 346.091,476.337 324.701,497.727 			"/>
			
				<polyline id="XMLID_761_" fill="none" stroke="#4D6BC9" stroke-width="1.9648" stroke-linecap="round" stroke-linejoin="round" stroke-miterlimit="10" points="
				315.81,493.63 337.2,472.239 337.2,453.636 307.615,453.636 294.643,466.608 294.643,482.646 			"/>
			
				<line id="XMLID_760_" fill="none" stroke="#4D6BC9" stroke-width="1.9648" stroke-linecap="round" stroke-linejoin="round" stroke-miterlimit="10" x1="324.007" y1="469.172" x2="311.595" y2="481.585"/>
			
				<polyline id="XMLID_759_" fill="none" stroke="#4D6BC9" stroke-width="1.9648" stroke-linecap="round" stroke-linejoin="round" stroke-miterlimit="10" points="
				298.098,457.079 307.69,466.671 307.69,477.961 			"/>
		</g>
		<g id="XMLID_980_" clip-path="url(#SVGID_2_)">
			<path id="XMLID_990_" fill="#294CCC" d="M61.649,301.499H-89.664c-2.391,0-4.328-1.938-4.328-4.328v-57.833
				c0-2.391,1.938-4.328,4.328-4.328H61.649c2.39,0,4.328,1.938,4.328,4.328v57.833C65.977,299.562,64.039,301.499,61.649,301.499z"
				/>
			<path id="XMLID_989_" fill="#294CCC" d="M131.057,245.814H34.148c-2.391,0-4.329-1.938-4.329-4.328v-70.886
				c0-2.391,1.938-4.328,4.329-4.328h96.908c2.391,0,4.329,1.938,4.329,4.328v70.886
				C135.385,243.876,133.447,245.814,131.057,245.814z"/>
			<path id="XMLID_987_" fill="#1628B2" d="M54.293,282.131h-156.937c-2.39,0-4.328-1.938-4.328-4.328l0,0
				c0-2.391,1.938-4.329,4.328-4.329H54.293c2.391,0,4.329,1.938,4.329,4.329l0,0C58.622,280.193,56.684,282.131,54.293,282.131z"/>
			<path id="XMLID_986_" fill="#294CCC" d="M26.706,316.219h-129.349c-2.39,0-4.328-1.938-4.328-4.328l0,0
				c0-2.391,1.938-4.328,4.328-4.328H26.706c2.391,0,4.329,1.938,4.329,4.328l0,0C31.034,314.281,29.096,316.219,26.706,316.219z"/>
			<path id="XMLID_985_" fill="#1628B2" d="M57.772,235.652v-28.746c0-2.391,1.938-4.329,4.328-4.329l0,0
				c2.391,0,4.329,1.938,4.329,4.329v28.746c0,2.391-1.938,4.328-4.329,4.328l0,0C59.71,239.98,57.772,238.043,57.772,235.652z"/>
			<path id="XMLID_984_" fill="#1628B2" d="M75.235,227.057h28.746c2.39,0,4.328,1.938,4.328,4.329l0,0
				c0,2.391-1.938,4.328-4.328,4.328H75.235c-2.391,0-4.328-1.938-4.328-4.328l0,0C70.907,228.995,72.844,227.057,75.235,227.057z"
				/>
			<path id="XMLID_983_" fill="#1628B2" d="M1.742,170.845h242.836c2.391,0,4.329,1.938,4.329,4.328l0,0
				c0,2.391-1.938,4.329-4.329,4.329H1.742c-2.391,0-4.328-1.938-4.328-4.329l0,0C-2.586,172.783-0.649,170.845,1.742,170.845z"/>
			<path id="XMLID_982_" fill="#1628B2" d="M104.784,183.288h80.63c2.391,0,4.329,1.938,4.329,4.328v19.305
				c0,2.391-1.938,4.329-4.329,4.329h-80.63c-2.391,0-4.329-1.938-4.329-4.329v-19.305
				C100.456,185.226,102.394,183.288,104.784,183.288z"/>
			<path id="XMLID_981_" fill="#1628B2" d="M40.343,261.538H-69.011c-2.391,0-4.329-1.938-4.329-4.329v-69.424
				c0-2.39,1.938-4.328,4.329-4.328H40.343c2.391,0,4.329,1.938,4.329,4.328v69.424C44.672,259.6,42.734,261.538,40.343,261.538z"/>
		</g>
		<g id="XMLID_960_" clip-path="url(#SVGID_2_)">
			<path id="XMLID_978_" fill="#294CCC" d="M380.264,547.537H239.071c-2.391,0-4.328-1.938-4.328-4.327v-69.552
				c0-2.391,1.938-4.329,4.329-4.329h141.19c2.391,0,4.329,1.938,4.329,4.329v69.552C384.591,545.6,382.654,547.537,380.264,547.537
				z"/>
			<path id="XMLID_975_" fill="#1628B2" d="M153.92,473.633h181.353c2.39,0,4.328,1.938,4.328,4.327l0,0
				c0,2.392-1.938,4.329-4.329,4.329h-181.35c-2.391,0-4.329-1.938-4.329-4.329l0,0C149.592,475.57,151.53,473.633,153.92,473.633z"
				/>
			<path id="XMLID_974_" fill="#1628B2" d="M364.438,487.7h122.7c2.39,0,4.328,1.938,4.328,4.328v31.104
				c0,2.391-1.938,4.329-4.329,4.329H364.44c-2.391,0-4.329-1.938-4.329-4.329v-31.104C360.111,489.638,362.048,487.7,364.438,487.7
				z"/>
			<path id="XMLID_973_" fill="#1628B2" d="M291.309,537.89h108.795c2.39,0,4.328,1.938,4.328,4.327v110.454
				c0,2.391-1.938,4.329-4.329,4.329H291.311c-2.391,0-4.329-1.938-4.329-4.329V542.217
				C286.981,539.827,288.919,537.89,291.309,537.89z"/>
			<path id="XMLID_972_" fill="#1628B2" d="M217.885,530.134h49.633c2.39,0,4.328,1.938,4.328,4.328v89.392
				c0,2.392-1.938,4.329-4.329,4.329h-49.63c-2.391,0-4.329-1.938-4.329-4.329v-89.392
				C213.557,532.072,215.495,530.134,217.885,530.134z"/>
			<path id="XMLID_968_" fill="#1628B2" d="M331.794,525.864h-40.485c-2.39,0-4.328-1.938-4.328-4.327l0,0
				c0-2.392,1.938-4.329,4.329-4.329h40.482c2.391,0,4.329,1.938,4.329,4.329l0,0C336.122,523.927,334.184,525.864,331.794,525.864z
				"/>
			<path id="XMLID_967_" fill="#294CCC" d="M301.643,552.394v50.821c0,2.39-1.938,4.327-4.328,4.327l0,0
				c-2.391,0-4.329-1.938-4.329-4.328v-50.819c0-2.391,1.938-4.329,4.329-4.329l0,0
				C299.706,548.065,301.643,550.003,301.643,552.394z"/>
		</g>
		<g id="XMLID_957_" clip-path="url(#SVGID_2_)">
			<path id="XMLID_959_" fill="#294CCC" d="M509.169,431.078H335.742c-2.391,0-4.329-1.938-4.329-4.329v-71.824
				c0-2.391,1.938-4.329,4.329-4.329h173.427c2.391,0,4.329,1.938,4.329,4.329v71.824
				C513.498,429.141,511.56,431.078,509.169,431.078z"/>
			<path id="XMLID_958_" fill="#1628B2" d="M300.661,303.254h210.642c2.391,0,4.329,1.938,4.329,4.329v45.013
				c0,2.391-1.938,4.329-4.329,4.329H300.661c-2.391,0-4.329-1.938-4.329-4.329v-45.013
				C296.332,305.192,298.271,303.254,300.661,303.254z"/>
		</g>
		<g id="XMLID_1198_" clip-path="url(#SVGID_2_)">
			
				<circle id="XMLID_1292_" fill="none" stroke="#94EAC4" stroke-width="1.9648" stroke-linecap="round" stroke-linejoin="round" stroke-miterlimit="10" cx="238.056" cy="175.173" r="4.328"/>
			
				<circle id="XMLID_1291_" fill="none" stroke="#94EAC4" stroke-width="1.9648" stroke-linecap="round" stroke-linejoin="round" stroke-miterlimit="10" cx="181.821" cy="202.826" r="4.328"/>
			
				<circle id="XMLID_1290_" fill="none" stroke="#94EAC4" stroke-width="1.9648" stroke-linecap="round" stroke-linejoin="round" stroke-miterlimit="10" cx="159.179" cy="202.021" r="4.328"/>
			
				<circle id="XMLID_1289_" fill="none" stroke="#94EAC4" stroke-width="1.9648" stroke-linecap="round" stroke-linejoin="round" stroke-miterlimit="10" cx="109.805" cy="199.517" r="4.328"/>
			
				<circle id="XMLID_1288_" fill="none" stroke="#94EAC4" stroke-width="1.9648" stroke-linecap="round" stroke-linejoin="round" stroke-miterlimit="10" cx="123.292" cy="237.604" r="4.328"/>
			
				<circle id="XMLID_1287_" fill="none" stroke="#94EAC4" stroke-width="1.9648" stroke-linecap="round" stroke-linejoin="round" stroke-miterlimit="10" cx="52.562" cy="235.01" r="4.328"/>
			
				<circle id="XMLID_1286_" fill="none" stroke="#94EAC4" stroke-width="1.9648" stroke-linecap="round" stroke-linejoin="round" stroke-miterlimit="10" cx="62.101" cy="225.471" r="4.328"/>
			
				<circle id="XMLID_1285_" fill="none" stroke="#94EAC4" stroke-width="1.9648" stroke-linecap="round" stroke-linejoin="round" stroke-miterlimit="10" cx="98.657" cy="235.714" r="4.328"/>
			
				<circle id="XMLID_1284_" fill="none" stroke="#94EAC4" stroke-width="1.9648" stroke-linecap="round" stroke-linejoin="round" stroke-miterlimit="10" cx="86.931" cy="227.057" r="4.328"/>
			
				<circle id="XMLID_1283_" fill="none" stroke="#94EAC4" stroke-width="1.9648" stroke-linecap="round" stroke-linejoin="round" stroke-miterlimit="10" cx="55.613" cy="252.735" r="4.328"/>
			
				<circle id="XMLID_1282_" fill="none" stroke="#94EAC4" stroke-width="1.9648" stroke-linecap="round" stroke-linejoin="round" stroke-miterlimit="10" cx="45.835" cy="265.703" r="4.328"/>
			
				<circle id="XMLID_1281_" fill="none" stroke="#94EAC4" stroke-width="1.9648" stroke-linecap="round" stroke-linejoin="round" stroke-miterlimit="10" cx="35.362" cy="277.803" r="4.328"/>
			
				<path id="XMLID_1280_" fill="none" stroke="#94EAC4" stroke-width="1.9648" stroke-linecap="round" stroke-linejoin="round" stroke-miterlimit="10" d="
				M26.706,287.36c0,2.391,1.938,4.328,4.328,4.328s4.328-1.938,4.328-4.328v-5.229"/>
			
				<circle id="XMLID_1274_" fill="none" stroke="#94EAC4" stroke-width="1.9648" stroke-linecap="round" stroke-linejoin="round" stroke-miterlimit="10" cx="126.248" cy="199.518" r="4.328"/>
			
				<path id="XMLID_1269_" fill="none" stroke="#94EAC4" stroke-width="1.9648" stroke-linecap="round" stroke-linejoin="round" stroke-miterlimit="10" d="
				M-11.142,293.225c0,2.612,2.118,4.73,4.731,4.73s4.731-2.118,4.731-4.73v-24.27c0-2.612,2.118-4.73,4.731-4.73
				s4.731,2.118,4.731,4.73v24.27"/>
			
				<path id="XMLID_1268_" fill="none" stroke="#94EAC4" stroke-width="1.9648" stroke-linecap="round" stroke-linejoin="round" stroke-miterlimit="10" d="
				M7.782,293.225c0,2.612,2.118,4.73,4.731,4.73c2.613,0,4.731-2.118,4.731-4.73v-24.27c0-2.612,2.118-4.73,4.731-4.73
				s4.731,2.118,4.731,4.73v18.405"/>
			
				<polyline id="XMLID_1221_" fill="none" stroke="#94EAC4" stroke-width="1.9648" stroke-linecap="round" stroke-linejoin="round" stroke-miterlimit="10" points="
				-66.881,261.538 -36.316,230.973 41.949,230.973 57.176,215.745 101.547,215.745 120.293,234.491 			"/>
			
				<polyline id="XMLID_1220_" fill="none" stroke="#94EAC4" stroke-width="1.9648" stroke-linecap="round" stroke-linejoin="round" stroke-miterlimit="10" points="
				-66.405,273.475 -32.974,240.042 42.919,240.042 52.562,249.685 			"/>
			
				<polyline id="XMLID_1219_" fill="none" stroke="#94EAC4" stroke-width="1.9648" stroke-linecap="round" stroke-linejoin="round" stroke-miterlimit="10" points="
				-66.777,250.038 -39.597,222.858 38.667,222.858 53.895,207.631 101.547,207.631 105.549,211.633 114.133,211.633 
				123.188,202.577 			"/>
			
				<polyline id="XMLID_1218_" fill="none" stroke="#94EAC4" stroke-width="1.9648" stroke-linecap="round" stroke-linejoin="round" stroke-miterlimit="10" points="
				-70.058,241.923 -42.878,214.743 35.386,214.743 50.613,199.517 105.477,199.517 			"/>
			
				<polyline id="XMLID_1217_" fill="none" stroke="#94EAC4" stroke-width="1.9648" stroke-linecap="round" stroke-linejoin="round" stroke-miterlimit="10" points="
				-73.339,233.809 -46.16,206.629 32.104,206.629 47.332,191.402 159.179,191.402 159.179,197.456 			"/>
			
				<path id="XMLID_1216_" fill="none" stroke="#94EAC4" stroke-width="1.9648" stroke-linecap="round" stroke-linejoin="round" stroke-miterlimit="10" d="
				M-76.621,225.694l27.18-27.18h78.264l15.227-15.227h118.406c1.637,0.744,16.055,16.055,16.055,16.055"/>
			
				<polyline id="XMLID_1215_" fill="none" stroke="#94EAC4" stroke-width="1.9648" stroke-linecap="round" stroke-linejoin="round" stroke-miterlimit="10" points="
				-79.902,217.58 -52.722,190.4 -9.955,190.4 5.272,175.173 233.728,175.173 			"/>
			
				<polyline id="XMLID_1214_" fill="none" stroke="#94EAC4" stroke-width="11.1338" stroke-linecap="round" stroke-linejoin="round" stroke-miterlimit="10" points="
				38.346,252.735 -27.229,252.735 -69.545,295.052 			"/>
			<circle id="XMLID_1213_" fill="#1628B2" cx="38.346" cy="252.735" r="3.338"/>
			<circle id="XMLID_1212_" fill="#2727CC" cx="0.774" cy="188.429" r="2.051"/>
			<circle id="XMLID_1211_" fill="#2727CC" cx="25.396" cy="193.453" r="2.051"/>
			<circle id="XMLID_1210_" fill="#2727CC" cx="58.622" cy="294.656" r="2.051"/>
			<circle id="XMLID_1206_" fill="#2727CC" cx="129.672" cy="217.58" r="2.051"/>
			<circle id="XMLID_1205_" fill="#2727CC" cx="145.175" cy="197.249" r="2.051"/>
			<circle id="XMLID_1204_" fill="#2727CC" cx="121.92" cy="227.745" r="2.051"/>
			
				<polyline id="XMLID_1203_" fill="none" stroke="#94EAC4" stroke-width="1.9648" stroke-linecap="round" stroke-linejoin="round" stroke-miterlimit="10" points="
				-66.405,320.573 -38.608,320.573 -30.324,312.288 21.209,312.288 45.835,287.662 45.835,270.031 			"/>
		</g>
		<g id="XMLID_909_" clip-path="url(#SVGID_2_)">
			
				<circle id="XMLID_1185_" fill="none" stroke="#94EAC4" stroke-width="1.9648" stroke-linecap="round" stroke-linejoin="round" stroke-miterlimit="10" cx="160.841" cy="477.961" r="4.328"/>
			
				<circle id="XMLID_1146_" fill="none" stroke="#94EAC4" stroke-width="1.9648" stroke-linecap="round" stroke-linejoin="round" stroke-miterlimit="10" cx="241.828" cy="500.269" r="4.328"/>
			
				<circle id="XMLID_1145_" fill="none" stroke="#94EAC4" stroke-width="1.9648" stroke-linecap="round" stroke-linejoin="round" stroke-miterlimit="10" cx="260.782" cy="494.111" r="4.328"/>
			
				<circle id="XMLID_1144_" fill="none" stroke="#94EAC4" stroke-width="1.9648" stroke-linecap="round" stroke-linejoin="round" stroke-miterlimit="10" cx="262.557" cy="569.374" r="4.328"/>
			
				<circle id="XMLID_1136_" fill="none" stroke="#94EAC4" stroke-width="1.9648" stroke-linecap="round" stroke-linejoin="round" stroke-miterlimit="10" cx="244.188" cy="518.33" r="4.328"/>
			
				<circle id="XMLID_1135_" fill="none" stroke="#94EAC4" stroke-width="1.9648" stroke-linecap="round" stroke-linejoin="round" stroke-miterlimit="10" cx="222.877" cy="538.428" r="4.328"/>
			
				<circle id="XMLID_1129_" fill="none" stroke="#94EAC4" stroke-width="1.9648" stroke-linecap="round" stroke-linejoin="round" stroke-miterlimit="10" cx="271.213" cy="518.33" r="4.328"/>
			
				<circle id="XMLID_1128_" fill="none" stroke="#94EAC4" stroke-width="1.9648" stroke-linecap="round" stroke-linejoin="round" stroke-miterlimit="10" cx="373.658" cy="526.314" r="4.328"/>
			
				<circle id="XMLID_1127_" fill="none" stroke="#94EAC4" stroke-width="1.9648" stroke-linecap="round" stroke-linejoin="round" stroke-miterlimit="10" cx="316.4" cy="521.536" r="4.328"/>
			
				<circle id="XMLID_1125_" fill="none" stroke="#94EAC4" stroke-width="1.9648" stroke-linecap="round" stroke-linejoin="round" stroke-miterlimit="10" cx="294.926" cy="521.536" r="4.328"/>
			
				<circle id="XMLID_1124_" fill="none" stroke="#94EAC4" stroke-width="1.9648" stroke-linecap="round" stroke-linejoin="round" stroke-miterlimit="10" cx="297.315" cy="536.505" r="4.328"/>
			
				<circle id="XMLID_1122_" fill="none" stroke="#94EAC4" stroke-width="1.9648" stroke-linecap="round" stroke-linejoin="round" stroke-miterlimit="10" cx="350.961" cy="558.979" r="4.328"/>
			
				<circle id="XMLID_1121_" fill="none" stroke="#94EAC4" stroke-width="1.9648" stroke-linecap="round" stroke-linejoin="round" stroke-miterlimit="10" cx="320.677" cy="534.919" r="4.328"/>
			
				<circle id="XMLID_1119_" fill="none" stroke="#94EAC4" stroke-width="1.9648" stroke-linecap="round" stroke-linejoin="round" stroke-miterlimit="10" cx="318.208" cy="550.323" r="4.328"/>
			
				<circle id="XMLID_1118_" fill="none" stroke="#94EAC4" stroke-width="1.9648" stroke-linecap="round" stroke-linejoin="round" stroke-miterlimit="10" cx="341.096" cy="543.575" r="4.328"/>
			
				<polyline id="XMLID_1067_" fill="none" stroke="#94EAC4" stroke-width="1.9648" stroke-linecap="round" stroke-linejoin="round" stroke-miterlimit="10" points="
				165.079,478.042 360.106,477.933 375.341,493.151 418.109,493.128 445.304,520.292 445.378,653.212 426.453,672.159 
				426.526,802.983 			"/>
			
				<polyline id="XMLID_1034_" fill="none" stroke="#94EAC4" stroke-width="1.9648" stroke-linecap="round" stroke-linejoin="round" stroke-miterlimit="10" points="
				317.304,646.854 321.146,650.692 366.951,650.667 377.612,639.994 377.598,614.608 437.38,554.759 437.363,523.705 
				414.836,501.204 372.058,501.228 356.833,486.01 255.823,486.065 244.791,497.11 			"/>
			
				<polyline id="XMLID_1031_" fill="none" stroke="#94EAC4" stroke-width="1.9648" stroke-linecap="round" stroke-linejoin="round" stroke-miterlimit="10" points="
				265.028,494.136 353.561,494.086 368.664,509.173 411.444,509.148 429.566,527.25 429.579,551.354 391.339,589.637 
				372.366,589.647 358.958,576.254 302.182,576.286 297.016,581.458 297.039,622.659 286.043,633.667 266.33,633.678 
				241.809,658.226 241.826,688.802 219.061,711.593 			"/>
			<circle id="XMLID_1021_" fill="#2727CC" cx="330.918" cy="538.428" r="2.051"/>
			
				<path id="XMLID_1010_" fill="none" stroke="#94EAC4" stroke-width="1.9648" stroke-linecap="round" stroke-linejoin="round" stroke-miterlimit="10" d="
				M479.827,507.782c0,0-9.155,9.226-9.974,9.974l-114.321-0.219l-14.383-14.383H271.9l-9.344,9.344v52.548"/>
			
				<polyline id="XMLID_1008_" fill="none" stroke="#94EAC4" stroke-width="1.9648" stroke-linecap="round" stroke-linejoin="round" stroke-miterlimit="10" points="
				247.231,521.373 253.9,528.042 253.9,560.491 240.69,573.702 222.877,573.702 222.877,543.071 			"/>
			
				<polygon id="XMLID_1007_" fill="#94EAC4" stroke="#94EAC4" stroke-width="1.9648" stroke-linecap="round" stroke-linejoin="round" stroke-miterlimit="10" points="
				231.533,542.756 231.533,565.046 239.071,565.046 245.593,558.524 245.593,536.505 238.017,536.505 			"/>
			<circle id="XMLID_1006_" fill="#2727CC" cx="235.596" cy="550.775" r="2.051"/>
			<circle id="XMLID_1005_" fill="#2727CC" cx="235.596" cy="558.979" r="2.051"/>
			<circle id="XMLID_1004_" fill="#2727CC" cx="241.836" cy="542.571" r="2.051"/>
			<circle id="XMLID_1003_" fill="#2727CC" cx="253.901" cy="509.101" r="2.051"/>
			<circle id="XMLID_1001_" fill="#2727CC" cx="241.836" cy="550.775" r="2.051"/>
			
				<polyline id="XMLID_1000_" fill="none" stroke="#94EAC4" stroke-width="1.9648" stroke-linecap="round" stroke-linejoin="round" stroke-miterlimit="10" points="
				462.331,532.891 462.331,592.276 425.535,592.276 359.073,525.814 350.237,525.814 337.173,512.751 279.415,512.751 
				279.415,616.499 			"/>
			
				<polyline id="XMLID_999_" fill="none" stroke="#94EAC4" stroke-width="1.9648" stroke-linecap="round" stroke-linejoin="round" stroke-miterlimit="10" points="
				405.888,527.021 418.809,527.021 418.809,549.201 406.552,561.459 379.848,534.755 345.136,534.755 331.917,521.536 
				320.728,521.536 			"/>
			
				<polyline id="XMLID_997_" fill="none" stroke="#94EAC4" stroke-width="1.9648" stroke-linecap="round" stroke-linejoin="round" stroke-miterlimit="10" points="
				297.314,540.833 297.314,564.312 300.637,567.634 362.684,567.634 375.666,580.615 386.785,580.615 394.23,573.171 
				364.421,543.361 359.246,543.361 355.354,547.254 373.617,565.517 			"/>
			
				<polyline id="XMLID_996_" fill="none" stroke="#94EAC4" stroke-width="1.9648" stroke-linecap="round" stroke-linejoin="round" stroke-miterlimit="10" points="
				346.633,558.979 306.241,558.979 306.241,548.919 317.271,537.89 			"/>
			
				<polyline id="XMLID_995_" fill="none" stroke="#94EAC4" stroke-width="1.9648" stroke-linecap="round" stroke-linejoin="round" stroke-miterlimit="10" points="
				322.536,550.323 335.09,550.323 338.432,546.981 			"/>
		</g>
		<g id="XMLID_702_" clip-path="url(#SVGID_2_)">
			
				<circle id="XMLID_752_" fill="none" stroke="#94EAC4" stroke-width="1.9648" stroke-linecap="round" stroke-linejoin="round" stroke-miterlimit="10" cx="359.887" cy="423.122" r="4.328"/>
			
				<circle id="XMLID_746_" fill="none" stroke="#94EAC4" stroke-width="1.9648" stroke-linecap="round" stroke-linejoin="round" stroke-miterlimit="10" cx="340.998" cy="377.31" r="4.328"/>
			
				<circle id="XMLID_741_" fill="none" stroke="#94EAC4" stroke-width="1.9648" stroke-linecap="round" stroke-linejoin="round" stroke-miterlimit="10" cx="308.339" cy="346.669" r="4.328"/>
			<circle id="XMLID_740_" fill="#2727CC" cx="366.712" cy="413.399" r="2.051"/>
			<circle id="XMLID_737_" fill="#2727CC" cx="353.508" cy="413.399" r="2.051"/>
			
				<path id="XMLID_736_" fill="none" stroke="#94EAC4" stroke-width="1.9648" stroke-linecap="round" stroke-linejoin="round" stroke-miterlimit="10" d="
				M327.263,346.266c0,2.613-2.118,4.731-4.731,4.731c-2.613,0-4.731-2.118-4.731-4.731v-32.032c0-2.613-2.118-4.731-4.731-4.731
				s-4.731,2.118-4.731,4.731v28.107"/>
			
				<path id="XMLID_735_" fill="none" stroke="#94EAC4" stroke-width="1.9648" stroke-linecap="round" stroke-linejoin="round" stroke-miterlimit="10" d="
				M346.132,346.266c0,2.613-2.118,4.731-4.731,4.731s-4.731-2.118-4.731-4.731v-32.032c0-2.613-2.118-4.731-4.731-4.731
				s-4.731,2.118-4.731,4.731v32.032"/>
			
				<path id="XMLID_734_" fill="none" stroke="#94EAC4" stroke-width="1.9648" stroke-linecap="round" stroke-linejoin="round" stroke-miterlimit="10" d="
				M365.056,346.266c0,2.613-2.118,4.731-4.731,4.731s-4.731-2.118-4.731-4.731v-32.032c0-2.613-2.118-4.731-4.731-4.731
				c-2.613,0-4.731,2.118-4.731,4.731v32.032"/>
			
				<path id="XMLID_733_" fill="none" stroke="#94EAC4" stroke-width="1.9648" stroke-linecap="round" stroke-linejoin="round" stroke-miterlimit="10" d="
				M383.98,346.266c0,2.613-2.118,4.731-4.731,4.731c-2.613,0-4.731-2.118-4.731-4.731v-32.032c0-2.613-2.118-4.731-4.731-4.731
				s-4.731,2.118-4.731,4.731v32.032"/>
			
				<polyline id="XMLID_726_" fill="none" stroke="#94EAC4" stroke-width="1.9648" stroke-linecap="round" stroke-linejoin="round" stroke-miterlimit="10" points="
				468.636,312.208 422.456,312.208 413.17,321.493 432.912,341.235 432.906,361.188 416.784,377.31 345.335,377.31 			"/>
			
				<polyline id="XMLID_721_" fill="none" stroke="#94EAC4" stroke-width="1.9648" stroke-linecap="round" stroke-linejoin="round" stroke-miterlimit="10" points="
				528.423,357.892 487.19,357.892 477.383,348.083 416.174,348.083 395.838,368.419 346.122,368.419 337.467,359.764 
				389.717,359.764 394.108,355.373 			"/>
			
				<polyline id="XMLID_714_" fill="none" stroke="#94EAC4" stroke-width="1.9648" stroke-linecap="round" stroke-linejoin="round" stroke-miterlimit="10" points="
				372.14,423.138 409.986,423.138 417.439,415.685 417.439,385.966 351.805,385.966 341.553,396.218 341.553,423.264 
				354.423,423.264 			"/>
			
				<polyline id="XMLID_712_" fill="none" stroke="#94EAC4" stroke-width="1.9648" stroke-linecap="round" stroke-linejoin="round" stroke-miterlimit="10" points="
				372.14,423.138 380.812,414.467 408.823,414.467 408.823,395.165 350.46,395.165 350.46,405.661 392.316,405.661 			"/>
		</g>
		<g id="XMLID_602_" clip-path="url(#SVGID_2_)">
			<g id="XMLID_637_">
				<g id="XMLID_639_">
					<circle id="XMLID_647_" fill="#DC4B4B" cx="243.633" cy="74.656" r="7.758"/>
					<circle id="XMLID_646_" fill="#DC4B4B" cx="200.555" cy="66.855" r="7.758"/>
					<circle id="XMLID_645_" fill="#DC4B4B" cx="237.126" cy="62.164" r="7.758"/>
					<circle id="XMLID_644_" fill="#DC4B4B" cx="209.732" cy="91.59" r="7.758"/>
					<circle id="XMLID_643_" fill="#DC4B4B" cx="201.288" cy="81.757" r="10.298"/>
					<circle id="XMLID_642_" fill="#DC4B4B" cx="234.624" cy="86.536" r="10.298"/>
					<circle id="XMLID_641_" fill="#DC4B4B" cx="221.191" cy="89.617" r="10.298"/>
					<path id="XMLID_640_" fill="#DC4B4B" d="M240.971,66.855v-1.813c0-10.07-8.192-18.263-18.262-18.263h-2.472
						c-10.07,0-18.262,8.192-18.262,18.263v1.813H240.971z"/>
				</g>
				<path id="XMLID_638_" fill="#DC4B4B" d="M201.975,66.898v1.813c0,10.07,8.192,18.263,18.262,18.263h2.472
					c10.07,0,18.262-8.192,18.262-18.263v-1.813H201.975z"/>
			</g>
			
				<path id="XMLID_636_" fill="none" stroke="#45C1C1" stroke-width="3.9112" stroke-linecap="round" stroke-linejoin="round" stroke-miterlimit="10" d="
				M251.66,122.773c23.46-0.729,38.471,22.397,38.471,22.397l3.946-4.087"/>
			
				<path id="XMLID_635_" fill="none" stroke="#45C1C1" stroke-width="3.9112" stroke-linecap="round" stroke-linejoin="round" stroke-miterlimit="10" d="
				M242.065,125.776c20.711,25.704,0,41.844,0,41.844l5.681,2.619"/>
			<path id="XMLID_634_" fill="#45C1C1" d="M243.953,130.272l10.081-6.005c1.989-1.185,2.64-3.757,1.456-5.745l-1.937-3.252
				c-1.185-1.988-3.757-2.64-5.745-1.455l-10.081,6.005c-1.988,1.185-2.64,3.757-1.456,5.745l1.937,3.251
				C239.393,130.806,241.965,131.457,243.953,130.272z"/>
			<path id="XMLID_633_" fill="#333333" d="M223.863,87.539l2.16-1.287c6.959-4.146,15.961-1.864,20.107,5.095l12.907,21.668
				c1.185,1.988,0.533,4.561-1.456,5.744l-20.161,12.01c-1.989,1.185-4.561,0.533-5.745-1.455l-12.907-21.668
				C214.623,100.687,216.904,91.685,223.863,87.539z"/>
			
				<path id="XMLID_632_" fill="none" stroke="#333333" stroke-width="3.9112" stroke-linecap="round" stroke-linejoin="round" stroke-miterlimit="10" d="
				M219.08,96.706c-12.733,29.07-36.399,5.745-36.399,5.745"/>
			<circle id="XMLID_631_" fill="#E3DAFC" cx="182.681" cy="102.451" r="1.956"/>
			
				<path id="XMLID_630_" fill="none" stroke="#333333" stroke-width="3.9112" stroke-linecap="round" stroke-linejoin="round" stroke-miterlimit="10" d="
				M238.462,87.051c26.071,23.21,45.134,9.44,45.134,9.44"/>
			<circle id="XMLID_629_" fill="#E3DAFC" cx="283.596" cy="96.491" r="1.955"/>
			<path id="XMLID_628_" fill="#E3DAFC" d="M225.711,87.363l2.422-0.674c7.804-2.171,12.37-10.258,10.199-18.062l-2.546-9.151
				c-2.171-7.804-10.257-12.37-18.062-10.198l-2.422,0.674c-7.804,2.171-12.371,10.257-10.199,18.062l2.546,9.15
				C209.82,84.968,217.907,89.534,225.711,87.363z"/>
			<path id="XMLID_627_" fill="#DC4B4B" d="M221.68,65.378c6.466-1.69,12.646-3.924,18.503-6.638
				c-3.51-8.12-12.513-12.689-21.337-10.383l-3.023,0.79c-8.824,2.307-14.44,10.696-13.528,19.496
				C208.732,68.144,215.214,67.068,221.68,65.378z"/>
			<circle id="XMLID_626_" fill="#2727CC" cx="223.031" cy="73.063" r="1.401"/>
			<circle id="XMLID_624_" fill="#2727CC" cx="231.058" cy="70.453" r="2.132"/>
			
				<line id="XMLID_623_" fill="none" stroke="#DC4B4B" stroke-width="1.6762" stroke-linecap="round" stroke-linejoin="round" stroke-miterlimit="10" x1="221.191" y1="81.562" x2="234.137" y2="76.484"/>
			<path id="XMLID_622_" fill="#DC4B4B" d="M203.813,59.094c4.071,4.55,6.547,10.559,6.547,17.146
				c0,6.044-2.085,11.602-5.574,15.992"/>
			<g id="XMLID_603_">
				
					<circle id="XMLID_621_" fill="#F6F6F4" stroke="#333333" stroke-width="1.6762" stroke-linecap="round" stroke-linejoin="round" stroke-miterlimit="10" cx="223.031" cy="56.478" r="5.867"/>
				
					<line id="XMLID_620_" fill="none" stroke="#333333" stroke-width="1.6762" stroke-linecap="round" stroke-linejoin="round" stroke-miterlimit="10" x1="217.625" y1="58.759" x2="215.281" y2="59.748"/>
				
					<line id="XMLID_619_" fill="none" stroke="#333333" stroke-width="1.6762" stroke-linecap="round" stroke-linejoin="round" stroke-miterlimit="10" x1="242.279" y1="48.356" x2="244.624" y2="47.368"/>
				
					<polyline id="XMLID_618_" fill="none" stroke="#333333" stroke-width="1.6762" stroke-linecap="round" stroke-linejoin="round" stroke-miterlimit="10" points="
					215.281,59.748 208.202,69.92 209.948,71.957 				"/>
				
					<line id="XMLID_617_" fill="none" stroke="#333333" stroke-width="1.6762" stroke-linecap="round" stroke-linejoin="round" stroke-miterlimit="10" x1="244.624" y1="47.368" x2="242.742" y2="50.071"/>
				
					<line id="XMLID_616_" fill="none" stroke="#333333" stroke-width="1.6762" stroke-linecap="round" stroke-linejoin="round" stroke-miterlimit="10" x1="232.298" y1="52.312" x2="228.437" y2="54.197"/>
				
					<circle id="XMLID_604_" fill="#F6F6F4" stroke="#333333" stroke-width="1.6762" stroke-linecap="round" stroke-linejoin="round" stroke-miterlimit="10" cx="236.969" cy="50.357" r="5.911"/>
			</g>
		</g>
	</g>
</g>
</svg>
