<?xml version="1.0" encoding="utf-8"?>
<!-- Generator: Adobe Illustrator 16.0.0, SVG Export Plug-In . SVG Version: 6.00 Build 0)  -->
<!DOCTYPE svg PUBLIC "-//W3C//DTD SVG 1.1//EN" "http://www.w3.org/Graphics/SVG/1.1/DTD/svg11.dtd">
<svg version="1.1" id="Layer_1" xmlns="http://www.w3.org/2000/svg" xmlns:xlink="http://www.w3.org/1999/xlink" x="0px" y="0px"
	 width="160px" height="160px" viewBox="-4.5 -18.5 160 160" enable-background="new -4.5 -18.5 160 160" xml:space="preserve">
<title>Page 1</title>
<desc>Created with Sketch.</desc>
<g id="Page-1" transform="translate(5.000000, 325.000000)">
	<path id="Stroke-1" fill="none" stroke="#6867A6" stroke-width="4.939" d="M102.222-293.242c-2.135,8.804-9.815,18.77-6.555,27.549
		c1.789,4.812,7.139,7.367,11.949,5.707c3.306-1.139,5.496-3.972,5.964-7.194c2.484,2.203,6.043,3.053,9.349,1.914
		c4.811-1.66,7.263-6.906,5.473-11.718c-3.486-9.385-14.375-10.284-21.957-16.838c11.018,0.978,18.513,8.93,29.323,5.7
		c5.302-1.585,8.472-6.42,7.083-10.801c-0.953-3.01-3.813-5.021-7.229-5.472c2.564-2.238,3.762-5.462,2.808-8.471
		c-1.391-4.38-6.814-6.646-12.118-5.062c-11.144,3.332-12.414,14.55-21.715,21.339c2.299-11.195,14.315-17.864,12.239-28.672
		c-0.967-5.031-6.16-8.262-11.598-7.217c-3.736,0.718-6.617,3.268-7.741,6.425c-2.214-2.517-5.833-3.817-9.569-3.099
		c-5.438,1.045-9.064,5.971-8.098,11.001c2.063,10.736,15.516,12.46,21.862,21.872c-10.062-3.168-15.312-11.611-26.375-10.769
		c-5.518,0.419-9.79,4.231-9.546,8.513c0.17,2.941,2.426,5.338,5.608,6.416c-3.032,1.55-4.998,4.271-4.83,7.211
		c0.247,4.28,4.915,7.411,10.432,6.991c10.34-0.788,16.611-10.417,24.997-15.279L102.222-293.242z"/>
	<path id="Fill-3" fill="#6867A6" d="M97.589-288.095c-1.888,2.093-9.203,10.843-10.644,12.449
		c-6.185,6.894-12.943,17.069-12.53,26.329c0.052,1.149,0.082,1.808,0.082,1.808c1.978,0.709,4.229,0.476,6.05-0.624l0.292-0.179
		c-0.554-2.94-0.61-5.738-0.04-8.724c0.896-4.71,3.492-9.447,6.21-13.519c2.28-3.414,9.221-13.894,11.944-17.093L97.589-288.095z"/>
	<path id="Stroke-5" fill="none" stroke="#6867A6" stroke-width="3" d="M100.846-210.949c4.551,1.777,9.156,6.23,14.257,5.5
		c2.796-0.401,4.74-2.656,4.341-5.037c-0.273-1.636-1.582-2.904-3.279-3.409c1.453-0.958,2.285-2.532,2.012-4.169
		c-0.399-2.381-2.988-3.987-5.785-3.586c-5.453,0.781-7.076,5.755-11.419,8.69c1.679-5.026,6.771-7.796,6.146-13.103
		c-0.307-2.602-2.599-4.504-5.118-4.251c-1.733,0.174-3.12,1.322-3.722,2.867c-0.945-1.39-2.568-2.232-4.301-2.058
		c-2.521,0.254-4.316,2.57-4.008,5.172c0.645,5.471,6.596,7.061,9.31,11.982c-5.833-2.064-8.198-8.238-14.274-8.238
		c-2.828,0-5.122,2.123-5.122,4.74c0,1.799,1.082,3.362,2.677,4.166c-1.595,0.803-2.677,2.367-2.677,4.165
		c0,2.618,2.294,4.74,5.122,4.74c6.038,0,8.374-6.091,14.139-8.196c-2.766,4.387-7.893,6.07-8.588,11.279
		c-0.348,2.6,1.273,4.924,3.622,5.192c1.612,0.183,3.147-0.65,4.063-2.032c0.525,1.546,1.795,2.701,3.408,2.887
		c2.346,0.268,4.531-1.621,4.879-4.219c0.649-4.869-3.919-8.64-5.682-12.965V-210.949z"/>
	<path id="Fill-7" fill="#6867A6" d="M103.153-208.34c0.938,1.063,4.923,5.238,5.643,6.051c3.093,3.486,7.908,7.53,12.972,8.164
		c0.629,0.079,0.99,0.124,0.99,0.124c0.591-0.854,0.699-1.921,0.291-2.864l-0.066-0.152c-1.652-0.006-3.175-0.229-4.733-0.758
		c-2.462-0.838-4.761-2.465-6.686-4.089c-1.614-1.362-6.574-5.519-8.025-7.069L103.153-208.34z"/>
	<path id="Stroke-9" fill="none" stroke="#6867A6" stroke-width="4.283" d="M34.89-237.399c-1.998-7.286,0.313-16.387-5.457-22.195
		c-3.078-3.101-7.894-3.599-10.761-1.118c-1.966,1.706-2.504,4.379-1.648,6.887c-2.615-0.986-5.503-0.688-7.474,1.018
		c-2.865,2.484-2.694,7.01,0.385,10.109c6.17,6.216,14.714,3.776,22.826,7.031c-9.822,2.464-19.071-3.421-27.14,2.061
		c-3.776,2.567-4.705,7.436-2.07,10.876c1.809,2.364,4.829,3.438,7.766,3.047c-1.324,2.502-1.193,5.539,0.616,7.903
		c2.632,3.44,7.833,4.149,11.612,1.58c8.119-5.514,5.066-15.773,10.781-23.781c1.327,8.933-5.023,16.422-0.38,24.197
		c2.206,3.7,6.935,5.114,10.56,3.163c2.488-1.345,3.808-3.925,3.672-6.609c2.359,1.485,5.367,1.734,7.859,0.39
		c3.62-1.952,4.768-6.533,2.559-10.231c-4.502-7.541-14.093-6.56-21.396-11.644c8.758-0.083,15.932,4.981,24,1.059
		c4.141-2.01,5.982-6.47,4.123-9.961c-1.281-2.399-3.98-3.715-6.883-3.651c1.76-2.206,2.231-5.062,0.95-7.458
		c-1.862-3.494-6.727-4.693-10.866-2.684c-7.551,3.672-9.221,13.702-13.513,20.167L34.89-237.399z"/>
	<path id="Fill-11" fill="#6867A6" d="M36.342-241.14c0.354-3.132,2.635-12.438,3.37-15.477c0.875-3.626,2.213-7.57,4.498-10.684
		c1.447-1.973,3.138-3.536,5.194-4.943l-0.061-0.243c-0.378-1.503-1.514-2.72-3.055-3.268c0,0-0.408,0.361-1.119,0.991
		c-5.722,5.069-7.928,14.113-8.512,21.014c-0.134,1.606-1.182,10.107-1.354,12.207L36.342-241.14z"/>
</g>
</svg>
