<?xml version="1.0" encoding="utf-8"?>
<!-- Generator: Adobe Illustrator 16.0.0, SVG Export Plug-In . SVG Version: 6.00 Build 0)  -->
<!DOCTYPE svg PUBLIC "-//W3C//DTD SVG 1.1//EN" "http://www.w3.org/Graphics/SVG/1.1/DTD/svg11.dtd">
<svg version="1.1" id="Layer_1" xmlns="http://www.w3.org/2000/svg" xmlns:xlink="http://www.w3.org/1999/xlink" x="0px" y="0px"
	 width="355px" height="255px" viewBox="0 0 355 255" enable-background="new 0 0 355 255" xml:space="preserve">
<g id="XMLID_1090_">
	<circle id="XMLID_351_" fill="#D1D3D4" cx="224.37" cy="92.488" r="17.03"/>
	<circle id="XMLID_349_" fill="#D1D3D4" cx="131.417" cy="75.364" r="17.03"/>
	<circle id="XMLID_348_" fill="#D1D3D4" cx="215.177" cy="65.065" r="17.028"/>
	<circle id="XMLID_346_" fill="#D1D3D4" cx="149.952" cy="129.66" r="17.03"/>
	<circle id="XMLID_252_" fill="#D1D3D4" cx="173.99" cy="133.017" r="17.029"/>
	<circle id="XMLID_345_" fill="#D1D3D4" cx="131.417" cy="108.074" r="22.605"/>
	<circle id="XMLID_344_" fill="#D1D3D4" cx="204.762" cy="120.099" r="22.605"/>
	<path id="XMLID_146_" fill="#D1D3D4" d="M178.437,31.295h-5.425c-22.105,0-40.089,17.983-40.089,40.088v2.884v1.098v4.076
		c0,22.104,17.983,40.088,40.089,40.088h5.425c22.105,0,40.09-17.984,40.09-40.088v-4.076v-1.098v-2.884
		C218.526,49.278,200.542,31.295,178.437,31.295z"/>
	<path id="XMLID_320_" fill="#E6E7E8" d="M178.437,123.528h-5.425c-17.48,0-31.649-14.169-31.649-31.648V71.383
		c0-17.479,14.169-31.649,31.649-31.649h5.425c17.48,0,31.649,14.171,31.649,31.649V91.88
		C210.086,109.359,195.917,123.528,178.437,123.528z"/>
	<path id="XMLID_251_" fill="#D1D3D4" d="M175.724,67.23c12.303,0,24.349-1.103,36.046-3.209
		c-2.472-16.098-16.381-28.426-33.17-28.426h-5.753c-16.79,0-30.698,12.328-33.17,28.426C151.375,66.128,163.42,67.23,175.724,67.23
		z"/>
	
		<polyline id="XMLID_385_" fill="none" stroke="#D1D3D4" stroke-width="8.489" stroke-linecap="round" stroke-linejoin="round" stroke-miterlimit="10" points="
		165.606,218.912 165.606,314.582 153.276,314.582 	"/>
	
		<polyline id="XMLID_383_" fill="none" stroke="#D1D3D4" stroke-width="8.489" stroke-linecap="round" stroke-linejoin="round" stroke-miterlimit="10" points="
		187.436,218.912 187.436,314.582 175.105,314.582 	"/>
	<path id="XMLID_381_" fill="#D1D3D4" d="M189.052,225.243h-25.467c-5.023,0-9.096-4.072-9.096-9.096v-8.215
		c0-5.023,4.073-9.095,9.096-9.095h25.467c5.023,0,9.097,4.071,9.097,9.095v8.215C198.148,221.171,194.075,225.243,189.052,225.243z
		"/>
	<g id="XMLID_293_">
		
			<circle id="XMLID_376_" fill="#F6F6F4" stroke="#BCBEC0" stroke-width="3.6381" stroke-linecap="round" stroke-linejoin="round" stroke-miterlimit="10" cx="159.419" cy="85.952" r="12.734"/>
		
			<circle id="XMLID_375_" fill="#F6F6F4" stroke="#BCBEC0" stroke-width="3.6381" stroke-linecap="round" stroke-linejoin="round" stroke-miterlimit="10" cx="192.029" cy="85.952" r="12.733"/>
		
			<line id="XMLID_373_" fill="none" stroke="#BCBEC0" stroke-width="3.6381" stroke-linecap="round" stroke-linejoin="round" stroke-miterlimit="10" x1="172.153" y1="85.952" x2="179.296" y2="85.952"/>
		
			<line id="XMLID_367_" fill="none" stroke="#BCBEC0" stroke-width="3.6381" stroke-linecap="round" stroke-linejoin="round" stroke-miterlimit="10" x1="204.763" y1="85.952" x2="210.286" y2="85.952"/>
		
			<line id="XMLID_366_" fill="none" stroke="#BCBEC0" stroke-width="3.6381" stroke-linecap="round" stroke-linejoin="round" stroke-miterlimit="10" x1="146.686" y1="85.952" x2="141.162" y2="85.952"/>
	</g>
	<path id="XMLID_292_" fill="#BCBEC0" d="M179.047,123.243h-5.458c-17.581,0-31.833,14.253-31.833,31.834v54.74
		c0,5.022,4.072,9.095,9.095,9.095h50.934c5.022,0,9.095-4.072,9.095-9.095v-54.74C210.88,137.496,196.628,123.243,179.047,123.243z
		"/>
	
		<path id="XMLID_291_" fill="none" stroke="#BCBEC0" stroke-width="8.489" stroke-linecap="round" stroke-linejoin="round" stroke-miterlimit="10" d="
		M198.148,135.025c53.957,53.27,37.868-33.981,37.868-33.981"/>
	<circle id="XMLID_288_" fill="#E6E7E8" cx="236.018" cy="101.044" r="4.244"/>
	
		<path id="XMLID_398_" fill="none" stroke="#BCBEC0" stroke-width="8.489" stroke-linecap="round" stroke-linejoin="round" stroke-miterlimit="10" d="
		M154.468,135.025c-53.959,53.27-12.734,74.243-12.734,74.243"/>
	<circle id="XMLID_258_" fill="#E6E7E8" cx="141.734" cy="209.269" r="4.245"/>
	<circle id="XMLID_16_" fill="#BCBEC0" cx="195.663" cy="85.952" r="3.04"/>
	<circle id="XMLID_15_" fill="#BCBEC0" cx="165.606" cy="85.952" r="3.04"/>
	
		<path id="XMLID_11_" fill="none" stroke="#D1D3D4" stroke-width="9.0644" stroke-linecap="round" stroke-linejoin="round" stroke-miterlimit="10" d="
		M177.561,108.353c0,0-3.812-1.611-7.142,0"/>
</g>
<g id="XMLID_1092_">
	<path id="XMLID_399_" fill="#8D8CBF" d="M0.004,195.675c5.794,2.049,12.03,3.163,18.525,3.163l0,0
		c30.189,0,54.754-24.075,55.546-54.073l-10.832,3.613c-9.242,3.084-19.232-1.908-22.316-11.149l0,0
		c-3.083-9.242,1.909-19.232,11.149-22.315l22.019-7.347V79.53c0-30.688-24.877-55.565-55.566-55.565l0,0
		c-6.498,0-12.734,1.115-18.53,3.165"/>
	<path id="XMLID_512_" fill="#8D8CBF" d="M68.512,96.801h17.954c8.67,0,15.699-7.029,15.699-15.698l0,0
		c0-8.67-7.028-15.698-15.699-15.698H68.512c-8.67,0-15.698,7.028-15.698,15.698l0,0C52.813,89.771,59.841,96.801,68.512,96.801z"/>
	<path id="XMLID_508_" fill="#333333" d="M20.908,61.156L20.908,61.156c-0.532-2.832,1.332-5.561,4.164-6.094l24.524-4.612
		c2.832-0.532,5.56,1.332,6.093,4.165l0,0c0.533,2.831-1.332,5.56-4.164,6.092L27,65.32C24.168,65.853,21.441,63.989,20.908,61.156z
		"/>
	<circle id="XMLID_506_" fill="#333333" cx="47.603" cy="76.554" r="7.587"/>
	<path id="XMLID_505_" fill="#333333" d="M42.142,194.856L42.142,194.856c4.741,4.234,12.017,3.823,16.25-0.918l10.766-12.055
		c4.234-4.742,3.822-12.018-0.918-16.252l0,0c-4.742-4.233-12.018-3.821-16.251,0.919l-10.766,12.056
		C36.989,183.347,37.4,190.623,42.142,194.856z"/>
</g>
<g id="XMLID_1091_">
	<path id="XMLID_40_" fill="#E3DAFC" d="M354.997,26.055c-4.816-1.361-9.898-2.09-15.15-2.09l0,0
		c-30.688,0-55.565,24.878-55.565,55.565v58.95l43.947-8.306c5.049-0.954,9.915,2.365,10.869,7.414l0,0
		c0.954,5.049-2.365,9.915-7.414,10.869l-45.67,8.633c6.145,24.003,27.915,41.747,53.833,41.747l0,0
		c5.254,0,10.337-0.729,15.154-2.092"/>
	<path id="XMLID_501_" fill="#333333" d="M264.853,128.338L264.853,128.338c-5.584-3.037-7.647-10.026-4.607-15.61l7.577-13.926
		c3.039-5.584,10.027-7.646,15.611-4.608l0,0c5.583,3.039,7.646,10.027,4.608,15.611l-7.579,13.926
		C277.425,129.314,270.435,131.378,264.853,128.338z"/>
	<path id="XMLID_504_" fill="#333333" d="M344.638,60.754L344.638,60.754c0.808-4.289-2.015-8.421-6.304-9.227l-20.427-3.842
		c-4.288-0.807-8.419,2.016-9.226,6.305l0,0c-0.807,4.289,2.016,8.418,6.305,9.226l20.427,3.842
		C339.701,67.863,343.832,65.041,344.638,60.754z"/>
	<path id="XMLID_400_" fill="#E3DAFC" d="M299.223,96.801h-27.312c-8.669,0-15.698-7.029-15.698-15.698l0,0
		c0-8.67,7.029-15.698,15.698-15.698h27.312c8.669,0,15.698,7.028,15.698,15.698l0,0C314.921,89.771,307.892,96.801,299.223,96.801z
		"/>
	<path id="XMLID_477_" fill="#333333" d="M320.062,81.573c-5.099,0-9.982-0.918-14.5-2.59c0.891,7.224,7.037,12.819,14.5,12.819
		c7.466,0,13.611-5.596,14.501-12.819C330.047,80.655,325.163,81.573,320.062,81.573z"/>
	<path id="XMLID_503_" fill="#333333" d="M302.534,128.608L302.534,128.608c5.583-3.038,7.646-10.026,4.608-15.61l-7.726-14.196
		c-3.038-5.584-10.027-7.646-15.61-4.608l0,0c-5.584,3.039-7.647,10.027-4.609,15.611l7.727,14.196
		C289.962,129.584,296.951,131.647,302.534,128.608z"/>
</g>
<g id="XMLID_1093_">
	
		<circle id="XMLID_295_" fill="none" stroke="#58D68B" stroke-width="9.0644" stroke-linecap="round" stroke-linejoin="round" stroke-miterlimit="10" cx="144.499" cy="172.165" r="38.842"/>
	
		<polyline id="XMLID_8_" fill="none" stroke="#58D68B" stroke-width="9.0644" stroke-linecap="round" stroke-linejoin="round" stroke-miterlimit="10" points="
		117.034,144.7 100.21,127.876 69.366,127.876 	"/>
</g>
<g id="XMLID_1094_">
	
		<circle id="XMLID_365_" fill="none" stroke="#58D68B" stroke-width="9.0644" stroke-linecap="round" stroke-linejoin="round" stroke-miterlimit="10" cx="223.805" cy="149.29" r="25.195"/>
	
		<line id="XMLID_364_" fill="none" stroke="#58D68B" stroke-width="9.0644" stroke-linecap="round" stroke-linejoin="round" stroke-miterlimit="10" x1="249" y1="149.29" x2="277.796" y2="149.29"/>
</g>
</svg>
