<?xml version="1.0" encoding="utf-8"?>
<!-- Generator: Adobe Illustrator 16.0.0, SVG Export Plug-In . SVG Version: 6.00 Build 0)  -->
<!DOCTYPE svg PUBLIC "-//W3C//DTD SVG 1.1//EN" "http://www.w3.org/Graphics/SVG/1.1/DTD/svg11.dtd">
<svg version="1.1" id="Layer_1" xmlns="http://www.w3.org/2000/svg" xmlns:xlink="http://www.w3.org/1999/xlink" x="0px" y="0px"
	 width="355px" height="255px" viewBox="0 0 355 255" enable-background="new 0 0 355 255" xml:space="preserve">
<g id="XMLID_17_">
	
		<circle id="XMLID_540_" fill="none" stroke="#E4EFE9" stroke-width="1.241" stroke-linecap="round" stroke-linejoin="round" stroke-miterlimit="10" cx="340.188" cy="30.259" r="3.522"/>
	
		<circle id="XMLID_548_" fill="none" stroke="#E4EFE9" stroke-width="1.241" stroke-linecap="round" stroke-linejoin="round" stroke-miterlimit="10" cx="176.064" cy="34.889" r="3.522"/>
	
		<circle id="XMLID_480_" fill="none" stroke="#E4EFE9" stroke-width="1.241" stroke-linecap="round" stroke-linejoin="round" stroke-miterlimit="10" cx="53.637" cy="24.108" r="3.523"/>
	
		<polyline id="XMLID_546_" fill="none" stroke="#E4EFE9" stroke-width="1.241" stroke-linecap="round" stroke-linejoin="round" stroke-miterlimit="10" points="
		340.188,33.781 340.188,90.563 325.221,105.531 325.221,117.073 355,117.073 	"/>
	
		<polyline id="XMLID_430_" fill="none" stroke="#E4EFE9" stroke-width="1.241" stroke-linecap="round" stroke-linejoin="round" stroke-miterlimit="10" points="
		172.542,37.906 128.959,81.487 128.959,109.274 23.709,109.274 0,132.983 	"/>
	
		<polyline id="XMLID_481_" fill="none" stroke="#E4EFE9" stroke-width="1.241" stroke-linecap="round" stroke-linejoin="round" stroke-miterlimit="10" points="
		51.009,26.735 13.285,64.459 13.285,94.627 0,107.913 	"/>
	
		<circle id="XMLID_428_" fill="none" stroke="#DAEDE4" stroke-width="2.482" stroke-linecap="round" stroke-linejoin="round" stroke-miterlimit="10" cx="47.958" cy="208.52" r="4.863"/>
	
		<circle id="XMLID_453_" fill="none" stroke="#DAEDE4" stroke-width="2.482" stroke-linecap="round" stroke-linejoin="round" stroke-miterlimit="10" cx="189.042" cy="139.062" r="4.863"/>
	
		<polyline id="XMLID_429_" fill="none" stroke="#DAEDE4" stroke-width="2.482" stroke-linecap="round" stroke-linejoin="round" stroke-miterlimit="10" points="
		52.821,208.52 140.655,208.52 191.498,157.677 355,157.677 	"/>
	
		<polyline id="XMLID_454_" fill="none" stroke="#DAEDE4" stroke-width="2.482" stroke-linecap="round" stroke-linejoin="round" stroke-miterlimit="10" points="
		185.676,142.428 134.068,194.036 34.296,194.036 34.296,68.773 72.587,30.481 72.587,0 	"/>
	
		<polyline id="XMLID_2_" fill="none" stroke="#DAEDE4" stroke-width="2.482" stroke-linecap="round" stroke-linejoin="round" stroke-miterlimit="10" points="
		86.973,0 86.973,36.283 48.646,74.61 48.646,179.552 128.525,179.552 153.396,154.684 153.396,77.038 199.298,31.134 199.298,0 	
		"/>
	
		<polyline id="XMLID_6_" fill="none" stroke="#DAEDE4" stroke-width="2.482" stroke-linecap="round" stroke-linejoin="round" stroke-miterlimit="10" points="
		355,142.428 298.869,142.428 298.869,94.627 328.805,64.693 328.805,29.145 299.66,0.002 	"/>
	<path id="XMLID_733_" fill="#F6F6F4" d="M302.623,230.549H178.868c-4.549,0-8.239-3.688-8.239-8.238v-23.903
		c0-4.552,3.69-8.239,8.239-8.239h123.755c4.55,0,8.238,3.688,8.238,8.239v23.903C310.861,226.859,307.173,230.549,302.623,230.549z
		"/>
	<path id="XMLID_732_" fill="#F0F0F0" d="M264.15,244.449H22.852c-4.551,0-8.239-3.688-8.239-8.239v-4.957
		c0-4.551,3.688-8.239,8.239-8.239H264.15c4.549,0,8.236,3.688,8.236,8.239v4.957C272.389,240.762,268.699,244.449,264.15,244.449z"
		/>
	<path id="XMLID_489_" fill="#F0F0F0" d="M333.885,194.025H218.072c-4.551,0-8.238-3.688-8.238-8.239v-4.957
		c0-4.552,3.688-8.239,8.238-8.239h115.812c4.552,0,8.239,3.688,8.239,8.239v4.957C342.124,190.337,338.438,194.025,333.885,194.025
		z"/>
	
		<circle id="XMLID_731_" fill="none" stroke="#94EAC4" stroke-width="3.9863" stroke-linecap="round" stroke-linejoin="round" stroke-miterlimit="10" cx="315.673" cy="183.308" r="8.781"/>
	
		<circle id="XMLID_302_" fill="none" stroke="#94EAC4" stroke-width="3.9863" stroke-linecap="round" stroke-linejoin="round" stroke-miterlimit="10" cx="36.456" cy="233.73" r="8.781"/>
	
		<polyline id="XMLID_734_" fill="none" stroke="#94EAC4" stroke-width="3.9863" stroke-linecap="round" stroke-linejoin="round" stroke-miterlimit="10" points="
		45.237,233.73 184.102,233.73 184.102,183.309 306.893,183.309 	"/>
</g>
<g id="XMLID_634_">
	<circle id="XMLID_279_" fill="#DC4B4B" cx="125.938" cy="100.112" r="10.254"/>
	<circle id="XMLID_278_" fill="#DC4B4B" cx="70.5" cy="83.536" r="10.253"/>
	<circle id="XMLID_277_" fill="#DC4B4B" cx="120.305" cy="84.975" r="10.253"/>
	<circle id="XMLID_276_" fill="#DC4B4B" cx="80.21" cy="116.829" r="10.253"/>
	<circle id="XMLID_275_" fill="#DC4B4B" cx="69.273" cy="103.216" r="13.611"/>
	<circle id="XMLID_274_" fill="#DC4B4B" cx="112.359" cy="114.393" r="13.611"/>
	<path id="XMLID_273_" fill="#DC4B4B" d="M123.587,89.475l0.268-2.382c1.479-13.228-8.079-25.193-21.306-26.673l-3.247-0.363
		C86.074,58.578,74.11,68.135,72.63,81.363l-0.267,2.382L123.587,89.475z"/>
	<path id="XMLID_437_" fill="#333333" d="M96.402,112.185h-3.23c-10.413,0-18.853,8.441-18.853,18.852v32.419
		c0,2.976,2.412,5.385,5.387,5.385h30.162c2.976,0,5.387-2.409,5.387-5.385v-32.419C115.255,120.625,106.814,112.185,96.402,112.185
		z"/>
	
		<path id="XMLID_436_" fill="none" stroke="#333333" stroke-width="5.0272" stroke-linecap="round" stroke-linejoin="round" stroke-miterlimit="10" d="
		M107.714,119.163c31.789,37.79,8.196,25.778,8.196,25.778"/>
	<circle id="XMLID_434_" fill="#E3DAFC" cx="115.911" cy="144.941" r="2.513"/>
	
		<path id="XMLID_433_" fill="none" stroke="#333333" stroke-width="5.0272" stroke-linecap="round" stroke-linejoin="round" stroke-miterlimit="10" d="
		M81.859,119.163c-48.221,34.544-2.128,25.778-2.128,25.778"/>
	<circle id="XMLID_629_" fill="#E3DAFC" cx="79.731" cy="144.941" r="2.513"/>
	<path id="XMLID_460_" fill="#E3DAFC" d="M95.872,113.966l-3.202-0.436c-10.317-1.405-17.541-10.907-16.137-21.223l1.647-12.098
		c1.405-10.316,10.907-17.54,21.223-16.136l3.202,0.437c10.317,1.404,17.541,10.906,16.136,21.223l-1.647,12.097
		C115.689,108.146,106.188,115.371,95.872,113.966z"/>
	<g id="XMLID_438_">
		
			<circle id="XMLID_451_" fill="#F6F6F4" stroke="#333333" stroke-width="2.1545" stroke-linecap="round" stroke-linejoin="round" stroke-miterlimit="10" cx="87.683" cy="90.563" r="7.541"/>
		
			<circle id="XMLID_448_" fill="#F6F6F4" stroke="#333333" stroke-width="2.1545" stroke-linecap="round" stroke-linejoin="round" stroke-miterlimit="10" cx="106.817" cy="93.169" r="7.541"/>
		
			<line id="XMLID_447_" fill="none" stroke="#333333" stroke-width="2.1545" stroke-linecap="round" stroke-linejoin="round" stroke-miterlimit="10" x1="95.155" y1="91.581" x2="99.346" y2="92.15"/>
		
			<line id="XMLID_441_" fill="none" stroke="#333333" stroke-width="2.1545" stroke-linecap="round" stroke-linejoin="round" stroke-miterlimit="10" x1="114.289" y1="94.188" x2="117.53" y2="94.627"/>
		
			<line id="XMLID_440_" fill="none" stroke="#333333" stroke-width="2.1545" stroke-linecap="round" stroke-linejoin="round" stroke-miterlimit="10" x1="80.211" y1="89.545" x2="76.969" y2="89.104"/>
	</g>
	<circle id="XMLID_432_" fill="#2727CC" cx="108.913" cy="90.408" r="1.801"/>
	<circle id="XMLID_431_" fill="#2727CC" cx="89.778" cy="87.801" r="1.8"/>
	
		<line id="XMLID_628_" fill="none" stroke="#DC4B4B" stroke-width="2.1545" stroke-linecap="round" stroke-linejoin="round" stroke-miterlimit="10" x1="92.125" y1="106.9" x2="108.65" y2="103.961"/>
	<path id="XMLID_270_" fill="#DC4B4B" d="M98.521,81.741c7.361,0.824,14.643,0.971,21.783,0.494
		c-0.401-9.798-7.899-18.106-17.945-19.23l-3.443-0.385c-10.046-1.124-19.194,5.322-21.751,14.79
		C84.024,79.452,91.158,80.917,98.521,81.741z"/>
	<rect id="XMLID_630_" x="81.142" y="138.82" fill="#F0F0F0" width="33.147" height="7.936"/>
</g>
<g id="XMLID_479_">
	<path id="XMLID_311_" fill="#333333" d="M243.928,50.637c-9.525,0-17.275-7.749-17.275-17.275v0.166
		c0-9.526,7.75-17.276,17.275-17.276h8.391c9.524,0,17.277,7.75,17.277,17.276v-0.166c0,9.526-7.753,17.275-17.277,17.275H243.928z"
		/>
	<path id="XMLID_754_" fill="#5AE091" d="M249.738,62.148h-3.232c-10.41,0-18.852,8.44-18.852,18.852v32.417
		c0,2.975,2.412,5.387,5.386,5.387h30.164c2.976,0,5.387-2.413,5.387-5.387V81C268.591,70.588,260.15,62.148,249.738,62.148z"/>
	
		<path id="XMLID_753_" fill="none" stroke="#5AE091" stroke-width="5.0272" stroke-linecap="round" stroke-linejoin="round" stroke-miterlimit="10" d="
		M262.064,70.118c23.842,46.955,22.826,6.92,22.826,6.92"/>
	
		<path id="XMLID_751_" fill="none" stroke="#5AE091" stroke-width="5.0272" stroke-linecap="round" stroke-linejoin="round" stroke-miterlimit="10" d="
		M235.195,69.125C191.271,101.003,203.5,50.861,203.5,50.861"/>
	<circle id="XMLID_750_" fill="#DC4B4B" cx="203.5" cy="50.861" r="2.513"/>
	<path id="XMLID_301_" fill="#DC4B4B" d="M253.164,23.72h-10.085c-8.181,0-14.812,6.631-14.812,14.812v10.554
		c0,8.181,6.631,14.812,14.812,14.812h10.085c8.182,0,14.814-6.631,14.814-14.812V38.533
		C267.979,30.352,261.346,23.72,253.164,23.72z"/>
	
		<path id="XMLID_741_" fill="none" stroke="#F6F6F4" stroke-width="8.9322" stroke-linecap="round" stroke-linejoin="round" stroke-miterlimit="10" d="
		M242.158,52.809c0,0,9.787,1.562,16.605-4.094"/>
	<path id="XMLID_761_" fill="#333333" d="M241.585,38.366c-1.461,0-2.858-0.263-4.153-0.742c0.254,2.069,2.017,3.671,4.153,3.671
		c2.14,0,3.897-1.603,4.153-3.671C244.445,38.103,243.046,38.366,241.585,38.366z"/>
	<path id="XMLID_783_" fill="#333333" d="M253.602,38.366c-1.461,0-2.86-0.263-4.153-0.742c0.255,2.069,2.015,3.671,4.153,3.671
		c2.137,0,3.897-1.603,4.151-3.671C256.459,38.103,255.061,38.366,253.602,38.366z"/>
	<path id="XMLID_355_" fill="#333333" d="M240.824,29.145c-3.006,0-5.45-2.446-5.45-5.451v0.052c0-3.005,2.444-5.451,5.45-5.451
		h14.597c3.004,0,5.45,2.446,5.45,5.451v-0.052c0,3.005-2.446,5.451-5.45,5.451H240.824z"/>
	
		<rect id="XMLID_735_" x="266.966" y="50.097" transform="matrix(-0.6058 -0.7956 0.7956 -0.6058 393.375 329.4999)" fill="#F0F0F0" width="22.708" height="34.391"/>
	<circle id="XMLID_752_" fill="#DC4B4B" cx="284.889" cy="77.038" r="2.513"/>
</g>
<g id="XMLID_1138_">
	<rect id="XMLID_756_" x="55.506" y="152.962" fill="#1628B2" width="78.562" height="18.413"/>
	<rect id="XMLID_643_" x="73.315" y="159.393" fill="#1628B2" width="42.943" height="68.146"/>
	<rect id="XMLID_636_" x="55.506" y="146.812" fill="#294CCC" width="78.562" height="6.149"/>
</g>
<g id="XMLID_1139_">
	<rect id="XMLID_738_" x="208.841" y="102.924" fill="#1628B2" width="78.562" height="18.415"/>
	<rect id="XMLID_737_" x="226.65" y="109.356" fill="#1628B2" width="42.943" height="68.146"/>
	<rect id="XMLID_736_" x="208.841" y="96.775" fill="#294CCC" width="78.562" height="6.149"/>
</g>
</svg>
