<?xml version="1.0" encoding="utf-8"?>
<!-- Generator: Adobe Illustrator 16.0.0, SVG Export Plug-In . SVG Version: 6.00 Build 0)  -->
<!DOCTYPE svg PUBLIC "-//W3C//DTD SVG 1.1//EN" "http://www.w3.org/Graphics/SVG/1.1/DTD/svg11.dtd">
<svg version="1.1" id="Layer_1" xmlns="http://www.w3.org/2000/svg" xmlns:xlink="http://www.w3.org/1999/xlink" x="0px" y="0px"
	 width="160px" height="160px" viewBox="-23.5 -16.5 160 160" enable-background="new -23.5 -16.5 160 160" xml:space="preserve">
<title>Page 1</title>
<desc>Created with Sketch.</desc>
<g id="Page-1_1_">
	<g id="desktop" transform="translate(-677.000000, -4353.000000)">
		<g id="Sindrome-impostor" transform="translate(-4.000000, 4159.000000)">
			<g id="impostor-4" transform="translate(664.000000, 151.000000)">
				<g id="Page-1" transform="translate(17.000000, 43.000000)">
					<g id="Clip-2">
					</g>
					<defs>
						<filter id="Adobe_OpacityMaskFilter" filterUnits="userSpaceOnUse" x="-1" y="14.667" width="112.523" height="126.304">
							<feColorMatrix  type="matrix" values="1 0 0 0 0  0 1 0 0 0  0 0 1 0 0  0 0 0 1 0"/>
						</filter>
					</defs>
					<mask maskUnits="userSpaceOnUse" x="-1" y="14.667" width="112.523" height="126.304" id="mask-2">
						<g filter="url(#Adobe_OpacityMaskFilter)">
							<polygon id="path-1" fill="#FFFFFF" points="-1,14.667 111.523,14.667 111.523,140.971 -1,140.971 							"/>
						</g>
					</mask>
					<path id="Fill-1" mask="url(#mask-2)" fill="#6867A6" d="M100.955,112.873c-0.345,1.145-0.736,2.225-1.17,3.242l-6.355-9.852
						l-9.99,2.584l-9.988-17.223H57.436l14.123,2.412l8.438,23.076l9.815-1.377l1.054,11.064c-7.976,5.113-19.138,5.77-30.889,5.818
						c-1.022,0.004-2.002,0.006-2.932,0.02h-3.734c-28.386-0.203-45.978-6.002-45.978-34.24c0-12.979,10.21-18.301,21.02-23.936
						c10.006-5.215,21.346-11.125,21.346-24.113c0-15.88-8.725-25.36-23.336-25.36c-0.271,0-0.511,0.003-0.717,0.006
						c-0.032-0.276-0.058-0.655-0.058-1.167c0-0.199,0.014-0.342,0.029-0.439c0.225-0.074,0.575-0.147,0.807-0.194
						c0.243-0.05,0.464-0.098,0.659-0.146L27.273,23h55.631l0.191,0.048c0.237,0.06,0.512,0.114,0.814,0.171
						c0.185,0.035,0.453,0.085,0.654,0.137c0.015,0.111,0.027,0.266,0.027,0.472c0,0.511-0.025,0.891-0.059,1.167
						c-0.205-0.003-0.445-0.006-0.716-0.006c-14.613,0-23.337,9.48-23.337,25.36c0,13.031,11.416,18.939,21.487,24.152
						c10.836,5.607,21.069,10.906,21.222,23.725C103.189,104.191,103.189,105.434,100.955,112.873 M85.797,67.1
						c-10.529-5.45-16.983-9.175-16.983-16.75c0-7.151,2.001-12.096,5.946-14.699c2.344-1.544,5.393-2.329,9.058-2.329
						c0.274,0,0.511,0.004,0.708,0.006l0.445,0.005c2.971,0,7.954-1.235,7.954-9.505c0-3.372-1.296-7.635-7.471-8.798
						c-0.043-0.008-0.084-0.016-0.124-0.023c-0.967-0.34-1.808-0.34-2.254-0.34H27.104c-0.449,0-1.302,0-2.278,0.349
						c-0.03,0.005-0.061,0.012-0.092,0.02c-6.181,1.28-7.479,5.489-7.479,8.793c0,8.27,4.986,9.505,7.957,9.505l0.445-0.005
						c0.196-0.002,0.434-0.006,0.707-0.006c10.096,0,15.003,5.57,15.003,17.028c0,7.551-6.409,11.275-16.864,16.725
						C13.14,72.996-1,80.367-1,98.398c0,17.023,6.064,29.033,18.027,35.693c10.612,5.91,24.268,6.793,36.255,6.879h3.813h0.027
						c0.916-0.012,1.88-0.016,2.889-0.02c14.42-0.059,41.263-0.168,48.924-25.682c2.485-8.27,2.588-10.359,2.588-17.092
						C111.312,80.307,97.165,72.984,85.797,67.1"/>
				</g>
			</g>
		</g>
	</g>
</g>
</svg>
