<?xml version="1.0" encoding="utf-8"?>
<!-- Generator: Adobe Illustrator 16.0.0, SVG Export Plug-In . SVG Version: 6.00 Build 0)  -->
<!DOCTYPE svg PUBLIC "-//W3C//DTD SVG 1.1//EN" "http://www.w3.org/Graphics/SVG/1.1/DTD/svg11.dtd">
<svg version="1.1" id="Layer_1" xmlns="http://www.w3.org/2000/svg" xmlns:xlink="http://www.w3.org/1999/xlink" x="0px" y="0px"
	 width="355px" height="255px" viewBox="0 0 355 255" enable-background="new 0 0 355 255" xml:space="preserve">
<polyline id="XMLID_618_" fill="none" stroke="#94EAC4" stroke-width="3.7971" stroke-linecap="round" stroke-linejoin="round" stroke-miterlimit="10" points="
	179.904,98.914 83.67,98.914 64.403,118.181 64.403,180.462 "/>
<polyline id="XMLID_533_" fill="none" stroke="#45C1C1" stroke-width="8.8391" stroke-linecap="round" stroke-linejoin="round" stroke-miterlimit="10" points="
	148.518,209.441 265.136,206.403 264.743,193.57 "/>
<polyline id="XMLID_532_" fill="none" stroke="#45C1C1" stroke-width="8.8391" stroke-linecap="round" stroke-linejoin="round" stroke-miterlimit="10" points="
	123.453,216.177 238.426,234.452 240.781,221.831 "/>
<g id="XMLID_303_">
	<path id="XMLID_714_" fill="#333333" d="M214.082,240.177l-46.275-7.879c-4.183-0.712-6.063-5.653-3.414-8.967l36.516-45.656
		c1.264-1.581,3.287-2.351,5.282-2.012l46.275,7.879c4.183,0.712,6.063,5.653,3.414,8.967l-36.515,45.656
		C218.1,239.747,216.078,240.517,214.082,240.177z"/>
	<path id="XMLID_718_" fill="#F0F0F0" d="M214.393,238.355l-46.275-7.879c-4.183-0.711-6.064-5.653-3.414-8.967l36.516-45.656
		c1.264-1.581,3.287-2.351,5.283-2.012l46.273,7.879c4.184,0.713,6.064,5.653,3.414,8.967l-36.514,45.657
		C218.41,237.926,216.387,238.696,214.393,238.355z"/>
	<polygon id="XMLID_360_" fill="#CCCCCC" points="213.608,236.009 182.953,230.791 220.217,178.052 250.873,183.271 	"/>
	<g id="XMLID_358_">
		
			<line id="XMLID_388_" fill="none" stroke="#F0F0F0" stroke-width="0.8041" stroke-miterlimit="10" x1="215.966" y1="181.773" x2="258.565" y2="189.026"/>
		
			<line id="XMLID_362_" fill="none" stroke="#F0F0F0" stroke-width="0.8041" stroke-miterlimit="10" x1="211.542" y1="186.565" x2="254.143" y2="193.819"/>
		
			<line id="XMLID_389_" fill="none" stroke="#F0F0F0" stroke-width="0.8041" stroke-miterlimit="10" x1="207.12" y1="191.357" x2="249.72" y2="198.61"/>
		
			<line id="XMLID_390_" fill="none" stroke="#F0F0F0" stroke-width="0.8041" stroke-miterlimit="10" x1="214.501" y1="198.16" x2="245.296" y2="203.403"/>
		
			<line id="XMLID_391_" fill="none" stroke="#F0F0F0" stroke-width="0.8041" stroke-miterlimit="10" x1="210.956" y1="203.102" x2="240.874" y2="208.195"/>
		
			<line id="XMLID_394_" fill="none" stroke="#F0F0F0" stroke-width="0.8041" stroke-miterlimit="10" x1="207.507" y1="208.059" x2="236.451" y2="212.987"/>
		
			<line id="XMLID_395_" fill="none" stroke="#F0F0F0" stroke-width="0.8041" stroke-miterlimit="10" x1="189.428" y1="210.525" x2="232.027" y2="217.779"/>
		
			<line id="XMLID_403_" fill="none" stroke="#F0F0F0" stroke-width="0.8041" stroke-miterlimit="10" x1="185.005" y1="215.318" x2="227.605" y2="222.571"/>
		
			<line id="XMLID_404_" fill="none" stroke="#F0F0F0" stroke-width="0.8041" stroke-miterlimit="10" x1="180.582" y1="220.111" x2="223.182" y2="227.363"/>
		
			<line id="XMLID_405_" fill="none" stroke="#F0F0F0" stroke-width="0.8041" stroke-miterlimit="10" x1="176.159" y1="224.903" x2="218.76" y2="232.156"/>
		
			<line id="XMLID_363_" fill="none" stroke="#F0F0F0" stroke-width="0.8702" stroke-miterlimit="10" x1="227.798" y1="179.342" x2="190.533" y2="232.081"/>
		
			<line id="XMLID_407_" fill="none" stroke="#F0F0F0" stroke-width="0.8702" stroke-miterlimit="10" x1="235.935" y1="180.728" x2="198.67" y2="233.466"/>
		
			<line id="XMLID_408_" fill="none" stroke="#F0F0F0" stroke-width="0.8702" stroke-miterlimit="10" x1="244.07" y1="182.112" x2="206.805" y2="234.852"/>
	</g>
	<polygon id="XMLID_357_" fill="#CCCCCC" points="195.514,208.493 180.366,205.914 191.404,191.691 206.552,194.271 	"/>
</g>
<circle id="XMLID_530_" fill="#DC4B4B" cx="85.367" cy="61.988" r="18.937"/>
<circle id="XMLID_695_" fill="#DC4B4B" cx="75.403" cy="43.052" r="18.935"/>
<circle id="XMLID_696_" fill="#DC4B4B" cx="94.338" cy="32.678" r="18.936"/>
<path id="XMLID_205_" fill="#DC4B4B" d="M139.143,14.204h-5.657c-23.046,0-41.794,18.75-41.794,41.794v2.265v1.887v4.249
	c0,23.045,18.748,41.795,41.794,41.795h5.657c23.044,0,41.794-18.75,41.794-41.795v-4.249v-1.887v-2.265
	C180.937,32.954,162.187,14.204,139.143,14.204z"/>
<path id="XMLID_531_" fill="#45C1C1" d="M150.87,220.906h-26.519c-5.23,0-9.471-4.24-9.471-9.471v-8.554
	c0-5.23,4.24-9.471,9.471-9.471h26.519c5.229,0,9.47,4.24,9.47,9.471v8.554C160.34,216.666,156.1,220.906,150.87,220.906z"/>
<path id="XMLID_529_" fill="#E3DAFC" d="M140.452,108.129h-5.683c-18.307,0-33.146-14.84-33.146-33.146V53.516
	c0-18.307,14.84-33.146,33.146-33.146h5.683c18.306,0,33.146,14.84,33.146,33.146v21.467
	C173.599,93.289,158.758,108.129,140.452,108.129z"/>
<g id="XMLID_524_">
	
		<circle id="XMLID_528_" fill="#F6F6F4" stroke="#333333" stroke-width="3.7882" stroke-linecap="round" stroke-linejoin="round" stroke-miterlimit="10" cx="137.611" cy="69.301" r="13.259"/>
	
		<circle id="XMLID_527_" fill="#F6F6F4" stroke="#333333" stroke-width="3.7882" stroke-linecap="round" stroke-linejoin="round" stroke-miterlimit="10" cx="171.565" cy="69.301" r="13.259"/>
	
		<line id="XMLID_526_" fill="none" stroke="#333333" stroke-width="3.7882" stroke-linecap="round" stroke-linejoin="round" stroke-miterlimit="10" x1="150.87" y1="69.301" x2="158.307" y2="69.301"/>
	
		<line id="XMLID_525_" fill="none" stroke="#333333" stroke-width="3.7882" stroke-linecap="round" stroke-linejoin="round" stroke-miterlimit="10" x1="124.353" y1="69.301" x2="102.561" y2="69.301"/>
</g>
<path id="XMLID_523_" fill="#333333" d="M140.452,108.129h-5.683c-18.307,0-33.146,14.841-33.146,33.146v56.998
	c0,5.23,4.24,9.471,9.471,9.471h53.033c5.231,0,9.473-4.24,9.473-9.471v-56.998C173.6,122.97,158.758,108.129,140.452,108.129z"/>
<path id="XMLID_522_" fill="none" stroke="#333333" stroke-width="8.8391" stroke-linecap="round" stroke-linejoin="round" stroke-miterlimit="10" d="
	M165.236,127.311c12.813,55.795,50.729,54.802,50.729,54.802"/>
<circle id="XMLID_521_" fill="#E3DAFC" cx="215.965" cy="182.112" r="4.42"/>
<path id="XMLID_520_" fill="none" stroke="#333333" stroke-width="8.8391" stroke-linecap="round" stroke-linejoin="round" stroke-miterlimit="10" d="
	M138.972,126.754c26.165,69.586,71.164,76.348,71.164,76.348"/>
<circle id="XMLID_519_" fill="#E3DAFC" cx="210.137" cy="203.102" r="4.42"/>
<circle id="XMLID_413_" fill="#2727CC" cx="177.318" cy="72.465" r="3.165"/>
<circle id="XMLID_411_" fill="#2727CC" cx="143.363" cy="72.466" r="3.165"/>
<path id="XMLID_409_" fill="none" stroke="#DC4B4B" stroke-width="3.7882" stroke-linecap="round" stroke-linejoin="round" stroke-miterlimit="10" d="
	M142.81,90.746c0,0,3.97,1.678,7.437,0"/>
<path id="XMLID_406_" fill="#DC4B4B" d="M137.61,51.613c12.886,0,25.502-1.154,37.752-3.36
	c-2.589-16.859-17.156-29.771-34.739-29.771h-6.025c-17.583,0-32.15,12.912-34.738,29.771
	C112.109,50.459,124.726,51.613,137.61,51.613z"/>
<path id="XMLID_699_" fill="#DC4B4B" d="M116.537,31.162c5.965,0.792,2.107,11.967,2.107,18.245c0,15.65-4.531,30.24-12.354,42.533
	c0,0-9.85-13.29-14.577-30.39C91.714,61.551,89.996,27.641,116.537,31.162z"/>
<g id="XMLID_41_">
	
		<circle id="XMLID_492_" fill="none" stroke="#94EAC4" stroke-width="3.7971" stroke-linecap="round" stroke-linejoin="round" stroke-miterlimit="10" cx="285.911" cy="47.88" r="8.364"/>
	
		<circle id="XMLID_645_" fill="none" stroke="#94EAC4" stroke-width="3.7971" stroke-linecap="round" stroke-linejoin="round" stroke-miterlimit="10" cx="315.635" cy="16.597" r="8.364"/>
	
		<circle id="XMLID_558_" fill="none" stroke="#94EAC4" stroke-width="3.7971" stroke-linecap="round" stroke-linejoin="round" stroke-miterlimit="10" cx="211.546" cy="114.207" r="8.364"/>
	
		<circle id="XMLID_559_" fill="none" stroke="#94EAC4" stroke-width="3.7971" stroke-linecap="round" stroke-linejoin="round" stroke-miterlimit="10" cx="88.226" cy="35.048" r="8.364"/>
	
		<circle id="XMLID_653_" fill="none" stroke="#94EAC4" stroke-width="3.7971" stroke-linecap="round" stroke-linejoin="round" stroke-miterlimit="10" cx="27.917" cy="97.733" r="8.364"/>
	
		<circle id="XMLID_560_" fill="none" stroke="#94EAC4" stroke-width="3.7971" stroke-linecap="round" stroke-linejoin="round" stroke-miterlimit="10" cx="160.341" cy="20.369" r="8.364"/>
	
		<polyline id="XMLID_557_" fill="none" stroke="#94EAC4" stroke-width="3.7971" stroke-linecap="round" stroke-linejoin="round" stroke-miterlimit="10" points="
		82.461,40.812 47.723,75.55 47.723,150.21 128.105,150.21 167.992,190.096 247.214,190.096 	"/>
	
		<polyline id="XMLID_617_" fill="none" stroke="#94EAC4" stroke-width="3.7971" stroke-linecap="round" stroke-linejoin="round" stroke-miterlimit="10" points="
		168.705,20.369 211.545,20.369 234.998,43.821 179.904,98.914 	"/>
	
		<polyline id="XMLID_616_" fill="none" stroke="#94EAC4" stroke-width="3.7971" stroke-linecap="round" stroke-linejoin="round" stroke-miterlimit="10" points="
		221.979,220.111 104.318,220.111 64.669,180.462 	"/>
	
		<polyline id="XMLID_620_" fill="none" stroke="#94EAC4" stroke-width="3.7971" stroke-linecap="round" stroke-linejoin="round" stroke-miterlimit="10" points="
		211.545,122.572 211.545,156.005 236.794,181.253 	"/>
	
		<polyline id="XMLID_627_" fill="none" stroke="#94EAC4" stroke-width="3.7971" stroke-linecap="round" stroke-linejoin="round" stroke-miterlimit="10" points="
		285.912,56.244 285.912,84.474 246.048,124.336 246.048,169.479 	"/>
	
		<polyline id="XMLID_621_" fill="none" stroke="#94EAC4" stroke-width="3.7971" stroke-linecap="round" stroke-linejoin="round" stroke-miterlimit="10" points="
		257.105,155.689 257.105,131.37 285.747,102.729 320.174,102.729 335.446,87.456 335.446,36.575 321.919,23.048 	"/>
	
		<polyline id="XMLID_644_" fill="none" stroke="#94EAC4" stroke-width="3.7971" stroke-linecap="round" stroke-linejoin="round" stroke-miterlimit="10" points="
		27.917,106.098 27.917,169.479 92.658,169.479 135.948,212.768 227.605,212.768 	"/>
</g>
<polygon id="XMLID_309_" fill="#333333" points="218.77,226.854 216.594,239.633 220.688,236.254 223.723,224.836 "/>
<path id="XMLID_715_" fill="#333333" d="M265.056,133.979l-36.775,45.357c-1.178,1.454-1.963,3.187-2.277,5.033l-8.582,50.406
	c-0.32,1.881,2.065,2.96,3.267,1.479l37.136-45.803c1.279-1.578,2.131-3.46,2.473-5.462l8.403-49.363
	C269.056,133.53,266.395,132.325,265.056,133.979z"/>
</svg>
