<?xml version="1.0" encoding="utf-8"?>
<!-- Generator: Adobe Illustrator 16.0.0, SVG Export Plug-In . SVG Version: 6.00 Build 0)  -->
<!DOCTYPE svg PUBLIC "-//W3C//DTD SVG 1.1//EN" "http://www.w3.org/Graphics/SVG/1.1/DTD/svg11.dtd">
<svg version="1.1" id="Layer_1" xmlns="http://www.w3.org/2000/svg" xmlns:xlink="http://www.w3.org/1999/xlink" x="0px" y="0px"
	 width="355px" height="255px" viewBox="0 0 355 255" enable-background="new 0 0 355 255" xml:space="preserve">
<g id="XMLID_1109_">
	<path id="XMLID_310_" fill="#F6F6F4" d="M294.894,67.604h-94.921c-4.59,0-8.31-3.722-8.31-8.31v-77.779
		c0-4.591,3.72-8.311,8.31-8.311h94.921c4.589,0,8.309,3.72,8.309,8.311v77.779C303.202,63.883,299.482,67.604,294.894,67.604z"/>
	<path id="XMLID_313_" fill="#F0F0F0" d="M274.231,26.556H88.113c-4.59,0-8.311-3.72-8.311-8.31v-2.208
		c0-4.59,3.721-8.312,8.311-8.312h186.118c4.589,0,8.31,3.722,8.31,8.312v2.208C282.541,22.836,278.82,26.556,274.231,26.556z"/>
	<path id="XMLID_814_" fill="#E0E0E0" d="M160.629,222.28H17.776c-4.591,0-8.311-3.721-8.311-8.31v-44.36
		c0-4.59,3.72-8.31,8.311-8.31h142.853c4.589,0,8.31,3.72,8.31,8.31v44.36C168.938,218.56,165.218,222.28,160.629,222.28z"/>
	<path id="XMLID_815_" fill="#E0E0E0" d="M301.826,182.668h-86.824c-4.589,0-8.31-3.722-8.31-8.312V62.098
		c0-4.59,3.721-8.31,8.31-8.31h86.824c4.588,0,8.311,3.72,8.311,8.31v112.259C310.137,178.946,306.414,182.668,301.826,182.668z"/>
	<path id="XMLID_306_" fill="#E0E0E0" d="M163.684,98.656H73.375c-4.59,0-8.31-3.721-8.31-8.31v-67.79c0-4.589,3.72-8.31,8.31-8.31
		h90.309c4.59,0,8.311,3.721,8.311,8.31v67.79C171.994,94.936,168.273,98.656,163.684,98.656z"/>
	<path id="XMLID_494_" fill="#F0F0F0" d="M36.192,190.792V47.938c0-4.59,3.722-8.311,8.311-8.311h1.553
		c4.59,0,8.311,3.721,8.311,8.311v142.854c0,4.589-3.721,8.31-8.311,8.31h-1.553C39.914,199.102,36.192,195.381,36.192,190.792z"/>
	<path id="XMLID_811_" fill="#F6F6F4" d="M326.851,222.899H113.588c-4.588,0-8.31-3.721-8.31-8.312v-36.736
		c0-4.589,3.722-8.31,8.31-8.31h213.263c4.591,0,8.312,3.721,8.312,8.31v36.736C335.162,219.179,331.441,222.899,326.851,222.899z"
		/>
	<path id="XMLID_816_" fill="#F6F6F4" d="M217.523,133.451H32.152c-4.589,0-8.309-3.72-8.309-8.31V88.404
		c0-4.59,3.72-8.31,8.309-8.31h185.371c4.59,0,8.31,3.72,8.31,8.31v36.737C225.833,129.731,222.113,133.451,217.523,133.451z"/>
	<path id="XMLID_810_" fill="#F0F0F0" d="M283.04,235.296H39.66c-4.59,0-8.31-3.721-8.31-8.312v-5c0-4.589,3.72-8.312,8.31-8.312
		h243.38c4.589,0,8.312,3.723,8.312,8.312v5C291.352,231.575,287.629,235.296,283.04,235.296z"/>
	<path id="XMLID_813_" fill="#F0F0F0" d="M213.967,177.618H71.113c-4.589,0-8.31-3.722-8.31-8.311v-44.358
		c0-4.591,3.721-8.311,8.31-8.311h142.854c4.59,0,8.31,3.72,8.31,8.311v44.358C222.276,173.896,218.557,177.618,213.967,177.618z"/>
	<path id="XMLID_308_" fill="#F0F0F0" d="M334.859,161.798h-57.268c-4.588,0-8.308-3.72-8.308-8.31v-44.359
		c0-4.591,3.72-8.311,8.308-8.311h57.268c4.59,0,8.31,3.72,8.31,8.311v44.359C343.169,158.078,339.449,161.798,334.859,161.798z"/>
	<path id="XMLID_307_" fill="#F0F0F0" d="M334.859,89.406H148.741c-4.589,0-8.311-3.721-8.311-8.31V60.058
		c0-4.59,3.722-8.311,8.311-8.311h186.118c4.59,0,8.31,3.721,8.31,8.311v21.039C343.169,85.686,339.449,89.406,334.859,89.406z"/>
</g>
<g id="XMLID_1108_">
	
		<circle id="XMLID_658_" fill="none" stroke="#94EAC4" stroke-width="4.0207" stroke-linecap="round" stroke-linejoin="round" stroke-miterlimit="10" cx="215.548" cy="235.831" r="8.856"/>
	
		<polyline id="XMLID_766_" fill="none" stroke="#94EAC4" stroke-width="4.0207" stroke-linecap="round" stroke-linejoin="round" stroke-miterlimit="10" points="
		126.166,227.828 176.712,227.828 185.093,236.21 206.959,236.21 	"/>
	
		<line id="XMLID_745_" fill="none" stroke="#94EAC4" stroke-width="4.0207" stroke-linecap="round" stroke-linejoin="round" stroke-miterlimit="10" x1="142.541" y1="205.817" x2="178.312" y2="205.817"/>
	
		<line id="XMLID_746_" fill="none" stroke="#94EAC4" stroke-width="4.0207" stroke-linecap="round" stroke-linejoin="round" stroke-miterlimit="10" x1="142.541" y1="183.808" x2="193.087" y2="183.808"/>
	
		<line id="XMLID_747_" fill="none" stroke="#94EAC4" stroke-width="4.0207" stroke-linecap="round" stroke-linejoin="round" stroke-miterlimit="10" x1="150.728" y1="161.798" x2="201.273" y2="161.798"/>
	
		<line id="XMLID_748_" fill="none" stroke="#94EAC4" stroke-width="4.0207" stroke-linecap="round" stroke-linejoin="round" stroke-miterlimit="10" x1="158.914" y1="139.787" x2="209.459" y2="139.787"/>
	
		<line id="XMLID_749_" fill="none" stroke="#94EAC4" stroke-width="4.0207" stroke-linecap="round" stroke-linejoin="round" stroke-miterlimit="10" x1="174.868" y1="117.777" x2="217.647" y2="117.777"/>
	
		<line id="XMLID_755_" fill="none" stroke="#94EAC4" stroke-width="4.0207" stroke-linecap="round" stroke-linejoin="round" stroke-miterlimit="10" x1="183.476" y1="95.768" x2="225.833" y2="95.768"/>
	
		<line id="XMLID_757_" fill="none" stroke="#94EAC4" stroke-width="4.0207" stroke-linecap="round" stroke-linejoin="round" stroke-miterlimit="10" x1="183.476" y1="73.757" x2="234.021" y2="73.757"/>
	
		<line id="XMLID_758_" fill="none" stroke="#94EAC4" stroke-width="4.0207" stroke-linecap="round" stroke-linejoin="round" stroke-miterlimit="10" x1="191.663" y1="51.747" x2="242.209" y2="51.747"/>
	
		<line id="XMLID_759_" fill="none" stroke="#94EAC4" stroke-width="4.0207" stroke-linecap="round" stroke-linejoin="round" stroke-miterlimit="10" x1="208.036" y1="29.737" x2="250.395" y2="29.737"/>
	
		<line id="XMLID_760_" fill="none" stroke="#94EAC4" stroke-width="4.0207" stroke-linecap="round" stroke-linejoin="round" stroke-miterlimit="10" x1="208.036" y1="7.727" x2="258.582" y2="7.727"/>
	
		<line id="XMLID_740_" fill="none" stroke="#94EAC4" stroke-width="4.0207" stroke-linecap="round" stroke-linejoin="round" stroke-miterlimit="10" x1="128.381" y1="242.024" x2="220.168" y2="-3.294"/>
	
		<line id="XMLID_744_" fill="none" stroke="#94EAC4" stroke-width="4.0207" stroke-linecap="round" stroke-linejoin="round" stroke-miterlimit="10" x1="126.166" y1="227.828" x2="142.541" y2="183.808"/>
	
		<line id="XMLID_743_" fill="none" stroke="#94EAC4" stroke-width="4.0207" stroke-linecap="round" stroke-linejoin="round" stroke-miterlimit="10" x1="164.589" y1="242.024" x2="256.376" y2="-3.294"/>
	
		<line id="XMLID_742_" fill="none" stroke="#94EAC4" stroke-width="4.0207" stroke-linecap="round" stroke-linejoin="round" stroke-miterlimit="10" x1="193.087" y1="183.808" x2="201.273" y2="161.798"/>
	
		<line id="XMLID_762_" fill="none" stroke="#94EAC4" stroke-width="4.0207" stroke-linecap="round" stroke-linejoin="round" stroke-miterlimit="10" x1="150.728" y1="161.798" x2="158.914" y2="139.787"/>
	
		<line id="XMLID_763_" fill="none" stroke="#94EAC4" stroke-width="4.0207" stroke-linecap="round" stroke-linejoin="round" stroke-miterlimit="10" x1="209.459" y1="139.787" x2="234.021" y2="73.757"/>
	
		<line id="XMLID_764_" fill="none" stroke="#94EAC4" stroke-width="4.0207" stroke-linecap="round" stroke-linejoin="round" stroke-miterlimit="10" x1="183.476" y1="73.757" x2="191.663" y2="51.747"/>
	
		<line id="XMLID_767_" fill="none" stroke="#94EAC4" stroke-width="4.0207" stroke-linecap="round" stroke-linejoin="round" stroke-miterlimit="10" x1="208.036" y1="7.727" x2="216.224" y2="-14.283"/>
	
		<line id="XMLID_765_" fill="none" stroke="#94EAC4" stroke-width="4.0207" stroke-linecap="round" stroke-linejoin="round" stroke-miterlimit="10" x1="242.209" y1="51.747" x2="258.582" y2="7.727"/>
</g>
<g id="XMLID_43_">
	
		<path id="XMLID_662_" fill="none" stroke="#333333" stroke-width="3.4628" stroke-linecap="round" stroke-linejoin="round" stroke-miterlimit="10" d="
		M88.708,176.503c30.188,26.031,5.833,30.574,5.833,30.574"/>
	<circle id="XMLID_660_" fill="#E3DAFC" cx="94.542" cy="207.077" r="1.731"/>
	
		<path id="XMLID_657_" fill="none" stroke="#333333" stroke-width="3.4628" stroke-linecap="round" stroke-linejoin="round" stroke-miterlimit="10" d="
		M70.898,176.503c-30.188,26.031-5.833,30.574-5.833,30.574"/>
	<circle id="XMLID_656_" fill="#E3DAFC" cx="65.065" cy="207.077" r="1.732"/>
	
		<polyline id="XMLID_683_" fill="none" stroke="#45C1C1" stroke-width="3.4628" stroke-linecap="round" stroke-linejoin="round" stroke-miterlimit="10" points="
		84.174,210.723 84.174,249.748 89.202,249.748 	"/>
	
		<polyline id="XMLID_682_" fill="none" stroke="#45C1C1" stroke-width="3.4628" stroke-linecap="round" stroke-linejoin="round" stroke-miterlimit="10" points="
		75.269,210.723 75.269,249.748 80.298,249.748 	"/>
	<path id="XMLID_681_" fill="#45C1C1" d="M74.608,213.306h10.389c2.05,0,3.711-1.661,3.711-3.711v-3.351
		c0-2.049-1.661-3.71-3.711-3.71H74.608c-2.049,0-3.71,1.661-3.71,3.71v3.351C70.898,211.645,72.56,213.306,74.608,213.306z"/>
	<path id="XMLID_678_" fill="#E3DAFC" d="M78.689,171.698h2.227c7.171,0,12.984-5.814,12.984-12.986v-8.409
		c0-7.173-5.813-12.985-12.984-12.985h-2.227c-7.171,0-12.983,5.812-12.983,12.985v8.409
		C65.706,165.884,71.519,171.698,78.689,171.698z"/>
	<path id="XMLID_665_" fill="#333333" d="M78.689,171.698h2.227c7.171,0,12.984,5.813,12.984,12.985v22.329
		c0,2.049-1.661,3.71-3.709,3.71H69.415c-2.048,0-3.709-1.661-3.709-3.71v-22.329C65.706,177.512,71.519,171.698,78.689,171.698z"/>
	<g id="XMLID_312_">
		<circle id="XMLID_377_" fill="#DC4B4B" cx="100.35" cy="159.286" r="7.103"/>
		<circle id="XMLID_326_" fill="#DC4B4B" cx="60.91" cy="152.144" r="7.103"/>
		<circle id="XMLID_325_" fill="#DC4B4B" cx="96.272" cy="150.057" r="7.103"/>
		<circle id="XMLID_323_" fill="#DC4B4B" cx="69.312" cy="174.79" r="7.103"/>
		<circle id="XMLID_402_" fill="#DC4B4B" cx="80.061" cy="175.427" r="9.037"/>
		<circle id="XMLID_322_" fill="#DC4B4B" cx="61.581" cy="165.787" r="9.428"/>
		<circle id="XMLID_321_" fill="#DC4B4B" cx="92.102" cy="170.163" r="9.428"/>
		<path id="XMLID_44_" fill="#DC4B4B" d="M81.192,133.763H78.93c-9.22,0-16.721,7.502-16.721,16.722v1.698v1.662v0.076h0.002
			c0.042,9.184,7.525,16.643,16.719,16.643h2.263c9.193,0,16.676-7.459,16.719-16.643h0.002v-0.076v-1.662v-1.698
			C97.913,141.265,90.411,133.763,81.192,133.763z"/>
	</g>
</g>
</svg>
