<?xml version="1.0" encoding="utf-8"?>
<!-- Generator: Adobe Illustrator 16.0.0, SVG Export Plug-In . SVG Version: 6.00 Build 0)  -->
<!DOCTYPE svg PUBLIC "-//W3C//DTD SVG 1.1//EN" "http://www.w3.org/Graphics/SVG/1.1/DTD/svg11.dtd">
<svg version="1.1" id="Layer_1" xmlns="http://www.w3.org/2000/svg" xmlns:xlink="http://www.w3.org/1999/xlink" x="0px" y="0px"
	 width="160px" height="160px" viewBox="4 -7.5 160 160" enable-background="new 4 -7.5 160 160" xml:space="preserve">
<title>Page 1</title>
<desc>Created with Sketch.</desc>
<g id="Page-1_1_">
	<g id="desktop" transform="translate(-664.000000, -4805.000000)">
		<g id="Sindrome-impostor" transform="translate(-4.000000, 4159.000000)">
			<g id="impostor-6" transform="translate(664.000000, 561.000000)">
				<g id="Page-1" transform="translate(4.000000, 85.000000)">
					<path id="Fill-1" fill="#6867A6" d="M65.965,30.631l0.139-0.281c0.423-0.562,1.264-0.703,1.826-0.282l0.423,0.422
						c0.14,0.14,0.282,0.14,0.282,0.281c1.686-1.125,3.653-1.687,5.899-1.687c5.903,0,10.541,4.777,10.541,10.541
						c0,4.776-3.092,8.851-7.449,10.117c-0.984,0.281-1.967,0.421-3.092,0.421c-2.387,0-4.495-0.704-6.182-1.967
						c-2.67-1.969-4.357-5.06-4.357-8.572c0-1.687,0.422-3.373,1.126-4.778l-0.424-0.282c-0.561-0.421-0.702-1.265-0.28-1.828
						l0.28-0.281c-3.371-0.703-2.388,2.25-2.248,11.242c0.142,5.341-7.587,8.573-14.051,3.514c2.106,0.282,6.463,0.702,6.182-3.514
						c-0.139-2.387-3.092-11.101,2.249-14.754C61.466,25.292,64.699,29.789,65.965,30.631"/>
					<path id="Fill-3" fill="#6867A6" d="M127.141,123.518v3.654c0,0.703-0.562,1.264-1.266,1.264H91.728
						c-0.703,0-1.264-0.561-1.264-1.264v-3.654c0-0.702,0.561-1.266,1.264-1.266h34.147
						C126.579,122.252,127.141,122.815,127.141,123.518"/>
					<path id="Fill-5" fill="#6867A6" d="M148.383,111.647v3.655c0,0.701-0.564,1.263-1.268,1.263H112.97
						c-0.706,0-1.268-0.562-1.268-1.263v-3.655c0-0.701,0.562-1.263,1.268-1.263h34.146
						C147.818,110.385,148.383,110.946,148.383,111.647"/>
					<g id="Group-9" transform="translate(128.000000, 89.935000)">
						<g id="Clip-8">
						</g>
						<defs>
							<filter id="Adobe_OpacityMaskFilter" filterUnits="userSpaceOnUse" x="-0.681" y="9.204" width="36.681" height="6.185">
								<feColorMatrix  type="matrix" values="1 0 0 0 0  0 1 0 0 0  0 0 1 0 0  0 0 0 1 0"/>
							</filter>
						</defs>
						<mask maskUnits="userSpaceOnUse" x="-0.681" y="9.204" width="36.681" height="6.185" id="mask-2">
							<g filter="url(#Adobe_OpacityMaskFilter)">
								<polygon id="path-1" fill="#FFFFFF" points="36,9.204 36,15.388 -0.681,15.388 -0.681,9.204 								"/>
							</g>
						</mask>
						<path id="Fill-7" mask="url(#mask-2)" fill="#6867A6" d="M36,10.469v3.653c0,0.701-0.563,1.266-1.269,1.266H0.587
							c-0.706,0-1.268-0.564-1.268-1.266v-3.653c0-0.704,0.562-1.266,1.268-1.266h34.145C35.437,9.204,36,9.765,36,10.469"/>
					</g>
					<path id="Fill-10" fill="#6867A6" d="M108.825,72.508v2.951c0,0.982-0.843,1.826-1.826,1.826H90.276
						c-0.564,0-1.126-0.281-1.406-0.703l-8.011-8.853l-7.025,18.128l21.642,8.008c0.701,0.284,1.265,0.987,1.123,1.688v0.142
						l-0.843,19.111c0,0.98-0.844,1.826-1.826,1.826h-4.075c-0.984,0-1.829-0.846-1.829-1.826l-0.981-10.539l-14.616-5.199
						l-7.867-2.812l-1.548-0.562l-8.431-3.093c-0.28-0.141-1.124-0.562-0.982-1.825l3.934-26.14l-10.96,3.234h-0.14l-5.059,14.474
						c-0.283,0.983-1.266,1.403-2.249,1.122l-4.215-1.827c-0.985-0.281-1.406-1.264-1.124-2.246l6.462-17.427
						c0.142-0.563,0.563-0.983,1.126-1.123c0.139-0.142,0.279-0.142,0.42-0.283l18.409-6.602c2.67-0.985,5.339-1.546,7.447,0.279
						c0.703,0.703,3.233,3.373,5.482,5.622c0.559,0.562,1.545,0.281,1.684-0.422c0.563-1.124,1.125-4.357,1.686-4.918
						c0.844-0.844,3.093-0.985,5.623,1.124l10.679,13.912c0.14,0.139,0.281,0.279,0.563,0.421l12.647,0.562
						C108.121,70.68,108.825,71.523,108.825,72.508"/>
					<path id="Fill-12" fill="#6867A6" d="M108.028,134.479v3.654c0,0.7-0.562,1.261-1.265,1.261H72.616
						c-0.701,0-1.265-0.561-1.265-1.261v-3.654c0-0.704,0.563-1.264,1.265-1.264h34.148
						C107.467,133.216,108.028,133.775,108.028,134.479"/>
					<path id="Fill-14" fill="#6867A6" d="M86.668,145.58v3.651c0,0.707-0.562,1.269-1.264,1.269H51.257
						c-0.701,0-1.264-0.562-1.264-1.269v-3.651c0-0.701,0.563-1.266,1.264-1.266h34.147
						C86.106,144.314,86.668,144.879,86.668,145.58"/>
					<path id="Fill-16" fill="#6867A6" d="M77.255,98.925C77.255,98.925,77.255,99.067,77.255,98.925l-8.009-2.808h0.14
						L77.255,98.925z"/>
					<path id="Fill-18" fill="#6867A6" d="M67.51,118.039c0.701,0.561,0.843,1.544,0.42,2.246v0.141l-0.138,0.141l-12.929,14.476
						c-0.562,0.701-1.685,0.841-2.529,0.279l-4.215-2.95c-0.704-0.562-0.843-1.687-0.282-2.528l7.729-9.837l0.141-0.281"/>
					<path id="Fill-20" fill="#6867A6" d="M55.846,119.725l-0.139,0.281v-0.281l3.653-20.656l12.506,4.494l-3.513,16.021
						c0,0.141-0.142,0.422-0.282,0.561"/>
					<path id="Fill-22" fill="#6867A6" d="M50.506,97.239c0.984,0.284,0,4.216-0.281,5.058l-5.339,15.741
						c-0.282,0.981-1.406,1.406-2.249,1.123L8.209,106.515c-0.983-0.28-1.404-1.406-1.124-2.247l6.745-18.549
						c0.281-0.987,1.405-1.406,2.248-1.125L50.506,97.239z"/>
					<path id="Fill-24" fill="#6867A6" d="M41.935,86.98c0.282,0.14,0.562,0.424,0.422,0.844l-1.125,3.093
						c-0.14,0.282-0.421,0.562-0.841,0.42l-13.071-4.778c-0.28-0.141-0.562-0.42-0.421-0.84l1.125-3.092
						c0.14-0.281,0.562-0.565,0.844-0.422L41.935,86.98z"/>
					<path id="Fill-26" fill="#6867A6" d="M123.611,68.799c0-1.173,0.41-2.169,1.232-2.989c0.817-0.822,1.814-1.23,2.983-1.23
						c1.176,0,2.169,0.408,2.99,1.23c0.818,0.82,1.233,1.816,1.233,2.989c0,1.172-0.415,2.168-1.233,2.988
						c-0.821,0.82-1.814,1.232-2.99,1.232c-1.169,0-2.166-0.412-2.983-1.232C124.021,70.967,123.611,69.971,123.611,68.799
						L123.611,68.799z M132.228,56.899c-0.316,0-0.579,0.119-0.794,0.354c-0.217,0.233-0.318,0.509-0.318,0.821v3.225h-6.859v-3.343
						c0-5.158,2.422-7.737,7.267-7.737h0.291c0.311,0,0.58-0.116,0.794-0.352c0.214-0.234,0.319-0.507,0.319-0.822v-6.973
						c0-0.312-0.105-0.585-0.319-0.82c-0.214-0.235-0.483-0.352-0.794-0.352h-4.453c-0.317,0-0.577,0.116-0.792,0.352
						c-0.216,0.235-0.318,0.509-0.318,0.82v2.988h-7.27v-2.813c0-5.157,2.423-7.736,7.27-7.736h6.504
						c4.843,0,7.267,2.579,7.267,7.736v6.916c0,5.159-2.424,7.737-7.267,7.737H132.228z"/>
					<path id="Fill-28" fill="#6867A6" d="M99.175,38.483c0-0.5,0.176-0.925,0.524-1.276c0.351-0.349,0.775-0.524,1.273-0.524
						c0.503,0,0.929,0.175,1.278,0.524c0.349,0.351,0.524,0.776,0.524,1.276c0,0.502-0.176,0.926-0.524,1.277
						c-0.35,0.349-0.775,0.525-1.278,0.525c-0.498,0-0.923-0.176-1.273-0.525C99.351,39.409,99.175,38.985,99.175,38.483
						L99.175,38.483z M102.854,33.403c-0.136,0-0.249,0.049-0.341,0.15c-0.091,0.099-0.136,0.217-0.136,0.35v1.376h-2.928v-1.425
						c0-2.203,1.033-3.305,3.104-3.305h0.123c0.133,0,0.247-0.049,0.341-0.15c0.088-0.101,0.135-0.216,0.135-0.351v-2.979
						c0-0.133-0.047-0.249-0.135-0.35c-0.094-0.1-0.208-0.15-0.341-0.15h-1.9c-0.138,0-0.248,0.05-0.34,0.15
						c-0.092,0.101-0.137,0.217-0.137,0.35v1.277h-3.101v-1.204c0-2.202,1.033-3.302,3.101-3.302h2.778
						c2.067,0,3.103,1.1,3.103,3.302V30.1c0,2.202-1.035,3.304-3.103,3.304H102.854z"/>
					<path id="Fill-30" fill="#6867A6" d="M143.267,87.029c0-0.253,0.089-0.473,0.267-0.651c0.18-0.18,0.396-0.267,0.65-0.267
						c0.256,0,0.473,0.087,0.654,0.267c0.177,0.179,0.266,0.398,0.266,0.651c0,0.255-0.089,0.474-0.266,0.652
						c-0.182,0.181-0.398,0.268-0.654,0.268c-0.254,0-0.471-0.087-0.65-0.268C143.355,87.503,143.267,87.284,143.267,87.029
						L143.267,87.029z M145.144,84.438c-0.069,0-0.125,0.027-0.173,0.075c-0.048,0.051-0.071,0.114-0.071,0.179v0.704h-1.494v-0.729
						c0-1.122,0.53-1.686,1.586-1.686h0.06c0.07,0,0.129-0.024,0.175-0.075c0.048-0.052,0.07-0.11,0.07-0.181v-1.519
						c0-0.068-0.022-0.128-0.07-0.18c-0.046-0.05-0.104-0.076-0.175-0.076h-0.968c-0.068,0-0.125,0.026-0.173,0.076
						c-0.046,0.052-0.07,0.111-0.07,0.18v0.651h-1.583v-0.613c0-1.124,0.526-1.686,1.583-1.686h1.418
						c1.055,0,1.584,0.562,1.584,1.686v1.509c0,1.124-0.529,1.685-1.584,1.685H145.144z"/>
					<path id="Fill-32" fill="#6867A6" d="M109.401,98.268c0-0.41,0.144-0.755,0.43-1.039c0.283-0.286,0.629-0.428,1.033-0.428
						c0.411,0,0.756,0.142,1.043,0.428c0.284,0.284,0.426,0.629,0.426,1.039c0,0.406-0.142,0.753-0.426,1.036
						c-0.287,0.286-0.632,0.428-1.043,0.428c-0.404,0-0.75-0.142-1.033-0.428C109.545,99.021,109.401,98.674,109.401,98.268
						L109.401,98.268z M112.395,94.134c-0.11,0-0.2,0.037-0.276,0.122c-0.074,0.079-0.11,0.176-0.11,0.283v1.123h-2.383v-1.164
						c0-1.792,0.842-2.687,2.525-2.687h0.102c0.108,0,0.201-0.041,0.276-0.122c0.073-0.082,0.11-0.176,0.11-0.286v-2.424
						c0-0.107-0.037-0.201-0.11-0.285c-0.075-0.079-0.168-0.122-0.276-0.122h-1.548c-0.11,0-0.201,0.043-0.275,0.122
						c-0.073,0.084-0.11,0.178-0.11,0.285v1.041h-2.526v-0.979c0-1.793,0.844-2.691,2.526-2.691h2.26
						c1.682,0,2.523,0.898,2.523,2.691v2.401c0,1.796-0.842,2.69-2.523,2.69H112.395z"/>
					<path id="Fill-34" fill="#6867A6" d="M138.316,16.932c0-0.587,0.204-1.086,0.615-1.499c0.414-0.408,0.914-0.615,1.497-0.615
						c0.587,0,1.088,0.207,1.499,0.615c0.409,0.412,0.613,0.912,0.613,1.499c0,0.589-0.204,1.086-0.613,1.496
						c-0.411,0.412-0.912,0.618-1.499,0.618c-0.583,0-1.083-0.206-1.497-0.618C138.521,18.018,138.316,17.521,138.316,16.932
						L138.316,16.932z M142.632,10.973c-0.158,0-0.289,0.058-0.397,0.177c-0.105,0.118-0.159,0.253-0.159,0.412v1.614h-3.435V11.5
						c0-2.582,1.212-3.872,3.639-3.872h0.146c0.156,0,0.293-0.06,0.399-0.177c0.104-0.117,0.157-0.255,0.157-0.412V3.546
						c0-0.156-0.053-0.293-0.157-0.409c-0.106-0.119-0.243-0.178-0.399-0.178h-2.228c-0.158,0-0.292,0.059-0.397,0.178
						c-0.112,0.116-0.159,0.253-0.159,0.409v1.499h-3.64v-1.41c0-2.583,1.21-3.875,3.64-3.875h3.258
						c2.422,0,3.638,1.292,3.638,3.875v3.463c0,2.584-1.216,3.875-3.638,3.875H142.632z"/>
				</g>
			</g>
		</g>
	</g>
</g>
</svg>
