<?xml version="1.0" encoding="UTF-8" standalone="no"?>
<svg width="53px" height="90px" viewBox="0 0 53 90" version="1.1" xmlns="http://www.w3.org/2000/svg" xmlns:xlink="http://www.w3.org/1999/xlink">
    <!-- Generator: Sketch 45.2 (43514) - http://www.bohemiancoding.com/sketch -->
    <title>seta</title>
    <desc>Created with Sketch.</desc>
    <defs>
        <polygon id="path-1" points="23.8252609 73.4661387 37.5186414 73.4661387 37.5186414 32.4984879 23.8252609 32.4984879 10.1318805 32.4984879 10.1318805 73.4661387"></polygon>
    </defs>
    <g id="Page-1" stroke="none" stroke-width="1" fill="none" fill-rule="evenodd">
        <g id="desktop" transform="translate(-167.000000, -1837.000000)">
            <g id="quiz-" transform="translate(160.000000, 1645.000000)">
                <g id="pergunta1" transform="translate(0.000000, 88.000000)">
                    <g id="seta" transform="translate(7.000000, 104.224798)">
                        <path d="M42.2157654,82.2966223 L10.131718,82.2966223 L10.131718,82.4446005 L42.2157654,82.4446005 L42.2157654,85.0280179 L10.131718,85.0280179 L10.131718,89.4214935 L-8.64334965e-05,84.2104205 L3.72137771,82.2966223 L-2.87449101e-16,82.2966223 L3.72137771,82.2966223 L10.131718,79.0000441 L10.131718,82.2966223 L42.2157654,82.2966223 L42.2157654,79.0000441 L48.6261057,82.2966223 L50.131428,82.2966223 L48.6261057,82.2966223 L52.3475698,84.2104205 L42.2157654,89.4214935 L42.2157654,82.2966223 Z" id="Combined-Shape" fill="#828282"></path>
                        <mask id="mask-2" fill="white">
                            <use xlink:href="#path-1"></use>
                        </mask>
                        <g id="Clip-2"></g>
                        <path d="M35.6929283,59.4998941 C35.6929283,62.3462923 34.5826203,64.894938 32.7688129,66.7450774 C32.5959335,66.9192676 32.4957053,67.1661985 32.4976072,67.4142933 L32.4976072,71.6039727 L18.8041887,71.6039727 L18.8041887,69.7420008 C18.8060906,69.4939059 18.7062427,69.246975 18.5331731,69.0727849 C17.405368,67.9221215 15.7298261,66.1416193 14.3540179,64.1991474 C12.9778293,62.2564816 11.9574795,60.153398 11.9574795,58.5688111 L11.9574795,54.8444792 C11.9574795,53.6084666 12.7102371,52.5873789 13.7834588,52.2112602 L13.7834588,57.6377282 C13.7766121,58.1298443 14.2138505,58.5833593 14.6963533,58.5833593 C15.178666,58.5833593 15.6160946,58.1298443 15.6090577,57.6377282 L15.6090577,36.2228198 C15.6090577,35.1751575 16.4076503,34.3606538 17.435037,34.3606538 C18.4620434,34.3606538 19.2608262,35.1751575 19.2608262,36.2228198 L19.2608262,47.8613569 C19.2608262,48.3755863 19.6693465,48.7924399 20.1735305,48.7924399 C20.6779048,48.7924399 21.0864251,48.3755863 21.0864251,47.8613569 C21.0864251,46.8136946 21.8850177,45.999191 22.9124044,45.999191 C23.939601,45.999191 24.7380034,46.8136946 24.7380034,47.8613569 L24.7380034,50.6546059 C24.7380034,51.1688352 25.146904,51.5856888 25.6508979,51.5856888 C26.1552722,51.5856888 26.5639827,51.1688352 26.5639827,50.6546059 C26.5639827,49.6069435 27.362385,48.7924399 28.3897718,48.7924399 C29.4169684,48.7924399 30.2153707,49.6069435 30.2153707,50.6546059 L30.2153707,53.4480488 C30.2153707,53.9620841 30.6242714,54.3791317 31.1284555,54.3791317 C31.6324494,54.3791317 32.0413501,53.9620841 32.0413501,53.4480488 C32.0413501,52.4001925 32.8397524,51.5856888 33.866949,51.5856888 C34.8943358,51.5856888 35.6929283,52.4001925 35.6929283,53.4480488 L35.6929283,59.4998941 Z M33.866949,49.7237169 C33.1636398,49.7237169 32.5432519,49.9789888 31.9842942,50.3345461 C31.8175007,48.441732 30.2868808,46.930274 28.3897718,46.930274 C27.6862724,46.930274 27.0660747,47.1857399 26.5067366,47.5414911 C26.3399431,45.6484831 24.8095134,44.1370251 22.9124044,44.1370251 C22.2341998,44.1370251 21.63226,44.3721235 21.0864251,44.7045977 L21.0864251,36.2228198 C21.0864251,34.1757951 19.4420738,32.4984879 17.435037,32.4984879 C15.4276199,32.4984879 13.7834588,34.1757951 13.7834588,36.2228198 L13.7834588,50.3783846 C11.7216484,50.8251104 10.1318805,52.6124018 10.1318805,54.8444792 L10.1318805,58.5688111 C10.1318805,60.892833 11.3935769,63.2052164 12.8705642,65.2902603 C14.2503663,67.2381635 15.8313856,68.9255574 16.9785897,70.1057051 L16.9785897,72.5350557 C16.9785897,73.0227104 17.413546,73.4661387 17.8912941,73.4661387 L33.4106919,73.4661387 C33.8886303,73.4661387 34.3233963,73.0227104 34.3235865,72.5350557 L34.3235865,67.7341591 C36.294678,65.5726888 37.5187175,62.6874954 37.5187175,59.4998941 L37.5187175,53.4480488 C37.5187175,51.4008301 35.8741759,49.7237169 33.866949,49.7237169 L33.866949,49.7237169 Z" id="Fill-1" fill="#828282" mask="url(#mask-2)"></path>
                        <path d="M17.7306578,0.216731696 L17.7306578,31.0056378" id="Path-2" stroke="#828282"></path>
                    </g>
                </g>
            </g>
        </g>
    </g>
</svg>